<svg width="549" height="669" viewBox="0 0 549 669" fill="none" xmlns="http://www.w3.org/2000/svg">
<path opacity="0.5" d="M0 27.5379C0 12.9793 12.8575 1.77362 27.2796 3.76305L527.28 72.735C539.155 74.3731 548 84.5223 548 96.5098V645C548 658.255 537.255 669 524 669H24C10.7452 669 0 658.255 0 645L0 27.5379Z" fill="#BFE7A2"/>
<mask id="mask0_71_3061" style="mask-type:alpha" maskUnits="userSpaceOnUse" x="0" y="3" width="548" height="666">
<path opacity="0.5" d="M0 27.5379C0 12.9793 12.8575 1.77362 27.2796 3.76305L527.28 72.735C539.155 74.3731 548 84.5223 548 96.5098V645C548 658.255 537.255 669 524 669H24C10.7452 669 0 658.255 0 645L0 27.5379Z" fill="#69D1BA"/>
</mask>
<g mask="url(#mask0_71_3061)">
<g style="mix-blend-mode:screen" opacity="0.7">
<path fill-rule="evenodd" clip-rule="evenodd" d="M424.268 316.797C421.215 318.745 418.315 320.596 415.59 322.348C401.953 331.113 389.207 342.159 376.256 353.381L375.447 354.082C362.181 365.576 348.655 377.232 333.53 387.034C303.393 406.566 266.885 418.761 213.793 406.905C146.776 391.939 67.5529 350.226 14.1371 300.709C-12.5726 275.949 -32.6929 249.363 -41.6906 223.336C-50.6573 197.399 -48.5839 172.051 -30.961 149.38C-6.25579 117.598 13.8825 95.2635 41.3171 78.7287C68.7573 62.1906 103.654 51.3638 158.01 42.9392C179.328 39.6352 198.647 32.0941 217.581 23.1616C225.895 19.2397 234.156 15.0387 242.477 10.807C243.628 10.2216 244.781 9.63565 245.934 9.04975C255.439 4.22286 265.053 -0.60482 275.006 -5.1037C314.739 -23.0627 359.871 -35.7839 423.781 -21.5118C448.342 -16.0268 471.219 -12.0798 491.952 -8.50276C499.685 -7.16855 507.12 -5.88581 514.233 -4.59394C540.495 0.176043 562.302 5.06161 578.891 13.0668C595.384 21.0258 606.607 32.0125 611.887 49.0234C617.206 66.1612 616.568 89.6464 608.7 122.722C597.447 170.025 562.463 211.449 523.501 245.363C488.596 275.744 450.705 299.925 424.268 316.797ZM425.268 318.345C481.182 282.663 588.908 213.916 610.502 123.145C636.338 14.5415 585.367 5.74731 492.229 -10.3218C471.508 -13.8968 448.7 -17.8318 424.187 -23.306C341.713 -41.7238 290.161 -15.5077 241.635 9.1693C214.359 23.0395 188.04 36.4235 157.725 41.1221C48.8126 58.0022 17.0376 84.6227 -32.4272 148.256C-104.68 241.206 78.6887 378.619 213.387 408.699C294.366 426.783 337.45 389.449 377.426 354.808C390.413 343.554 403.072 332.585 416.596 323.892C419.317 322.143 422.216 320.293 425.268 318.345Z" fill="#FFF1C2"/>
<path fill-rule="evenodd" clip-rule="evenodd" d="M418.207 315.689C415.562 317.373 413.049 318.973 410.687 320.487C398.859 328.072 387.806 337.63 376.593 347.327L375.886 347.938C364.394 357.875 352.689 367.938 339.604 376.399C313.545 393.248 281.979 403.762 236.039 393.502C178 380.541 109.367 344.455 63.0881 301.636C39.9464 280.225 22.531 257.256 14.7412 234.797C6.98262 212.427 8.76673 190.597 23.9683 171.074C45.3597 143.602 62.7782 124.325 86.504 110.06C110.236 95.7925 140.435 86.4492 187.522 79.187C206.028 76.3329 222.791 69.8077 239.204 62.0856C246.412 58.6948 253.573 55.0624 260.783 51.4056C261.78 50.9003 262.777 50.3946 263.775 49.8889C272.009 45.7183 280.334 41.5491 288.952 37.6648C323.342 22.1637 362.392 11.1956 417.715 23.55C439.008 28.3051 458.843 31.7296 476.813 34.8319C483.514 35.9887 489.955 37.1007 496.115 38.2202C518.877 42.3565 537.746 46.5862 552.092 53.5001C566.342 60.3682 576.015 69.8283 580.573 84.4624C585.17 99.223 584.639 119.482 577.838 148.069C568.125 188.897 537.875 224.667 504.139 253.97C473.919 280.219 441.11 301.107 418.207 315.689ZM419.205 317.238C467.643 286.401 560.967 226.987 579.641 148.491C601.983 54.5745 557.808 46.9481 477.09 33.0129C459.132 29.9127 439.475 26.6179 418.23 21.8735C346.752 5.9113 301.98 28.4462 259.939 49.7688C236.309 61.7537 213.507 73.3184 187.238 77.3698C92.8647 91.9248 65.3406 114.935 22.5029 169.95C-40.0699 250.309 118.893 369.227 235.632 395.297C305.815 410.97 343.134 378.698 377.761 348.755C389.011 339.027 399.976 329.545 411.692 322.032C414.05 320.52 416.561 318.922 419.205 317.238Z" fill="#FFF1C2"/>
</g>
<g style="mix-blend-mode:screen" opacity="0.7">
<path fill-rule="evenodd" clip-rule="evenodd" d="M386.403 290.297C384.324 291.706 382.35 293.044 380.494 294.31C371.209 300.645 362.499 308.581 353.649 316.644L353.097 317.147C344.032 325.405 334.789 333.78 324.49 340.863C303.968 354.978 279.233 363.981 243.585 356.181C198.587 346.335 145.655 317.736 110.2 283.35C92.471 266.156 79.2025 247.601 73.4231 229.322C67.6636 211.106 69.3374 193.187 81.4605 176.99C98.4555 154.285 112.27 138.299 130.938 126.33C149.61 114.358 173.244 106.339 209.965 99.8061C224.367 97.244 237.468 91.7119 250.325 85.2015C255.97 82.3431 261.583 79.2881 267.236 76.2108C268.018 75.7851 268.801 75.359 269.585 74.933C276.043 71.4227 282.574 67.9108 289.331 64.6273C316.302 51.5202 346.854 42.053 389.765 51.4423C406.257 55.0507 421.63 57.5914 435.563 59.8939C440.759 60.7528 445.756 61.5785 450.535 62.4141C468.18 65.4994 482.822 68.7142 493.914 74.1878C504.941 79.6298 512.384 87.2661 515.757 99.2197C519.154 111.263 518.468 127.851 512.805 151.288C504.705 184.807 480.679 214.431 454.053 238.794C430.2 260.62 404.402 278.101 386.403 290.297ZM387.06 291.379C425.128 265.585 498.473 215.888 514.015 151.568C532.61 74.611 498.357 68.9503 435.769 58.6066C421.845 56.3054 406.518 53.7725 390.059 50.1711C334.683 38.0545 299.656 57.1187 266.686 75.0636C248.155 85.15 230.273 94.8827 209.793 98.5262C136.215 111.616 114.512 130.753 80.4847 176.213C30.7808 242.616 152.85 337.663 243.292 357.452C297.665 369.349 327.105 342.526 354.422 317.639C363.297 309.553 371.947 301.672 381.155 295.389C383.008 294.125 384.982 292.788 387.06 291.379Z" fill="#FFF1C2"/>
<path fill-rule="evenodd" clip-rule="evenodd" d="M382.33 289.58C380.529 290.798 378.819 291.954 377.211 293.049C369.157 298.531 361.605 305.398 353.942 312.365L353.459 312.804C345.607 319.944 337.609 327.175 328.699 333.289C310.955 345.465 289.569 353.228 258.722 346.479C219.753 337.952 173.896 313.212 143.177 283.478C127.816 268.61 116.331 252.58 111.326 236.807C106.342 221.096 107.782 205.664 118.239 191.717C132.954 172.09 144.903 158.292 161.047 147.966C177.194 137.637 197.647 130.715 229.457 125.081C241.959 122.867 253.326 118.08 264.471 112.451C269.365 109.979 274.231 107.338 279.13 104.678C279.806 104.311 280.484 103.943 281.162 103.575C286.757 100.542 292.412 97.5089 298.262 94.6736C321.606 83.3593 348.04 75.1954 385.186 83.3231C399.483 86.4513 412.812 88.6558 424.888 90.6529C429.391 91.3975 433.719 92.1134 437.858 92.8375C453.152 95.5131 465.821 98.2965 475.413 103.024C484.941 107.72 491.357 114.295 494.268 124.578C497.205 134.95 496.626 149.259 491.731 169.516C484.74 198.447 463.966 224.027 440.911 245.08C420.261 263.937 397.923 279.039 382.33 289.58ZM382.986 290.663C415.964 268.37 479.501 225.417 492.941 169.795C509.022 103.246 479.337 98.3362 425.095 89.3656C413.027 87.3699 399.817 85.255 385.552 82.1338C337.559 71.6327 307.141 88.0248 278.578 103.532C262.524 112.248 247.032 120.658 229.286 123.801C165.531 135.093 146.732 151.635 117.264 190.938C74.2209 248.348 180.045 330.599 258.429 347.75C305.552 358.061 331.053 334.875 354.714 313.361C362.401 306.372 369.894 299.559 377.871 294.129C379.476 293.036 381.186 291.88 382.986 290.663Z" fill="#FFF1C2"/>
</g>
</g>
<mask id="mask1_71_3061" style="mask-type:alpha" maskUnits="userSpaceOnUse" x="0" y="3" width="548" height="666">
<path d="M0.5 27.5379C0.5 13.2826 13.0897 2.31037 27.2113 4.25836L527.211 73.2303C538.839 74.8342 547.5 84.772 547.5 96.5098V645C547.5 657.979 536.979 668.5 524 668.5H24C11.0213 668.5 0.5 657.979 0.5 645V334.5V27.5379Z" fill="#5FC7B0" stroke="white"/>
</mask>
<g mask="url(#mask1_71_3061)">
</g>
<mask id="mask2_71_3061" style="mask-type:alpha" maskUnits="userSpaceOnUse" x="0" y="3" width="548" height="666">
<path d="M0.5 27.5379C0.5 13.2826 13.0897 2.31037 27.2113 4.25836L527.211 73.2303C538.839 74.8342 547.5 84.772 547.5 96.5098V645C547.5 657.979 536.979 668.5 524 668.5H24C11.0213 668.5 0.5 657.979 0.5 645V334.5V27.5379Z" fill="#5FC7B0" stroke="white"/>
</mask>
<g mask="url(#mask2_71_3061)">
<g style="mix-blend-mode:screen" opacity="0.7">
<path d="M424.537 317.217C421.484 319.166 418.584 321.016 415.86 322.768C402.258 331.51 389.54 342.53 376.583 353.758L375.775 354.459C362.512 365.95 348.96 377.628 333.802 387.452C303.567 407.048 266.922 419.281 213.682 407.392C146.576 392.406 67.274 350.65 13.7958 301.076C-12.9446 276.287 -33.1289 249.635 -42.1638 223.501C-51.1763 197.431 -49.0994 171.9 -31.3561 149.075C-6.64345 117.283 13.5416 94.8863 41.0593 78.3015C68.5809 61.7143 103.552 50.8744 157.935 42.4457C179.184 39.1523 198.453 31.6339 217.369 22.7102C225.674 18.792 233.928 14.5944 242.251 10.3622C243.402 9.77678 244.555 9.19076 245.708 8.60479C255.214 3.7777 264.837 -1.05453 274.801 -5.55852C314.601 -23.5479 359.846 -36.3016 423.892 -21.9992C448.439 -16.5173 471.305 -12.5721 492.039 -8.9949C499.772 -7.66077 507.209 -6.37766 514.324 -5.08532C540.582 -0.316002 562.452 4.57873 579.11 12.617C595.698 20.6215 607.036 31.7026 612.365 48.8742C617.723 66.1387 617.063 89.7285 609.187 122.836C597.897 170.292 562.818 211.802 523.829 245.739C488.897 276.144 450.98 300.342 424.546 317.212L424.537 317.217ZM425 317.924C452.959 300.082 493.835 273.995 530.42 241.033C567.012 208.065 599.253 168.27 610.015 123.031C622.922 68.7752 616.586 39.6853 595.658 22.0936C585.161 13.2705 570.946 7.29458 553.501 2.52086C536.057 -2.25255 515.434 -5.81112 492.142 -9.82965L492.138 -9.83033C471.419 -13.4049 448.602 -17.3417 424.076 -22.8186C341.785 -41.1956 290.371 -15.055 241.861 9.61413L241.827 9.63141C214.575 23.4897 188.195 36.9047 157.8 41.6156C103.37 50.0516 68.2732 60.9137 40.6137 77.584C12.9561 94.2531 -7.30715 116.754 -32.032 148.562C-49.975 171.644 -52.0584 197.478 -42.9692 223.769C-33.8715 250.085 -13.5788 276.85 13.2145 301.687C66.7998 351.361 146.238 393.191 213.498 408.212C253.886 417.231 284.793 412.427 310.582 401.069C336.392 389.701 357.102 371.759 377.098 354.432L377.114 354.418C390.09 343.174 402.772 332.185 416.326 323.472C419.048 321.723 421.947 319.873 425 317.924ZM418.475 316.11L418.46 316.119C415.821 317.8 413.313 319.396 410.957 320.907C399.164 328.469 388.139 338.002 376.92 347.704L376.213 348.315C364.724 358.249 352.994 368.335 339.875 376.818C313.718 393.73 282.016 404.282 235.928 393.99C177.8 381.009 109.089 344.879 62.7471 302.003C39.5748 280.564 22.0953 257.529 14.2681 234.961C6.46357 212.46 8.25116 190.446 23.5734 170.769C44.9723 143.287 62.4376 123.947 86.2467 109.633C110.06 95.316 140.333 85.9597 187.447 78.6935C205.885 75.8499 222.597 69.3472 238.992 61.634C246.192 58.2469 253.347 54.618 260.558 50.9605C261.554 50.4552 262.551 49.9495 263.55 49.4438C271.784 45.2729 280.118 41.0992 288.747 37.2097C323.205 21.6783 362.368 10.678 417.826 23.0626C439.105 27.8147 458.929 31.2373 476.9 34.3398C483.6 35.4965 490.044 36.6089 496.207 37.7288C518.965 41.8645 537.896 46.1033 552.311 53.0503C566.655 59.9636 576.443 69.5179 581.051 84.3128C585.687 99.2002 585.133 119.564 578.325 148.182C568.576 189.165 538.23 225.02 504.467 254.347C474.219 280.62 441.383 301.525 418.482 316.105L418.475 316.11ZM418.937 316.817C443.159 301.397 478.565 278.855 510.25 250.366C541.942 221.871 569.852 187.479 579.154 148.378C590.314 101.465 584.803 76.3391 566.69 61.1417C557.601 53.5157 545.291 48.3447 530.175 44.21C515.059 40.0756 497.19 36.9901 477.003 33.5051C475.62 33.2662 474.226 33.0262 472.823 32.7845C456.008 29.8887 437.741 26.7427 418.119 22.3609C346.823 6.43933 302.189 28.8997 260.165 50.2139L260.13 50.2312C236.524 62.2042 213.661 73.7997 187.313 77.8634C140.153 85.1368 109.753 94.5151 85.8019 108.915C61.8528 123.314 44.3091 142.758 22.8978 170.255C7.37532 190.19 5.58148 212.507 13.4631 235.231C21.3532 257.98 38.9413 281.127 62.1664 302.615C108.615 345.59 177.462 381.794 235.743 394.809C270.734 402.623 297.5 398.482 319.83 388.675C342.181 378.858 360.112 363.357 377.434 348.378L377.45 348.364C388.689 338.646 399.677 329.144 411.423 321.612C413.773 320.105 416.275 318.512 418.908 316.835L418.937 316.817Z" fill="#FFF1C2"/>
<path d="M424.537 317.217C421.484 319.166 418.584 321.016 415.86 322.768C402.258 331.51 389.54 342.53 376.583 353.758L375.775 354.459C362.512 365.95 348.96 377.628 333.802 387.452C303.567 407.048 266.922 419.281 213.682 407.392C146.576 392.406 67.274 350.65 13.7958 301.076C-12.9446 276.287 -33.1289 249.635 -42.1638 223.501C-51.1763 197.431 -49.0994 171.9 -31.3561 149.075C-6.64345 117.283 13.5416 94.8863 41.0593 78.3015C68.5809 61.7143 103.552 50.8744 157.935 42.4457C179.184 39.1523 198.453 31.6339 217.369 22.7102C225.674 18.792 233.928 14.5944 242.251 10.3622C243.402 9.77678 244.555 9.19076 245.708 8.60479C255.214 3.7777 264.837 -1.05453 274.801 -5.55852C314.601 -23.5479 359.846 -36.3016 423.892 -21.9992C448.439 -16.5173 471.305 -12.5721 492.039 -8.9949C499.772 -7.66077 507.209 -6.37766 514.324 -5.08532C540.582 -0.316002 562.452 4.57873 579.11 12.617C595.698 20.6215 607.036 31.7026 612.365 48.8742C617.723 66.1387 617.063 89.7285 609.187 122.836C597.897 170.292 562.818 211.802 523.829 245.739C488.897 276.144 450.98 300.342 424.546 317.212L424.537 317.217ZM425 317.924C452.959 300.082 493.835 273.995 530.42 241.033C567.012 208.065 599.253 168.27 610.015 123.031C622.922 68.7752 616.586 39.6853 595.658 22.0936C585.161 13.2705 570.946 7.29458 553.501 2.52086C536.057 -2.25255 515.434 -5.81112 492.142 -9.82965L492.138 -9.83033C471.419 -13.4049 448.602 -17.3417 424.076 -22.8186C341.785 -41.1956 290.371 -15.055 241.861 9.61413L241.827 9.63141C214.575 23.4897 188.195 36.9047 157.8 41.6156C103.37 50.0516 68.2732 60.9137 40.6137 77.584C12.9561 94.2531 -7.30715 116.754 -32.032 148.562C-49.975 171.644 -52.0584 197.478 -42.9692 223.769C-33.8715 250.085 -13.5788 276.85 13.2145 301.687C66.7998 351.361 146.238 393.191 213.498 408.212C253.886 417.231 284.793 412.427 310.582 401.069C336.392 389.701 357.102 371.759 377.098 354.432L377.114 354.418C390.09 343.174 402.772 332.185 416.326 323.472C419.048 321.723 421.947 319.873 425 317.924ZM418.475 316.11L418.46 316.119C415.821 317.8 413.313 319.396 410.957 320.907C399.164 328.469 388.139 338.002 376.92 347.704L376.213 348.315C364.724 358.249 352.994 368.335 339.875 376.818C313.718 393.73 282.016 404.282 235.928 393.99C177.8 381.009 109.089 344.879 62.7471 302.003C39.5748 280.564 22.0953 257.529 14.2681 234.961C6.46357 212.46 8.25116 190.446 23.5734 170.769C44.9723 143.287 62.4376 123.947 86.2467 109.633C110.06 95.316 140.333 85.9597 187.447 78.6935C205.885 75.8499 222.597 69.3472 238.992 61.634C246.192 58.2469 253.347 54.618 260.558 50.9605C261.554 50.4552 262.551 49.9495 263.55 49.4438C271.784 45.2729 280.118 41.0992 288.747 37.2097C323.205 21.6783 362.368 10.678 417.826 23.0626C439.105 27.8147 458.929 31.2373 476.9 34.3398C483.6 35.4965 490.044 36.6089 496.207 37.7288C518.965 41.8645 537.896 46.1033 552.311 53.0503C566.655 59.9636 576.443 69.5179 581.051 84.3128C585.687 99.2002 585.133 119.564 578.325 148.182C568.576 189.165 538.23 225.02 504.467 254.347C474.219 280.62 441.383 301.525 418.482 316.105L418.475 316.11ZM418.937 316.817C443.159 301.397 478.565 278.855 510.25 250.366C541.942 221.871 569.852 187.479 579.154 148.378C590.314 101.465 584.803 76.3391 566.69 61.1417C557.601 53.5157 545.291 48.3447 530.175 44.21C515.059 40.0756 497.19 36.9901 477.003 33.5051C475.62 33.2662 474.226 33.0262 472.823 32.7845C456.008 29.8887 437.741 26.7427 418.119 22.3609C346.823 6.43933 302.189 28.8997 260.165 50.2139L260.13 50.2312C236.524 62.2042 213.661 73.7997 187.313 77.8634C140.153 85.1368 109.753 94.5151 85.8019 108.915C61.8528 123.314 44.3091 142.758 22.8978 170.255C7.37532 190.19 5.58148 212.507 13.4631 235.231C21.3532 257.98 38.9413 281.127 62.1664 302.615C108.615 345.59 177.462 381.794 235.743 394.809C270.734 402.623 297.5 398.482 319.83 388.675C342.181 378.858 360.112 363.357 377.434 348.378L377.45 348.364C388.689 338.646 399.677 329.144 411.423 321.612C413.773 320.105 416.275 318.512 418.908 316.835L418.937 316.817Z" stroke="white"/>
</g>
<g style="mix-blend-mode:screen" opacity="0.7">
<path d="M386.683 290.71C384.604 292.119 382.63 293.456 380.776 294.722C371.525 301.034 362.841 308.944 353.986 317.012L353.434 317.515C344.372 325.771 335.105 334.168 324.773 341.274C304.157 355.453 279.282 364.503 243.477 356.669C198.384 346.802 145.37 318.157 109.851 283.709C92.0894 266.483 78.7592 247.861 72.9457 229.474C67.1451 211.128 68.8263 193.036 81.0598 176.692C98.0612 153.979 111.92 137.931 130.668 125.91C149.42 113.887 173.129 105.852 209.879 99.3144C224.21 96.7648 237.26 91.2575 250.099 84.7563C255.737 81.9018 261.343 78.8504 266.998 75.7726C267.78 75.3469 268.563 74.9207 269.347 74.4945C275.805 70.9841 282.345 67.4674 289.113 64.1784C316.149 51.0395 346.819 41.5337 389.874 50.9544C406.351 54.5597 421.713 57.0985 435.646 59.4012C440.842 60.2599 445.841 61.086 450.623 61.9221C468.264 65.0067 482.973 68.2307 494.137 73.74C505.266 79.232 512.821 86.969 516.238 99.0829C519.67 111.249 518.962 127.938 513.291 151.404C505.157 185.067 481.043 214.775 454.39 239.162C430.511 261.012 404.688 278.51 386.691 290.705L386.683 290.71ZM386.78 290.966C405.816 278.068 433.637 259.216 458.641 235.559C483.651 211.896 505.791 183.474 513.528 151.452C522.818 113.008 518.843 92.6142 505.005 80.4829C498.057 74.3923 488.574 70.3352 476.881 67.1554C465.189 63.9758 451.34 61.6866 435.686 59.0994L435.682 59.0987C421.759 56.7978 406.422 54.2631 389.95 50.659C334.766 38.5844 299.883 57.5632 266.925 75.5019L266.889 75.5213C248.383 85.594 230.44 95.36 209.879 99.0179C173.119 105.558 149.373 113.599 130.577 125.65C111.781 137.702 97.8927 153.789 80.8854 176.511C68.5698 192.964 66.8871 211.183 72.7135 229.611C78.5469 248.061 91.9104 266.717 109.683 283.954C145.229 318.428 198.274 347.09 243.401 356.964C270.479 362.889 291.319 359.17 308.789 350.889C326.282 342.596 340.418 329.722 354.085 317.27L354.1 317.257C362.964 309.181 371.636 301.28 380.874 294.977C382.728 293.712 384.701 292.375 386.78 290.966ZM382.61 289.993L382.597 290.002C380.801 291.217 379.095 292.37 377.492 293.461C369.472 298.92 361.946 305.762 354.279 312.734L353.796 313.173C345.946 320.309 337.925 327.564 328.982 333.7C311.143 345.941 289.617 353.751 258.613 346.967C219.549 338.419 173.611 313.632 142.828 283.837C127.435 268.938 115.888 252.84 110.849 236.959C105.823 221.118 107.271 205.513 117.839 191.418C132.56 171.783 144.553 157.923 160.777 147.545C177.006 137.165 197.533 130.228 229.372 124.589C241.803 122.388 253.12 117.625 264.247 112.005C269.133 109.538 273.992 106.9 278.891 104.24C279.568 103.872 280.246 103.504 280.924 103.137C286.519 100.103 292.183 97.0652 298.044 94.2245C321.454 82.8784 348.006 74.6761 385.295 82.8352C399.577 85.9603 412.895 88.1629 424.972 90.1601L424.973 90.1604C429.475 90.9049 433.805 91.621 437.946 92.3456C453.236 95.0205 465.972 97.813 475.636 102.576C485.265 107.321 491.793 113.997 494.75 124.441C497.721 134.936 497.119 149.346 492.218 169.632C485.192 198.708 464.329 224.372 441.249 245.448C420.571 264.33 398.209 279.448 382.618 289.988L382.61 289.993ZM382.706 290.25C399.198 279.102 423.294 262.811 444.947 242.365C466.606 221.914 485.768 197.352 492.455 169.68C500.487 136.439 497.025 118.835 485.058 108.364C479.046 103.104 470.838 99.5943 460.707 96.8406C450.577 94.087 438.579 92.1022 425.011 89.8583C424.081 89.7046 423.145 89.5501 422.201 89.3944C410.903 87.5309 398.622 85.5054 385.443 82.6217C337.641 72.1623 307.367 88.4702 278.816 103.97L278.781 103.99C262.751 112.692 247.198 121.136 229.372 124.293C197.523 129.934 176.959 136.877 160.686 147.285C144.414 157.694 132.392 171.593 117.665 191.237C107.015 205.441 105.565 221.174 110.617 237.096C115.675 253.04 127.256 269.172 142.66 284.082C173.47 313.904 219.44 338.708 258.537 347.262C281.992 352.394 300.034 349.188 315.157 342.039C330.301 334.879 342.539 323.757 354.378 312.992L354.393 312.979C362.069 305.999 369.584 299.166 377.59 293.716C379.19 292.627 380.893 291.475 382.687 290.263L382.706 290.25Z" fill="#FFF1C2"/>
<path d="M386.683 290.71C384.604 292.119 382.63 293.456 380.776 294.722C371.525 301.034 362.841 308.944 353.986 317.012L353.434 317.515C344.372 325.771 335.105 334.168 324.773 341.274C304.157 355.453 279.282 364.503 243.477 356.669C198.384 346.802 145.37 318.157 109.851 283.709C92.0894 266.483 78.7592 247.861 72.9457 229.474C67.1451 211.128 68.8263 193.036 81.0598 176.692C98.0612 153.979 111.92 137.931 130.668 125.91C149.42 113.887 173.129 105.852 209.879 99.3144C224.21 96.7648 237.26 91.2575 250.099 84.7563C255.737 81.9018 261.343 78.8504 266.998 75.7726C267.78 75.3469 268.563 74.9207 269.347 74.4945C275.805 70.9841 282.345 67.4674 289.113 64.1784C316.149 51.0395 346.819 41.5337 389.874 50.9544C406.351 54.5597 421.713 57.0985 435.646 59.4012C440.842 60.2599 445.841 61.086 450.623 61.9221C468.264 65.0067 482.973 68.2307 494.137 73.74C505.266 79.232 512.821 86.969 516.238 99.0829C519.67 111.249 518.962 127.938 513.291 151.404C505.157 185.067 481.043 214.775 454.39 239.162C430.511 261.012 404.688 278.51 386.691 290.705L386.683 290.71ZM386.78 290.966C405.816 278.068 433.637 259.216 458.641 235.559C483.651 211.896 505.791 183.474 513.528 151.452C522.818 113.008 518.843 92.6142 505.005 80.4829C498.057 74.3923 488.574 70.3352 476.881 67.1554C465.189 63.9758 451.34 61.6866 435.686 59.0994L435.682 59.0987C421.759 56.7978 406.422 54.2631 389.95 50.659C334.766 38.5844 299.883 57.5632 266.925 75.5019L266.889 75.5213C248.383 85.594 230.44 95.36 209.879 99.0179C173.119 105.558 149.373 113.599 130.577 125.65C111.781 137.702 97.8927 153.789 80.8854 176.511C68.5698 192.964 66.8871 211.183 72.7135 229.611C78.5469 248.061 91.9104 266.717 109.683 283.954C145.229 318.428 198.274 347.09 243.401 356.964C270.479 362.889 291.319 359.17 308.789 350.889C326.282 342.596 340.418 329.722 354.085 317.27L354.1 317.257C362.964 309.181 371.636 301.28 380.874 294.977C382.728 293.712 384.701 292.375 386.78 290.966ZM382.61 289.993L382.597 290.002C380.801 291.217 379.095 292.37 377.492 293.461C369.472 298.92 361.946 305.762 354.279 312.734L353.796 313.173C345.946 320.309 337.925 327.564 328.982 333.7C311.143 345.941 289.617 353.751 258.613 346.967C219.549 338.419 173.611 313.632 142.828 283.837C127.435 268.938 115.888 252.84 110.849 236.959C105.823 221.118 107.271 205.513 117.839 191.418C132.56 171.783 144.553 157.923 160.777 147.545C177.006 137.165 197.533 130.228 229.372 124.589C241.803 122.388 253.12 117.625 264.247 112.005C269.133 109.538 273.992 106.9 278.891 104.24C279.568 103.872 280.246 103.504 280.924 103.137C286.519 100.103 292.183 97.0652 298.044 94.2245C321.454 82.8784 348.006 74.6761 385.295 82.8352C399.577 85.9603 412.895 88.1629 424.972 90.1601L424.973 90.1604C429.475 90.9049 433.805 91.621 437.946 92.3456C453.236 95.0205 465.972 97.813 475.636 102.576C485.265 107.321 491.793 113.997 494.75 124.441C497.721 134.936 497.119 149.346 492.218 169.632C485.192 198.708 464.329 224.372 441.249 245.448C420.571 264.33 398.209 279.448 382.618 289.988L382.61 289.993ZM382.706 290.25C399.198 279.102 423.294 262.811 444.947 242.365C466.606 221.914 485.768 197.352 492.455 169.68C500.487 136.439 497.025 118.835 485.058 108.364C479.046 103.104 470.838 99.5943 460.707 96.8406C450.577 94.087 438.579 92.1022 425.011 89.8583C424.081 89.7046 423.145 89.5501 422.201 89.3944C410.903 87.5309 398.622 85.5054 385.443 82.6217C337.641 72.1623 307.367 88.4702 278.816 103.97L278.781 103.99C262.751 112.692 247.198 121.136 229.372 124.293C197.523 129.934 176.959 136.877 160.686 147.285C144.414 157.694 132.392 171.593 117.665 191.237C107.015 205.441 105.565 221.174 110.617 237.096C115.675 253.04 127.256 269.172 142.66 284.082C173.47 313.904 219.44 338.708 258.537 347.262C281.992 352.394 300.034 349.188 315.157 342.039C330.301 334.879 342.539 323.757 354.378 312.992L354.393 312.979C362.069 305.999 369.584 299.166 377.59 293.716C379.19 292.627 380.893 291.475 382.687 290.263L382.706 290.25Z" stroke="white"/>
</g>
</g>
<path opacity="0.5" d="M0 27.5379C0 12.9793 12.8575 1.77362 27.2796 3.76305L527.28 72.735C539.155 74.3731 548 84.5223 548 96.5098V645C548 658.255 537.255 669 524 669H24C10.7452 669 0 658.255 0 645L0 27.5379Z" fill="#BFE7A2"/>
<mask id="mask3_71_3061" style="mask-type:alpha" maskUnits="userSpaceOnUse" x="0" y="3" width="548" height="666">
<path opacity="0.5" d="M0 27.5379C0 12.9793 12.8575 1.77362 27.2796 3.76305L527.28 72.735C539.155 74.3731 548 84.5223 548 96.5098V645C548 658.255 537.255 669 524 669H24C10.7452 669 0 658.255 0 645L0 27.5379Z" fill="#69D1BA"/>
</mask>
<g mask="url(#mask3_71_3061)">
<g style="mix-blend-mode:screen" opacity="0.7">
<path fill-rule="evenodd" clip-rule="evenodd" d="M424.268 316.797C421.215 318.745 418.315 320.596 415.59 322.348C401.953 331.113 389.207 342.159 376.256 353.381L375.447 354.082C362.181 365.576 348.655 377.232 333.53 387.034C303.393 406.566 266.885 418.761 213.793 406.905C146.776 391.939 67.5529 350.226 14.1371 300.709C-12.5726 275.949 -32.6929 249.363 -41.6906 223.336C-50.6573 197.399 -48.5839 172.051 -30.961 149.38C-6.25579 117.598 13.8825 95.2635 41.3171 78.7287C68.7573 62.1906 103.654 51.3638 158.01 42.9392C179.328 39.6352 198.647 32.0941 217.581 23.1616C225.895 19.2397 234.156 15.0387 242.477 10.807C243.628 10.2216 244.781 9.63565 245.934 9.04975C255.439 4.22286 265.053 -0.60482 275.006 -5.1037C314.739 -23.0627 359.871 -35.7839 423.781 -21.5118C448.342 -16.0268 471.219 -12.0798 491.952 -8.50276C499.685 -7.16855 507.12 -5.88581 514.233 -4.59394C540.495 0.176043 562.302 5.06161 578.891 13.0668C595.384 21.0258 606.607 32.0125 611.887 49.0234C617.206 66.1612 616.568 89.6464 608.7 122.722C597.447 170.025 562.463 211.449 523.501 245.363C488.596 275.744 450.705 299.925 424.268 316.797ZM425.268 318.345C481.182 282.663 588.908 213.916 610.502 123.145C636.338 14.5415 585.367 5.74731 492.229 -10.3218C471.508 -13.8968 448.7 -17.8318 424.187 -23.306C341.713 -41.7238 290.161 -15.5077 241.635 9.1693C214.359 23.0395 188.04 36.4235 157.725 41.1221C48.8126 58.0022 17.0376 84.6227 -32.4272 148.256C-104.68 241.206 78.6887 378.619 213.387 408.699C294.366 426.783 337.45 389.449 377.426 354.808C390.413 343.554 403.072 332.585 416.596 323.892C419.317 322.143 422.216 320.293 425.268 318.345Z" fill="#FFF1C2"/>
<path fill-rule="evenodd" clip-rule="evenodd" d="M418.207 315.689C415.562 317.373 413.049 318.973 410.687 320.487C398.859 328.072 387.806 337.63 376.593 347.327L375.886 347.938C364.394 357.875 352.689 367.938 339.604 376.399C313.545 393.248 281.979 403.762 236.039 393.502C178 380.541 109.367 344.455 63.0881 301.636C39.9464 280.225 22.531 257.256 14.7412 234.797C6.98262 212.427 8.76673 190.597 23.9683 171.074C45.3597 143.602 62.7782 124.325 86.504 110.06C110.236 95.7925 140.435 86.4492 187.522 79.187C206.028 76.3329 222.791 69.8077 239.204 62.0856C246.412 58.6948 253.573 55.0624 260.783 51.4056C261.78 50.9003 262.777 50.3946 263.775 49.8889C272.009 45.7183 280.334 41.5491 288.952 37.6648C323.342 22.1637 362.392 11.1956 417.715 23.55C439.008 28.3051 458.843 31.7296 476.813 34.8319C483.514 35.9887 489.955 37.1007 496.115 38.2202C518.877 42.3565 537.746 46.5862 552.092 53.5001C566.342 60.3682 576.015 69.8283 580.573 84.4624C585.17 99.223 584.639 119.482 577.838 148.069C568.125 188.897 537.875 224.667 504.139 253.97C473.919 280.219 441.11 301.107 418.207 315.689ZM419.205 317.238C467.643 286.401 560.967 226.987 579.641 148.491C601.983 54.5745 557.808 46.9481 477.09 33.0129C459.132 29.9127 439.475 26.6179 418.23 21.8735C346.752 5.9113 301.98 28.4462 259.939 49.7688C236.309 61.7537 213.507 73.3184 187.238 77.3698C92.8647 91.9248 65.3406 114.935 22.5029 169.95C-40.0699 250.309 118.893 369.227 235.632 395.297C305.815 410.97 343.134 378.698 377.761 348.755C389.011 339.027 399.976 329.545 411.692 322.032C414.05 320.52 416.561 318.922 419.205 317.238Z" fill="#FFF1C2"/>
</g>
<g style="mix-blend-mode:screen" opacity="0.7">
<path fill-rule="evenodd" clip-rule="evenodd" d="M386.403 290.297C384.324 291.706 382.35 293.044 380.494 294.31C371.209 300.645 362.499 308.581 353.649 316.644L353.097 317.147C344.032 325.405 334.789 333.78 324.49 340.863C303.968 354.978 279.233 363.981 243.585 356.181C198.587 346.335 145.655 317.736 110.2 283.35C92.471 266.156 79.2025 247.601 73.4231 229.322C67.6636 211.106 69.3374 193.187 81.4605 176.99C98.4555 154.285 112.27 138.299 130.938 126.33C149.61 114.358 173.244 106.339 209.965 99.8061C224.367 97.244 237.468 91.7119 250.325 85.2015C255.97 82.3431 261.583 79.2881 267.236 76.2108C268.018 75.7851 268.801 75.359 269.585 74.933C276.043 71.4227 282.574 67.9108 289.331 64.6273C316.302 51.5202 346.854 42.053 389.765 51.4423C406.257 55.0507 421.63 57.5914 435.563 59.8939C440.759 60.7528 445.756 61.5785 450.535 62.4141C468.18 65.4994 482.822 68.7142 493.914 74.1878C504.941 79.6298 512.384 87.2661 515.757 99.2197C519.154 111.263 518.468 127.851 512.805 151.288C504.705 184.807 480.679 214.431 454.053 238.794C430.2 260.62 404.402 278.101 386.403 290.297ZM387.06 291.379C425.128 265.585 498.473 215.888 514.015 151.568C532.61 74.611 498.357 68.9503 435.769 58.6066C421.845 56.3054 406.518 53.7725 390.059 50.1711C334.683 38.0545 299.656 57.1187 266.686 75.0636C248.155 85.15 230.273 94.8827 209.793 98.5262C136.215 111.616 114.512 130.753 80.4847 176.213C30.7808 242.616 152.85 337.663 243.292 357.452C297.665 369.349 327.105 342.526 354.422 317.639C363.297 309.553 371.947 301.672 381.155 295.389C383.008 294.125 384.982 292.788 387.06 291.379Z" fill="#FFF1C2"/>
<path fill-rule="evenodd" clip-rule="evenodd" d="M382.33 289.58C380.529 290.798 378.819 291.954 377.211 293.049C369.157 298.531 361.605 305.398 353.942 312.365L353.459 312.804C345.607 319.944 337.609 327.175 328.699 333.289C310.955 345.465 289.569 353.228 258.722 346.479C219.753 337.952 173.896 313.212 143.177 283.478C127.816 268.61 116.331 252.58 111.326 236.807C106.342 221.096 107.782 205.664 118.239 191.717C132.954 172.09 144.903 158.292 161.047 147.966C177.194 137.637 197.647 130.715 229.457 125.081C241.959 122.867 253.326 118.08 264.471 112.451C269.365 109.979 274.231 107.338 279.13 104.678C279.806 104.311 280.484 103.943 281.162 103.575C286.757 100.542 292.412 97.5089 298.262 94.6736C321.606 83.3593 348.04 75.1954 385.186 83.3231C399.483 86.4513 412.812 88.6558 424.888 90.6529C429.391 91.3975 433.719 92.1134 437.858 92.8375C453.152 95.5131 465.821 98.2965 475.413 103.024C484.941 107.72 491.357 114.295 494.268 124.578C497.205 134.95 496.626 149.259 491.731 169.516C484.74 198.447 463.966 224.027 440.911 245.08C420.261 263.937 397.923 279.039 382.33 289.58ZM382.986 290.663C415.964 268.37 479.501 225.417 492.941 169.795C509.022 103.246 479.337 98.3362 425.095 89.3656C413.027 87.3699 399.817 85.255 385.552 82.1338C337.559 71.6327 307.141 88.0248 278.578 103.532C262.524 112.248 247.032 120.658 229.286 123.801C165.531 135.093 146.732 151.635 117.264 190.938C74.2209 248.348 180.045 330.599 258.429 347.75C305.552 358.061 331.053 334.875 354.714 313.361C362.401 306.372 369.894 299.559 377.871 294.129C379.476 293.036 381.186 291.88 382.986 290.663Z" fill="#FFF1C2"/>
</g>
</g>
<mask id="mask4_71_3061" style="mask-type:alpha" maskUnits="userSpaceOnUse" x="0" y="3" width="548" height="666">
<path d="M0.5 27.5379C0.5 13.2826 13.0897 2.31037 27.2113 4.25836L527.211 73.2303C538.839 74.8342 547.5 84.772 547.5 96.5098V645C547.5 657.979 536.979 668.5 524 668.5H24C11.0213 668.5 0.5 657.979 0.5 645V334.5V27.5379Z" fill="#5FC7B0" stroke="white"/>
</mask>
<g mask="url(#mask4_71_3061)">
</g>
<mask id="mask5_71_3061" style="mask-type:alpha" maskUnits="userSpaceOnUse" x="0" y="3" width="548" height="666">
<path d="M0.5 27.5379C0.5 13.2826 13.0897 2.31037 27.2113 4.25836L527.211 73.2303C538.839 74.8342 547.5 84.772 547.5 96.5098V645C547.5 657.979 536.979 668.5 524 668.5H24C11.0213 668.5 0.5 657.979 0.5 645V334.5V27.5379Z" fill="#5FC7B0" stroke="white"/>
</mask>
<g mask="url(#mask5_71_3061)">
<g style="mix-blend-mode:screen" opacity="0.7">
<path d="M424.537 317.217C421.484 319.166 418.584 321.016 415.86 322.768C402.258 331.51 389.54 342.53 376.583 353.758L375.775 354.459C362.512 365.95 348.96 377.628 333.802 387.452C303.567 407.048 266.922 419.281 213.682 407.392C146.576 392.406 67.274 350.65 13.7958 301.076C-12.9446 276.287 -33.1289 249.635 -42.1638 223.501C-51.1763 197.431 -49.0994 171.9 -31.3561 149.075C-6.64345 117.283 13.5416 94.8863 41.0593 78.3015C68.5809 61.7143 103.552 50.8744 157.935 42.4457C179.184 39.1523 198.453 31.6339 217.369 22.7102C225.674 18.792 233.928 14.5944 242.251 10.3622C243.402 9.77678 244.555 9.19076 245.708 8.60479C255.214 3.7777 264.837 -1.05453 274.801 -5.55852C314.601 -23.5479 359.846 -36.3016 423.892 -21.9992C448.439 -16.5173 471.305 -12.5721 492.039 -8.9949C499.772 -7.66077 507.209 -6.37766 514.324 -5.08532C540.582 -0.316002 562.452 4.57873 579.11 12.617C595.698 20.6215 607.036 31.7026 612.365 48.8742C617.723 66.1387 617.063 89.7285 609.187 122.836C597.897 170.292 562.818 211.802 523.829 245.739C488.897 276.144 450.98 300.342 424.546 317.212L424.537 317.217ZM425 317.924C452.959 300.082 493.835 273.995 530.42 241.033C567.012 208.065 599.253 168.27 610.015 123.031C622.922 68.7752 616.586 39.6853 595.658 22.0936C585.161 13.2705 570.946 7.29458 553.501 2.52086C536.057 -2.25255 515.434 -5.81112 492.142 -9.82965L492.138 -9.83033C471.419 -13.4049 448.602 -17.3417 424.076 -22.8186C341.785 -41.1956 290.371 -15.055 241.861 9.61413L241.827 9.63141C214.575 23.4897 188.195 36.9047 157.8 41.6156C103.37 50.0516 68.2732 60.9137 40.6137 77.584C12.9561 94.2531 -7.30715 116.754 -32.032 148.562C-49.975 171.644 -52.0584 197.478 -42.9692 223.769C-33.8715 250.085 -13.5788 276.85 13.2145 301.687C66.7998 351.361 146.238 393.191 213.498 408.212C253.886 417.231 284.793 412.427 310.582 401.069C336.392 389.701 357.102 371.759 377.098 354.432L377.114 354.418C390.09 343.174 402.772 332.185 416.326 323.472C419.048 321.723 421.947 319.873 425 317.924ZM418.475 316.11L418.46 316.119C415.821 317.8 413.313 319.396 410.957 320.907C399.164 328.469 388.139 338.002 376.92 347.704L376.213 348.315C364.724 358.249 352.994 368.335 339.875 376.818C313.718 393.73 282.016 404.282 235.928 393.99C177.8 381.009 109.089 344.879 62.7471 302.003C39.5748 280.564 22.0953 257.529 14.2681 234.961C6.46357 212.46 8.25116 190.446 23.5734 170.769C44.9723 143.287 62.4376 123.947 86.2467 109.633C110.06 95.316 140.333 85.9597 187.447 78.6935C205.885 75.8499 222.597 69.3472 238.992 61.634C246.192 58.2469 253.347 54.618 260.558 50.9605C261.554 50.4552 262.551 49.9495 263.55 49.4438C271.784 45.2729 280.118 41.0992 288.747 37.2097C323.205 21.6783 362.368 10.678 417.826 23.0626C439.105 27.8147 458.929 31.2373 476.9 34.3398C483.6 35.4965 490.044 36.6089 496.207 37.7288C518.965 41.8645 537.896 46.1033 552.311 53.0503C566.655 59.9636 576.443 69.5179 581.051 84.3128C585.687 99.2002 585.133 119.564 578.325 148.182C568.576 189.165 538.23 225.02 504.467 254.347C474.219 280.62 441.383 301.525 418.482 316.105L418.475 316.11ZM418.937 316.817C443.159 301.397 478.565 278.855 510.25 250.366C541.942 221.871 569.852 187.479 579.154 148.378C590.314 101.465 584.803 76.3391 566.69 61.1417C557.601 53.5157 545.291 48.3447 530.175 44.21C515.059 40.0756 497.19 36.9901 477.003 33.5051C475.62 33.2662 474.226 33.0262 472.823 32.7845C456.008 29.8887 437.741 26.7427 418.119 22.3609C346.823 6.43933 302.189 28.8997 260.165 50.2139L260.13 50.2312C236.524 62.2042 213.661 73.7997 187.313 77.8634C140.153 85.1368 109.753 94.5151 85.8019 108.915C61.8528 123.314 44.3091 142.758 22.8978 170.255C7.37532 190.19 5.58148 212.507 13.4631 235.231C21.3532 257.98 38.9413 281.127 62.1664 302.615C108.615 345.59 177.462 381.794 235.743 394.809C270.734 402.623 297.5 398.482 319.83 388.675C342.181 378.858 360.112 363.357 377.434 348.378L377.45 348.364C388.689 338.646 399.677 329.144 411.423 321.612C413.773 320.105 416.275 318.512 418.908 316.835L418.937 316.817Z" fill="#FFF1C2"/>
<path d="M424.537 317.217C421.484 319.166 418.584 321.016 415.86 322.768C402.258 331.51 389.54 342.53 376.583 353.758L375.775 354.459C362.512 365.95 348.96 377.628 333.802 387.452C303.567 407.048 266.922 419.281 213.682 407.392C146.576 392.406 67.274 350.65 13.7958 301.076C-12.9446 276.287 -33.1289 249.635 -42.1638 223.501C-51.1763 197.431 -49.0994 171.9 -31.3561 149.075C-6.64345 117.283 13.5416 94.8863 41.0593 78.3015C68.5809 61.7143 103.552 50.8744 157.935 42.4457C179.184 39.1523 198.453 31.6339 217.369 22.7102C225.674 18.792 233.928 14.5944 242.251 10.3622C243.402 9.77678 244.555 9.19076 245.708 8.60479C255.214 3.7777 264.837 -1.05453 274.801 -5.55852C314.601 -23.5479 359.846 -36.3016 423.892 -21.9992C448.439 -16.5173 471.305 -12.5721 492.039 -8.9949C499.772 -7.66077 507.209 -6.37766 514.324 -5.08532C540.582 -0.316002 562.452 4.57873 579.11 12.617C595.698 20.6215 607.036 31.7026 612.365 48.8742C617.723 66.1387 617.063 89.7285 609.187 122.836C597.897 170.292 562.818 211.802 523.829 245.739C488.897 276.144 450.98 300.342 424.546 317.212L424.537 317.217ZM425 317.924C452.959 300.082 493.835 273.995 530.42 241.033C567.012 208.065 599.253 168.27 610.015 123.031C622.922 68.7752 616.586 39.6853 595.658 22.0936C585.161 13.2705 570.946 7.29458 553.501 2.52086C536.057 -2.25255 515.434 -5.81112 492.142 -9.82965L492.138 -9.83033C471.419 -13.4049 448.602 -17.3417 424.076 -22.8186C341.785 -41.1956 290.371 -15.055 241.861 9.61413L241.827 9.63141C214.575 23.4897 188.195 36.9047 157.8 41.6156C103.37 50.0516 68.2732 60.9137 40.6137 77.584C12.9561 94.2531 -7.30715 116.754 -32.032 148.562C-49.975 171.644 -52.0584 197.478 -42.9692 223.769C-33.8715 250.085 -13.5788 276.85 13.2145 301.687C66.7998 351.361 146.238 393.191 213.498 408.212C253.886 417.231 284.793 412.427 310.582 401.069C336.392 389.701 357.102 371.759 377.098 354.432L377.114 354.418C390.09 343.174 402.772 332.185 416.326 323.472C419.048 321.723 421.947 319.873 425 317.924ZM418.475 316.11L418.46 316.119C415.821 317.8 413.313 319.396 410.957 320.907C399.164 328.469 388.139 338.002 376.92 347.704L376.213 348.315C364.724 358.249 352.994 368.335 339.875 376.818C313.718 393.73 282.016 404.282 235.928 393.99C177.8 381.009 109.089 344.879 62.7471 302.003C39.5748 280.564 22.0953 257.529 14.2681 234.961C6.46357 212.46 8.25116 190.446 23.5734 170.769C44.9723 143.287 62.4376 123.947 86.2467 109.633C110.06 95.316 140.333 85.9597 187.447 78.6935C205.885 75.8499 222.597 69.3472 238.992 61.634C246.192 58.2469 253.347 54.618 260.558 50.9605C261.554 50.4552 262.551 49.9495 263.55 49.4438C271.784 45.2729 280.118 41.0992 288.747 37.2097C323.205 21.6783 362.368 10.678 417.826 23.0626C439.105 27.8147 458.929 31.2373 476.9 34.3398C483.6 35.4965 490.044 36.6089 496.207 37.7288C518.965 41.8645 537.896 46.1033 552.311 53.0503C566.655 59.9636 576.443 69.5179 581.051 84.3128C585.687 99.2002 585.133 119.564 578.325 148.182C568.576 189.165 538.23 225.02 504.467 254.347C474.219 280.62 441.383 301.525 418.482 316.105L418.475 316.11ZM418.937 316.817C443.159 301.397 478.565 278.855 510.25 250.366C541.942 221.871 569.852 187.479 579.154 148.378C590.314 101.465 584.803 76.3391 566.69 61.1417C557.601 53.5157 545.291 48.3447 530.175 44.21C515.059 40.0756 497.19 36.9901 477.003 33.5051C475.62 33.2662 474.226 33.0262 472.823 32.7845C456.008 29.8887 437.741 26.7427 418.119 22.3609C346.823 6.43933 302.189 28.8997 260.165 50.2139L260.13 50.2312C236.524 62.2042 213.661 73.7997 187.313 77.8634C140.153 85.1368 109.753 94.5151 85.8019 108.915C61.8528 123.314 44.3091 142.758 22.8978 170.255C7.37532 190.19 5.58148 212.507 13.4631 235.231C21.3532 257.98 38.9413 281.127 62.1664 302.615C108.615 345.59 177.462 381.794 235.743 394.809C270.734 402.623 297.5 398.482 319.83 388.675C342.181 378.858 360.112 363.357 377.434 348.378L377.45 348.364C388.689 338.646 399.677 329.144 411.423 321.612C413.773 320.105 416.275 318.512 418.908 316.835L418.937 316.817Z" stroke="white"/>
</g>
<g style="mix-blend-mode:screen" opacity="0.7">
<path d="M386.683 290.71C384.604 292.119 382.63 293.456 380.776 294.722C371.525 301.034 362.841 308.944 353.986 317.012L353.434 317.515C344.372 325.771 335.105 334.168 324.773 341.274C304.157 355.453 279.282 364.503 243.477 356.669C198.384 346.802 145.37 318.157 109.851 283.709C92.0894 266.483 78.7592 247.861 72.9457 229.474C67.1451 211.128 68.8263 193.036 81.0598 176.692C98.0612 153.979 111.92 137.931 130.668 125.91C149.42 113.887 173.129 105.852 209.879 99.3144C224.21 96.7648 237.26 91.2575 250.099 84.7563C255.737 81.9018 261.343 78.8504 266.998 75.7726C267.78 75.3469 268.563 74.9207 269.347 74.4945C275.805 70.9841 282.345 67.4674 289.113 64.1784C316.149 51.0395 346.819 41.5337 389.874 50.9544C406.351 54.5597 421.713 57.0985 435.646 59.4012C440.842 60.2599 445.841 61.086 450.623 61.9221C468.264 65.0067 482.973 68.2307 494.137 73.74C505.266 79.232 512.821 86.969 516.238 99.0829C519.67 111.249 518.962 127.938 513.291 151.404C505.157 185.067 481.043 214.775 454.39 239.162C430.511 261.012 404.688 278.51 386.691 290.705L386.683 290.71ZM386.78 290.966C405.816 278.068 433.637 259.216 458.641 235.559C483.651 211.896 505.791 183.474 513.528 151.452C522.818 113.008 518.843 92.6142 505.005 80.4829C498.057 74.3923 488.574 70.3352 476.881 67.1554C465.189 63.9758 451.34 61.6866 435.686 59.0994L435.682 59.0987C421.759 56.7978 406.422 54.2631 389.95 50.659C334.766 38.5844 299.883 57.5632 266.925 75.5019L266.889 75.5213C248.383 85.594 230.44 95.36 209.879 99.0179C173.119 105.558 149.373 113.599 130.577 125.65C111.781 137.702 97.8927 153.789 80.8854 176.511C68.5698 192.964 66.8871 211.183 72.7135 229.611C78.5469 248.061 91.9104 266.717 109.683 283.954C145.229 318.428 198.274 347.09 243.401 356.964C270.479 362.889 291.319 359.17 308.789 350.889C326.282 342.596 340.418 329.722 354.085 317.27L354.1 317.257C362.964 309.181 371.636 301.28 380.874 294.977C382.728 293.712 384.701 292.375 386.78 290.966ZM382.61 289.993L382.597 290.002C380.801 291.217 379.095 292.37 377.492 293.461C369.472 298.92 361.946 305.762 354.279 312.734L353.796 313.173C345.946 320.309 337.925 327.564 328.982 333.7C311.143 345.941 289.617 353.751 258.613 346.967C219.549 338.419 173.611 313.632 142.828 283.837C127.435 268.938 115.888 252.84 110.849 236.959C105.823 221.118 107.271 205.513 117.839 191.418C132.56 171.783 144.553 157.923 160.777 147.545C177.006 137.165 197.533 130.228 229.372 124.589C241.803 122.388 253.12 117.625 264.247 112.005C269.133 109.538 273.992 106.9 278.891 104.24C279.568 103.872 280.246 103.504 280.924 103.137C286.519 100.103 292.183 97.0652 298.044 94.2245C321.454 82.8784 348.006 74.6761 385.295 82.8352C399.577 85.9603 412.895 88.1629 424.972 90.1601L424.973 90.1604C429.475 90.9049 433.805 91.621 437.946 92.3456C453.236 95.0205 465.972 97.813 475.636 102.576C485.265 107.321 491.793 113.997 494.75 124.441C497.721 134.936 497.119 149.346 492.218 169.632C485.192 198.708 464.329 224.372 441.249 245.448C420.571 264.33 398.209 279.448 382.618 289.988L382.61 289.993ZM382.706 290.25C399.198 279.102 423.294 262.811 444.947 242.365C466.606 221.914 485.768 197.352 492.455 169.68C500.487 136.439 497.025 118.835 485.058 108.364C479.046 103.104 470.838 99.5943 460.707 96.8406C450.577 94.087 438.579 92.1022 425.011 89.8583C424.081 89.7046 423.145 89.5501 422.201 89.3944C410.903 87.5309 398.622 85.5054 385.443 82.6217C337.641 72.1623 307.367 88.4702 278.816 103.97L278.781 103.99C262.751 112.692 247.198 121.136 229.372 124.293C197.523 129.934 176.959 136.877 160.686 147.285C144.414 157.694 132.392 171.593 117.665 191.237C107.015 205.441 105.565 221.174 110.617 237.096C115.675 253.04 127.256 269.172 142.66 284.082C173.47 313.904 219.44 338.708 258.537 347.262C281.992 352.394 300.034 349.188 315.157 342.039C330.301 334.879 342.539 323.757 354.378 312.992L354.393 312.979C362.069 305.999 369.584 299.166 377.59 293.716C379.19 292.627 380.893 291.475 382.687 290.263L382.706 290.25Z" fill="#FFF1C2"/>
<path d="M386.683 290.71C384.604 292.119 382.63 293.456 380.776 294.722C371.525 301.034 362.841 308.944 353.986 317.012L353.434 317.515C344.372 325.771 335.105 334.168 324.773 341.274C304.157 355.453 279.282 364.503 243.477 356.669C198.384 346.802 145.37 318.157 109.851 283.709C92.0894 266.483 78.7592 247.861 72.9457 229.474C67.1451 211.128 68.8263 193.036 81.0598 176.692C98.0612 153.979 111.92 137.931 130.668 125.91C149.42 113.887 173.129 105.852 209.879 99.3144C224.21 96.7648 237.26 91.2575 250.099 84.7563C255.737 81.9018 261.343 78.8504 266.998 75.7726C267.78 75.3469 268.563 74.9207 269.347 74.4945C275.805 70.9841 282.345 67.4674 289.113 64.1784C316.149 51.0395 346.819 41.5337 389.874 50.9544C406.351 54.5597 421.713 57.0985 435.646 59.4012C440.842 60.2599 445.841 61.086 450.623 61.9221C468.264 65.0067 482.973 68.2307 494.137 73.74C505.266 79.232 512.821 86.969 516.238 99.0829C519.67 111.249 518.962 127.938 513.291 151.404C505.157 185.067 481.043 214.775 454.39 239.162C430.511 261.012 404.688 278.51 386.691 290.705L386.683 290.71ZM386.78 290.966C405.816 278.068 433.637 259.216 458.641 235.559C483.651 211.896 505.791 183.474 513.528 151.452C522.818 113.008 518.843 92.6142 505.005 80.4829C498.057 74.3923 488.574 70.3352 476.881 67.1554C465.189 63.9758 451.34 61.6866 435.686 59.0994L435.682 59.0987C421.759 56.7978 406.422 54.2631 389.95 50.659C334.766 38.5844 299.883 57.5632 266.925 75.5019L266.889 75.5213C248.383 85.594 230.44 95.36 209.879 99.0179C173.119 105.558 149.373 113.599 130.577 125.65C111.781 137.702 97.8927 153.789 80.8854 176.511C68.5698 192.964 66.8871 211.183 72.7135 229.611C78.5469 248.061 91.9104 266.717 109.683 283.954C145.229 318.428 198.274 347.09 243.401 356.964C270.479 362.889 291.319 359.17 308.789 350.889C326.282 342.596 340.418 329.722 354.085 317.27L354.1 317.257C362.964 309.181 371.636 301.28 380.874 294.977C382.728 293.712 384.701 292.375 386.78 290.966ZM382.61 289.993L382.597 290.002C380.801 291.217 379.095 292.37 377.492 293.461C369.472 298.92 361.946 305.762 354.279 312.734L353.796 313.173C345.946 320.309 337.925 327.564 328.982 333.7C311.143 345.941 289.617 353.751 258.613 346.967C219.549 338.419 173.611 313.632 142.828 283.837C127.435 268.938 115.888 252.84 110.849 236.959C105.823 221.118 107.271 205.513 117.839 191.418C132.56 171.783 144.553 157.923 160.777 147.545C177.006 137.165 197.533 130.228 229.372 124.589C241.803 122.388 253.12 117.625 264.247 112.005C269.133 109.538 273.992 106.9 278.891 104.24C279.568 103.872 280.246 103.504 280.924 103.137C286.519 100.103 292.183 97.0652 298.044 94.2245C321.454 82.8784 348.006 74.6761 385.295 82.8352C399.577 85.9603 412.895 88.1629 424.972 90.1601L424.973 90.1604C429.475 90.9049 433.805 91.621 437.946 92.3456C453.236 95.0205 465.972 97.813 475.636 102.576C485.265 107.321 491.793 113.997 494.75 124.441C497.721 134.936 497.119 149.346 492.218 169.632C485.192 198.708 464.329 224.372 441.249 245.448C420.571 264.33 398.209 279.448 382.618 289.988L382.61 289.993ZM382.706 290.25C399.198 279.102 423.294 262.811 444.947 242.365C466.606 221.914 485.768 197.352 492.455 169.68C500.487 136.439 497.025 118.835 485.058 108.364C479.046 103.104 470.838 99.5943 460.707 96.8406C450.577 94.087 438.579 92.1022 425.011 89.8583C424.081 89.7046 423.145 89.5501 422.201 89.3944C410.903 87.5309 398.622 85.5054 385.443 82.6217C337.641 72.1623 307.367 88.4702 278.816 103.97L278.781 103.99C262.751 112.692 247.198 121.136 229.372 124.293C197.523 129.934 176.959 136.877 160.686 147.285C144.414 157.694 132.392 171.593 117.665 191.237C107.015 205.441 105.565 221.174 110.617 237.096C115.675 253.04 127.256 269.172 142.66 284.082C173.47 313.904 219.44 338.708 258.537 347.262C281.992 352.394 300.034 349.188 315.157 342.039C330.301 334.879 342.539 323.757 354.378 312.992L354.393 312.979C362.069 305.999 369.584 299.166 377.59 293.716C379.19 292.627 380.893 291.475 382.687 290.263L382.706 290.25Z" stroke="white"/>
</g>
</g>
<path opacity="0.5" d="M0 27.5379C0 12.9793 12.8575 1.77362 27.2796 3.76305L527.28 72.735C539.155 74.3731 548 84.5223 548 96.5098V645C548 658.255 537.255 669 524 669H24C10.7452 669 0 658.255 0 645L0 27.5379Z" fill="#BFE7A2"/>
<mask id="mask6_71_3061" style="mask-type:alpha" maskUnits="userSpaceOnUse" x="0" y="1" width="549" height="343">
<path opacity="0.5" d="M0 25.7624C0 11.839 11.8093 0.837541 25.6979 1.82254L525.766 37.2883C538.33 38.1794 548.068 48.6322 548.068 61.2282V320C548.068 333.255 537.323 344 524.068 344H24C10.7451 344 0 333.255 0 320L0 25.7624Z" fill="#69D1BA"/>
</mask>
<g mask="url(#mask6_71_3061)">
<g style="mix-blend-mode:screen" opacity="0.7">
<path fill-rule="evenodd" clip-rule="evenodd" d="M424.268 316.797C421.215 318.745 418.315 320.596 415.59 322.348C401.953 331.113 389.207 342.159 376.256 353.381L375.447 354.082C362.181 365.576 348.655 377.232 333.53 387.034C303.393 406.566 266.885 418.761 213.793 406.905C146.776 391.939 67.5529 350.226 14.1371 300.709C-12.5726 275.949 -32.6929 249.363 -41.6906 223.336C-50.6573 197.399 -48.5839 172.051 -30.961 149.38C-6.25579 117.598 13.8825 95.2635 41.3171 78.7287C68.7573 62.1906 103.654 51.3638 158.01 42.9392C179.328 39.6352 198.647 32.0941 217.581 23.1616C225.895 19.2397 234.156 15.0387 242.477 10.807C243.628 10.2216 244.781 9.63565 245.934 9.04975C255.439 4.22286 265.053 -0.60482 275.006 -5.1037C314.739 -23.0627 359.871 -35.7839 423.781 -21.5118C448.342 -16.0268 471.219 -12.0798 491.952 -8.50276C499.685 -7.16855 507.12 -5.88581 514.233 -4.59394C540.495 0.176043 562.302 5.06161 578.891 13.0668C595.384 21.0258 606.607 32.0125 611.887 49.0234C617.206 66.1612 616.568 89.6464 608.7 122.722C597.447 170.025 562.463 211.449 523.501 245.363C488.596 275.744 450.705 299.925 424.268 316.797ZM425.268 318.345C481.182 282.663 588.908 213.916 610.502 123.145C636.338 14.5415 585.367 5.74731 492.229 -10.3218C471.508 -13.8968 448.7 -17.8318 424.187 -23.306C341.713 -41.7238 290.161 -15.5077 241.635 9.1693C214.359 23.0395 188.04 36.4235 157.725 41.1221C48.8126 58.0022 17.0376 84.6227 -32.4272 148.256C-104.68 241.206 78.6887 378.619 213.387 408.699C294.366 426.783 337.45 389.449 377.426 354.808C390.413 343.554 403.072 332.585 416.596 323.892C419.317 322.143 422.216 320.293 425.268 318.345Z" fill="#FFF1C2"/>
<path fill-rule="evenodd" clip-rule="evenodd" d="M418.207 315.689C415.562 317.373 413.049 318.973 410.687 320.487C398.859 328.072 387.806 337.63 376.593 347.327L375.886 347.938C364.394 357.875 352.689 367.938 339.604 376.399C313.545 393.248 281.979 403.762 236.039 393.502C178 380.541 109.367 344.455 63.0881 301.636C39.9464 280.225 22.531 257.256 14.7412 234.797C6.98262 212.427 8.76673 190.597 23.9683 171.074C45.3597 143.602 62.7782 124.325 86.504 110.06C110.236 95.7925 140.435 86.4492 187.522 79.187C206.028 76.3329 222.791 69.8077 239.204 62.0856C246.412 58.6948 253.573 55.0624 260.783 51.4056C261.78 50.9003 262.777 50.3946 263.775 49.8889C272.009 45.7183 280.334 41.5491 288.952 37.6648C323.342 22.1637 362.392 11.1956 417.715 23.55C439.008 28.3051 458.843 31.7296 476.813 34.8319C483.514 35.9887 489.955 37.1007 496.115 38.2202C518.877 42.3565 537.746 46.5862 552.092 53.5001C566.342 60.3682 576.015 69.8283 580.573 84.4624C585.17 99.223 584.639 119.482 577.838 148.069C568.125 188.897 537.875 224.667 504.139 253.97C473.919 280.219 441.11 301.107 418.207 315.689ZM419.205 317.238C467.643 286.401 560.967 226.987 579.641 148.491C601.983 54.5745 557.808 46.9481 477.09 33.0129C459.132 29.9127 439.475 26.6179 418.23 21.8735C346.752 5.9113 301.98 28.4462 259.939 49.7688C236.309 61.7537 213.507 73.3184 187.238 77.3698C92.8647 91.9248 65.3406 114.935 22.5029 169.95C-40.0699 250.309 118.893 369.227 235.632 395.297C305.815 410.97 343.134 378.698 377.761 348.755C389.011 339.027 399.976 329.545 411.692 322.032C414.05 320.52 416.561 318.922 419.205 317.238Z" fill="#FFF1C2"/>
</g>
<g style="mix-blend-mode:screen" opacity="0.7">
<path fill-rule="evenodd" clip-rule="evenodd" d="M386.403 290.297C384.324 291.706 382.35 293.044 380.494 294.31C371.209 300.645 362.499 308.581 353.649 316.644L353.097 317.147C344.032 325.405 334.789 333.78 324.49 340.863C303.968 354.978 279.233 363.981 243.585 356.181C198.587 346.335 145.655 317.736 110.2 283.35C92.471 266.156 79.2025 247.601 73.4231 229.322C67.6636 211.106 69.3374 193.187 81.4605 176.99C98.4555 154.285 112.27 138.299 130.938 126.33C149.61 114.358 173.244 106.339 209.965 99.8061C224.367 97.244 237.468 91.7119 250.325 85.2015C255.97 82.3431 261.583 79.2881 267.236 76.2108C268.018 75.7851 268.801 75.359 269.585 74.933C276.043 71.4227 282.574 67.9108 289.331 64.6273C316.302 51.5202 346.854 42.053 389.765 51.4423C406.257 55.0507 421.63 57.5914 435.563 59.8939C440.759 60.7528 445.756 61.5785 450.535 62.4141C468.18 65.4994 482.822 68.7142 493.914 74.1878C504.941 79.6298 512.384 87.2661 515.757 99.2197C519.154 111.263 518.468 127.851 512.805 151.288C504.705 184.807 480.679 214.431 454.053 238.794C430.2 260.62 404.402 278.101 386.403 290.297ZM387.06 291.379C425.128 265.585 498.473 215.888 514.015 151.568C532.61 74.611 498.357 68.9503 435.769 58.6066C421.845 56.3054 406.518 53.7725 390.059 50.1711C334.683 38.0545 299.656 57.1187 266.686 75.0636C248.155 85.15 230.273 94.8827 209.793 98.5262C136.215 111.616 114.512 130.753 80.4847 176.213C30.7808 242.616 152.85 337.663 243.292 357.452C297.665 369.349 327.105 342.526 354.422 317.639C363.297 309.553 371.947 301.672 381.155 295.389C383.008 294.125 384.982 292.788 387.06 291.379Z" fill="#FFF1C2"/>
<path fill-rule="evenodd" clip-rule="evenodd" d="M382.33 289.58C380.529 290.798 378.819 291.954 377.211 293.049C369.157 298.531 361.605 305.398 353.942 312.365L353.459 312.804C345.607 319.944 337.609 327.175 328.699 333.289C310.955 345.465 289.569 353.228 258.722 346.479C219.753 337.952 173.896 313.212 143.177 283.478C127.816 268.61 116.331 252.58 111.326 236.807C106.342 221.096 107.782 205.664 118.239 191.717C132.954 172.09 144.903 158.292 161.047 147.966C177.194 137.637 197.647 130.715 229.457 125.081C241.959 122.867 253.326 118.08 264.471 112.451C269.365 109.979 274.231 107.338 279.13 104.678C279.806 104.311 280.484 103.943 281.162 103.575C286.757 100.542 292.412 97.5089 298.262 94.6736C321.606 83.3593 348.04 75.1954 385.186 83.3231C399.483 86.4513 412.812 88.6558 424.888 90.6529C429.391 91.3975 433.719 92.1134 437.858 92.8375C453.152 95.5131 465.821 98.2965 475.413 103.024C484.941 107.72 491.357 114.295 494.268 124.578C497.205 134.95 496.626 149.259 491.731 169.516C484.74 198.447 463.966 224.027 440.911 245.08C420.261 263.937 397.923 279.039 382.33 289.58ZM382.986 290.663C415.964 268.37 479.501 225.417 492.941 169.795C509.022 103.246 479.337 98.3362 425.095 89.3656C413.027 87.3699 399.817 85.255 385.552 82.1338C337.559 71.6327 307.141 88.0248 278.578 103.532C262.524 112.248 247.032 120.658 229.286 123.801C165.531 135.093 146.732 151.635 117.264 190.938C74.2209 248.348 180.045 330.599 258.429 347.75C305.552 358.061 331.053 334.875 354.714 313.361C362.401 306.372 369.894 299.559 377.871 294.129C379.476 293.036 381.186 291.88 382.986 290.663Z" fill="#FFF1C2"/>
</g>
</g>
<mask id="mask7_71_3061" style="mask-type:alpha" maskUnits="userSpaceOnUse" x="0" y="3" width="548" height="666">
<path d="M0.5 27.5379C0.5 13.2826 13.0897 2.31037 27.2113 4.25836L527.211 73.2303C538.839 74.8342 547.5 84.772 547.5 96.5098V645C547.5 657.979 536.979 668.5 524 668.5H24C11.0213 668.5 0.5 657.979 0.5 645V334.5V27.5379Z" fill="#5FC7B0" stroke="white"/>
</mask>
<g mask="url(#mask7_71_3061)">
</g>
<mask id="mask8_71_3061" style="mask-type:alpha" maskUnits="userSpaceOnUse" x="0" y="3" width="548" height="666">
<path d="M0.5 27.5379C0.5 13.2826 13.0897 2.31037 27.2113 4.25836L527.211 73.2303C538.839 74.8342 547.5 84.772 547.5 96.5098V645C547.5 657.979 536.979 668.5 524 668.5H24C11.0213 668.5 0.5 657.979 0.5 645V334.5V27.5379Z" fill="#5FC7B0" stroke="white"/>
</mask>
<g mask="url(#mask8_71_3061)">
<g style="mix-blend-mode:screen" opacity="0.7">
<path d="M422.577 771.867C419.524 773.816 416.624 775.666 413.899 777.417C400.298 786.16 387.579 797.18 374.623 808.408L373.814 809.108C360.552 820.6 347 832.278 331.842 842.102C301.607 861.697 264.962 873.931 211.722 862.042C144.616 847.056 65.3138 805.3 11.8356 755.725C-14.9048 730.937 -35.0891 704.285 -44.1241 678.15C-53.1365 652.081 -51.0596 626.55 -33.3163 603.724C-8.60365 571.933 11.5814 549.536 39.0991 532.951C66.6207 516.364 101.592 505.524 155.975 497.095C177.224 493.802 196.493 486.284 215.408 477.36C223.714 473.442 231.968 469.244 240.291 465.012C241.442 464.426 242.594 463.84 243.748 463.254C253.253 458.427 262.876 453.595 272.841 449.091C312.641 431.102 357.886 418.348 421.931 432.65C446.479 438.132 469.345 442.078 490.079 445.655C497.812 446.989 505.249 448.272 512.364 449.564C538.622 454.334 560.492 459.228 577.15 467.267C593.737 475.271 605.076 486.352 610.405 503.524C615.763 520.788 615.103 544.378 607.226 577.486C595.937 624.941 560.858 666.452 521.869 700.388C486.937 730.793 449.02 754.991 422.586 771.861L422.577 771.867ZM423.04 772.574C450.999 754.731 491.875 728.645 528.46 695.683C565.052 662.715 597.293 622.92 608.055 577.681C620.962 523.425 614.626 494.335 593.697 476.743C583.201 467.92 568.986 461.944 551.541 457.171C534.096 452.397 513.474 448.839 490.182 444.82L490.178 444.819C469.459 441.245 446.641 437.308 422.116 431.831C339.825 413.454 288.411 439.595 239.9 464.264L239.866 464.281C212.615 478.139 186.235 491.554 155.84 496.265C101.41 504.701 66.313 515.563 38.6535 532.234C10.9959 548.903 -9.26736 571.404 -33.9922 603.211C-51.9352 626.294 -54.0186 652.128 -44.9294 678.419C-35.8317 704.735 -15.539 731.499 11.2543 756.337C64.8396 806.011 144.278 847.841 211.538 862.861C251.926 871.881 282.832 867.077 308.622 855.718C334.432 844.351 355.142 826.409 375.138 809.081L375.153 809.068C388.13 797.824 400.812 786.834 414.366 778.122C417.088 776.372 419.987 774.522 423.04 772.574ZM416.515 770.759L416.5 770.769C413.86 772.449 411.353 774.046 408.997 775.557C397.204 783.119 386.179 792.652 374.96 802.353L374.253 802.964C362.764 812.898 351.034 822.985 337.915 831.467C311.758 848.38 280.056 858.932 233.967 848.639C175.84 835.659 107.129 799.529 60.7869 756.653C37.6146 735.213 20.135 712.178 12.3079 689.611C4.50337 667.109 6.29096 645.096 21.6132 625.418C43.0121 597.937 60.4774 578.597 84.2865 564.283C108.1 549.966 138.373 540.609 185.487 533.343C203.925 530.5 220.637 523.997 237.032 516.284C244.231 512.897 251.386 509.268 258.598 505.61C259.594 505.105 260.591 504.599 261.589 504.093C269.824 499.923 278.158 495.749 286.787 491.859C321.245 476.328 360.407 465.328 415.865 477.712C437.145 482.464 456.969 485.887 474.94 488.989C481.64 490.146 488.083 491.259 494.246 492.378C517.005 496.514 535.936 500.753 550.35 507.7C564.695 514.613 574.483 524.168 579.091 538.962C583.727 553.85 583.173 574.213 576.365 602.832C566.615 643.814 536.269 679.67 502.506 708.996C472.258 735.27 439.423 756.175 416.522 770.755L416.515 770.759ZM416.977 771.467C441.198 756.047 476.605 733.504 508.29 705.016C539.982 676.521 567.891 642.128 577.193 603.027C588.354 556.115 582.843 530.989 564.73 515.791C555.641 508.165 543.331 502.994 528.214 498.86C513.099 494.725 495.23 491.64 475.043 488.155C473.66 487.916 472.266 487.676 470.862 487.434C454.048 484.538 435.781 481.392 416.159 477.011C344.863 461.089 300.229 483.549 258.204 504.864L258.17 504.881C234.564 516.854 211.701 528.449 185.353 532.513C138.193 539.786 107.793 549.165 83.8417 563.565C59.8926 577.963 42.3489 597.407 20.9376 624.905C5.41511 644.84 3.62127 667.156 11.5028 689.881C19.393 712.629 36.9811 735.776 60.2062 757.265C106.655 800.24 175.502 836.444 233.783 849.459C268.773 857.273 295.54 853.132 317.87 843.324C340.22 833.508 358.152 818.006 375.474 803.027L375.49 803.014C386.728 793.295 397.716 783.794 409.462 776.262C411.812 774.755 414.314 773.162 416.948 771.485L416.977 771.467Z" fill="#FFF1C2"/>
<path d="M422.577 771.867C419.524 773.816 416.624 775.666 413.899 777.417C400.298 786.16 387.579 797.18 374.623 808.408L373.814 809.108C360.552 820.6 347 832.278 331.842 842.102C301.607 861.697 264.962 873.931 211.722 862.042C144.616 847.056 65.3138 805.3 11.8356 755.725C-14.9048 730.937 -35.0891 704.285 -44.1241 678.15C-53.1365 652.081 -51.0596 626.55 -33.3163 603.724C-8.60365 571.933 11.5814 549.536 39.0991 532.951C66.6207 516.364 101.592 505.524 155.975 497.095C177.224 493.802 196.493 486.284 215.408 477.36C223.714 473.442 231.968 469.244 240.291 465.012C241.442 464.426 242.594 463.84 243.748 463.254C253.253 458.427 262.876 453.595 272.841 449.091C312.641 431.102 357.886 418.348 421.931 432.65C446.479 438.132 469.345 442.078 490.079 445.655C497.812 446.989 505.249 448.272 512.364 449.564C538.622 454.334 560.492 459.228 577.15 467.267C593.737 475.271 605.076 486.352 610.405 503.524C615.763 520.788 615.103 544.378 607.226 577.486C595.937 624.941 560.858 666.452 521.869 700.388C486.937 730.793 449.02 754.991 422.586 771.861L422.577 771.867ZM423.04 772.574C450.999 754.731 491.875 728.645 528.46 695.683C565.052 662.715 597.293 622.92 608.055 577.681C620.962 523.425 614.626 494.335 593.697 476.743C583.201 467.92 568.986 461.944 551.541 457.171C534.096 452.397 513.474 448.839 490.182 444.82L490.178 444.819C469.459 441.245 446.641 437.308 422.116 431.831C339.825 413.454 288.411 439.595 239.9 464.264L239.866 464.281C212.615 478.139 186.235 491.554 155.84 496.265C101.41 504.701 66.313 515.563 38.6535 532.234C10.9959 548.903 -9.26736 571.404 -33.9922 603.211C-51.9352 626.294 -54.0186 652.128 -44.9294 678.419C-35.8317 704.735 -15.539 731.499 11.2543 756.337C64.8396 806.011 144.278 847.841 211.538 862.861C251.926 871.881 282.832 867.077 308.622 855.718C334.432 844.351 355.142 826.409 375.138 809.081L375.153 809.068C388.13 797.824 400.812 786.834 414.366 778.122C417.088 776.372 419.987 774.522 423.04 772.574ZM416.515 770.759L416.5 770.769C413.86 772.449 411.353 774.046 408.997 775.557C397.204 783.119 386.179 792.652 374.96 802.353L374.253 802.964C362.764 812.898 351.034 822.985 337.915 831.467C311.758 848.38 280.056 858.932 233.967 848.639C175.84 835.659 107.129 799.529 60.7869 756.653C37.6146 735.213 20.135 712.178 12.3079 689.611C4.50337 667.109 6.29096 645.096 21.6132 625.418C43.0121 597.937 60.4774 578.597 84.2865 564.283C108.1 549.966 138.373 540.609 185.487 533.343C203.925 530.5 220.637 523.997 237.032 516.284C244.231 512.897 251.386 509.268 258.598 505.61C259.594 505.105 260.591 504.599 261.589 504.093C269.824 499.923 278.158 495.749 286.787 491.859C321.245 476.328 360.407 465.328 415.865 477.712C437.145 482.464 456.969 485.887 474.94 488.989C481.64 490.146 488.083 491.259 494.246 492.378C517.005 496.514 535.936 500.753 550.35 507.7C564.695 514.613 574.483 524.168 579.091 538.962C583.727 553.85 583.173 574.213 576.365 602.832C566.615 643.814 536.269 679.67 502.506 708.996C472.258 735.27 439.423 756.175 416.522 770.755L416.515 770.759ZM416.977 771.467C441.198 756.047 476.605 733.504 508.29 705.016C539.982 676.521 567.891 642.128 577.193 603.027C588.354 556.115 582.843 530.989 564.73 515.791C555.641 508.165 543.331 502.994 528.214 498.86C513.099 494.725 495.23 491.64 475.043 488.155C473.66 487.916 472.266 487.676 470.862 487.434C454.048 484.538 435.781 481.392 416.159 477.011C344.863 461.089 300.229 483.549 258.204 504.864L258.17 504.881C234.564 516.854 211.701 528.449 185.353 532.513C138.193 539.786 107.793 549.165 83.8417 563.565C59.8926 577.963 42.3489 597.407 20.9376 624.905C5.41511 644.84 3.62127 667.156 11.5028 689.881C19.393 712.629 36.9811 735.776 60.2062 757.265C106.655 800.24 175.502 836.444 233.783 849.459C268.773 857.273 295.54 853.132 317.87 843.324C340.22 833.508 358.152 818.006 375.474 803.027L375.49 803.014C386.728 793.295 397.716 783.794 409.462 776.262C411.812 774.755 414.314 773.162 416.948 771.485L416.977 771.467Z" stroke="white"/>
</g>
<g style="mix-blend-mode:screen" opacity="0.7">
<path d="M424.537 317.217C421.484 319.166 418.584 321.016 415.86 322.768C402.258 331.51 389.54 342.53 376.583 353.758L375.775 354.459C362.512 365.95 348.96 377.628 333.802 387.452C303.567 407.048 266.922 419.281 213.682 407.392C146.576 392.406 67.274 350.65 13.7958 301.076C-12.9446 276.287 -33.1289 249.635 -42.1638 223.501C-51.1763 197.431 -49.0994 171.9 -31.3561 149.075C-6.64345 117.283 13.5416 94.8863 41.0593 78.3015C68.5809 61.7143 103.552 50.8744 157.935 42.4457C179.184 39.1523 198.453 31.6339 217.369 22.7102C225.674 18.792 233.928 14.5944 242.251 10.3622C243.402 9.77678 244.555 9.19076 245.708 8.60479C255.214 3.7777 264.837 -1.05453 274.801 -5.55852C314.601 -23.5479 359.846 -36.3016 423.892 -21.9992C448.439 -16.5173 471.305 -12.5721 492.039 -8.9949C499.772 -7.66077 507.209 -6.37766 514.324 -5.08532C540.582 -0.316002 562.452 4.57873 579.11 12.617C595.698 20.6215 607.036 31.7026 612.365 48.8742C617.723 66.1387 617.063 89.7285 609.187 122.836C597.897 170.292 562.818 211.802 523.829 245.739C488.897 276.144 450.98 300.342 424.546 317.212L424.537 317.217ZM425 317.924C452.959 300.082 493.835 273.995 530.42 241.033C567.012 208.065 599.253 168.27 610.015 123.031C622.922 68.7752 616.586 39.6853 595.658 22.0936C585.161 13.2705 570.946 7.29458 553.501 2.52086C536.057 -2.25255 515.434 -5.81112 492.142 -9.82965L492.138 -9.83033C471.419 -13.4049 448.602 -17.3417 424.076 -22.8186C341.785 -41.1956 290.371 -15.055 241.861 9.61413L241.827 9.63141C214.575 23.4897 188.195 36.9047 157.8 41.6156C103.37 50.0516 68.2732 60.9137 40.6137 77.584C12.9561 94.2531 -7.30715 116.754 -32.032 148.562C-49.975 171.644 -52.0584 197.478 -42.9692 223.769C-33.8715 250.085 -13.5788 276.85 13.2145 301.687C66.7998 351.361 146.238 393.191 213.498 408.212C253.886 417.231 284.793 412.427 310.582 401.069C336.392 389.701 357.102 371.759 377.098 354.432L377.114 354.418C390.09 343.174 402.772 332.185 416.326 323.472C419.048 321.723 421.947 319.873 425 317.924ZM418.475 316.11L418.46 316.119C415.821 317.8 413.313 319.396 410.957 320.907C399.164 328.469 388.139 338.002 376.92 347.704L376.213 348.315C364.724 358.249 352.994 368.335 339.875 376.818C313.718 393.73 282.016 404.282 235.928 393.99C177.8 381.009 109.089 344.879 62.7471 302.003C39.5748 280.564 22.0953 257.529 14.2681 234.961C6.46357 212.46 8.25116 190.446 23.5734 170.769C44.9723 143.287 62.4376 123.947 86.2467 109.633C110.06 95.316 140.333 85.9597 187.447 78.6935C205.885 75.8499 222.597 69.3472 238.992 61.634C246.192 58.2469 253.347 54.618 260.558 50.9605C261.554 50.4552 262.551 49.9495 263.55 49.4438C271.784 45.2729 280.118 41.0992 288.747 37.2097C323.205 21.6783 362.368 10.678 417.826 23.0626C439.105 27.8147 458.929 31.2373 476.9 34.3398C483.6 35.4965 490.044 36.6089 496.207 37.7288C518.965 41.8645 537.896 46.1033 552.311 53.0503C566.655 59.9636 576.443 69.5179 581.051 84.3128C585.687 99.2002 585.133 119.564 578.325 148.182C568.576 189.165 538.23 225.02 504.467 254.347C474.219 280.62 441.383 301.525 418.482 316.105L418.475 316.11ZM418.937 316.817C443.159 301.397 478.565 278.855 510.25 250.366C541.942 221.871 569.852 187.479 579.154 148.378C590.314 101.465 584.803 76.3391 566.69 61.1417C557.601 53.5157 545.291 48.3447 530.175 44.21C515.059 40.0756 497.19 36.9901 477.003 33.5051C475.62 33.2662 474.226 33.0262 472.823 32.7845C456.008 29.8887 437.741 26.7427 418.119 22.3609C346.823 6.43933 302.189 28.8997 260.165 50.2139L260.13 50.2312C236.524 62.2042 213.661 73.7997 187.313 77.8634C140.153 85.1368 109.753 94.5151 85.8019 108.915C61.8528 123.314 44.3091 142.758 22.8978 170.255C7.37532 190.19 5.58148 212.507 13.4631 235.231C21.3532 257.98 38.9413 281.127 62.1664 302.615C108.615 345.59 177.462 381.794 235.743 394.809C270.734 402.623 297.5 398.482 319.83 388.675C342.181 378.858 360.112 363.357 377.434 348.378L377.45 348.364C388.689 338.646 399.677 329.144 411.423 321.612C413.773 320.105 416.275 318.512 418.908 316.835L418.937 316.817Z" fill="#FFF1C2"/>
<path d="M424.537 317.217C421.484 319.166 418.584 321.016 415.86 322.768C402.258 331.51 389.54 342.53 376.583 353.758L375.775 354.459C362.512 365.95 348.96 377.628 333.802 387.452C303.567 407.048 266.922 419.281 213.682 407.392C146.576 392.406 67.274 350.65 13.7958 301.076C-12.9446 276.287 -33.1289 249.635 -42.1638 223.501C-51.1763 197.431 -49.0994 171.9 -31.3561 149.075C-6.64345 117.283 13.5416 94.8863 41.0593 78.3015C68.5809 61.7143 103.552 50.8744 157.935 42.4457C179.184 39.1523 198.453 31.6339 217.369 22.7102C225.674 18.792 233.928 14.5944 242.251 10.3622C243.402 9.77678 244.555 9.19076 245.708 8.60479C255.214 3.7777 264.837 -1.05453 274.801 -5.55852C314.601 -23.5479 359.846 -36.3016 423.892 -21.9992C448.439 -16.5173 471.305 -12.5721 492.039 -8.9949C499.772 -7.66077 507.209 -6.37766 514.324 -5.08532C540.582 -0.316002 562.452 4.57873 579.11 12.617C595.698 20.6215 607.036 31.7026 612.365 48.8742C617.723 66.1387 617.063 89.7285 609.187 122.836C597.897 170.292 562.818 211.802 523.829 245.739C488.897 276.144 450.98 300.342 424.546 317.212L424.537 317.217ZM425 317.924C452.959 300.082 493.835 273.995 530.42 241.033C567.012 208.065 599.253 168.27 610.015 123.031C622.922 68.7752 616.586 39.6853 595.658 22.0936C585.161 13.2705 570.946 7.29458 553.501 2.52086C536.057 -2.25255 515.434 -5.81112 492.142 -9.82965L492.138 -9.83033C471.419 -13.4049 448.602 -17.3417 424.076 -22.8186C341.785 -41.1956 290.371 -15.055 241.861 9.61413L241.827 9.63141C214.575 23.4897 188.195 36.9047 157.8 41.6156C103.37 50.0516 68.2732 60.9137 40.6137 77.584C12.9561 94.2531 -7.30715 116.754 -32.032 148.562C-49.975 171.644 -52.0584 197.478 -42.9692 223.769C-33.8715 250.085 -13.5788 276.85 13.2145 301.687C66.7998 351.361 146.238 393.191 213.498 408.212C253.886 417.231 284.793 412.427 310.582 401.069C336.392 389.701 357.102 371.759 377.098 354.432L377.114 354.418C390.09 343.174 402.772 332.185 416.326 323.472C419.048 321.723 421.947 319.873 425 317.924ZM418.475 316.11L418.46 316.119C415.821 317.8 413.313 319.396 410.957 320.907C399.164 328.469 388.139 338.002 376.92 347.704L376.213 348.315C364.724 358.249 352.994 368.335 339.875 376.818C313.718 393.73 282.016 404.282 235.928 393.99C177.8 381.009 109.089 344.879 62.7471 302.003C39.5748 280.564 22.0953 257.529 14.2681 234.961C6.46357 212.46 8.25116 190.446 23.5734 170.769C44.9723 143.287 62.4376 123.947 86.2467 109.633C110.06 95.316 140.333 85.9597 187.447 78.6935C205.885 75.8499 222.597 69.3472 238.992 61.634C246.192 58.2469 253.347 54.618 260.558 50.9605C261.554 50.4552 262.551 49.9495 263.55 49.4438C271.784 45.2729 280.118 41.0992 288.747 37.2097C323.205 21.6783 362.368 10.678 417.826 23.0626C439.105 27.8147 458.929 31.2373 476.9 34.3398C483.6 35.4965 490.044 36.6089 496.207 37.7288C518.965 41.8645 537.896 46.1033 552.311 53.0503C566.655 59.9636 576.443 69.5179 581.051 84.3128C585.687 99.2002 585.133 119.564 578.325 148.182C568.576 189.165 538.23 225.02 504.467 254.347C474.219 280.62 441.383 301.525 418.482 316.105L418.475 316.11ZM418.937 316.817C443.159 301.397 478.565 278.855 510.25 250.366C541.942 221.871 569.852 187.479 579.154 148.378C590.314 101.465 584.803 76.3391 566.69 61.1417C557.601 53.5157 545.291 48.3447 530.175 44.21C515.059 40.0756 497.19 36.9901 477.003 33.5051C475.62 33.2662 474.226 33.0262 472.823 32.7845C456.008 29.8887 437.741 26.7427 418.119 22.3609C346.823 6.43933 302.189 28.8997 260.165 50.2139L260.13 50.2312C236.524 62.2042 213.661 73.7997 187.313 77.8634C140.153 85.1368 109.753 94.5151 85.8019 108.915C61.8528 123.314 44.3091 142.758 22.8978 170.255C7.37532 190.19 5.58148 212.507 13.4631 235.231C21.3532 257.98 38.9413 281.127 62.1664 302.615C108.615 345.59 177.462 381.794 235.743 394.809C270.734 402.623 297.5 398.482 319.83 388.675C342.181 378.858 360.112 363.357 377.434 348.378L377.45 348.364C388.689 338.646 399.677 329.144 411.423 321.612C413.773 320.105 416.275 318.512 418.908 316.835L418.937 316.817Z" stroke="white"/>
</g>
<g style="mix-blend-mode:screen" opacity="0.7">
<path d="M386.683 290.71C384.604 292.119 382.63 293.456 380.776 294.722C371.525 301.034 362.841 308.944 353.986 317.012L353.434 317.515C344.372 325.771 335.105 334.168 324.773 341.274C304.157 355.453 279.282 364.503 243.477 356.669C198.384 346.802 145.37 318.157 109.851 283.709C92.0894 266.483 78.7592 247.861 72.9457 229.474C67.1451 211.128 68.8263 193.036 81.0598 176.692C98.0612 153.979 111.92 137.931 130.668 125.91C149.42 113.887 173.129 105.852 209.879 99.3144C224.21 96.7648 237.26 91.2575 250.099 84.7563C255.737 81.9018 261.343 78.8504 266.998 75.7726C267.78 75.3469 268.563 74.9207 269.347 74.4945C275.805 70.9841 282.345 67.4674 289.113 64.1784C316.149 51.0395 346.819 41.5337 389.874 50.9544C406.351 54.5597 421.713 57.0985 435.646 59.4012C440.842 60.2599 445.841 61.086 450.623 61.9221C468.264 65.0067 482.973 68.2307 494.137 73.74C505.266 79.232 512.821 86.969 516.238 99.0829C519.67 111.249 518.962 127.938 513.291 151.404C505.157 185.067 481.043 214.775 454.39 239.162C430.511 261.012 404.688 278.51 386.691 290.705L386.683 290.71ZM386.78 290.966C405.816 278.068 433.637 259.216 458.641 235.559C483.651 211.896 505.791 183.474 513.528 151.452C522.818 113.008 518.843 92.6142 505.005 80.4829C498.057 74.3923 488.574 70.3352 476.881 67.1554C465.189 63.9758 451.34 61.6866 435.686 59.0994L435.682 59.0987C421.759 56.7978 406.422 54.2631 389.95 50.659C334.766 38.5844 299.883 57.5632 266.925 75.5019L266.889 75.5213C248.383 85.594 230.44 95.36 209.879 99.0179C173.119 105.558 149.373 113.599 130.577 125.65C111.781 137.702 97.8927 153.789 80.8854 176.511C68.5698 192.964 66.8871 211.183 72.7135 229.611C78.5469 248.061 91.9104 266.717 109.683 283.954C145.229 318.428 198.274 347.09 243.401 356.964C270.479 362.889 291.319 359.17 308.789 350.889C326.282 342.596 340.418 329.722 354.085 317.27L354.1 317.257C362.964 309.181 371.636 301.28 380.874 294.977C382.728 293.712 384.701 292.375 386.78 290.966ZM382.61 289.993L382.597 290.002C380.801 291.217 379.095 292.37 377.492 293.461C369.472 298.92 361.946 305.762 354.279 312.734L353.796 313.173C345.946 320.309 337.925 327.564 328.982 333.7C311.143 345.941 289.617 353.751 258.613 346.967C219.549 338.419 173.611 313.632 142.828 283.837C127.435 268.938 115.888 252.84 110.849 236.959C105.823 221.118 107.271 205.513 117.839 191.418C132.56 171.783 144.553 157.923 160.777 147.545C177.006 137.165 197.533 130.228 229.372 124.589C241.803 122.388 253.12 117.625 264.247 112.005C269.133 109.538 273.992 106.9 278.891 104.24C279.568 103.872 280.246 103.504 280.924 103.137C286.519 100.103 292.183 97.0652 298.044 94.2245C321.454 82.8784 348.006 74.6761 385.295 82.8352C399.577 85.9603 412.895 88.1629 424.972 90.1601L424.973 90.1604C429.475 90.9049 433.805 91.621 437.946 92.3456C453.236 95.0205 465.972 97.813 475.636 102.576C485.265 107.321 491.793 113.997 494.75 124.441C497.721 134.936 497.119 149.346 492.218 169.632C485.192 198.708 464.329 224.372 441.249 245.448C420.571 264.33 398.209 279.448 382.618 289.988L382.61 289.993ZM382.706 290.25C399.198 279.102 423.294 262.811 444.947 242.365C466.606 221.914 485.768 197.352 492.455 169.68C500.487 136.439 497.025 118.835 485.058 108.364C479.046 103.104 470.838 99.5943 460.707 96.8406C450.577 94.087 438.579 92.1022 425.011 89.8583C424.081 89.7046 423.145 89.5501 422.201 89.3944C410.903 87.5309 398.622 85.5054 385.443 82.6217C337.641 72.1623 307.367 88.4702 278.816 103.97L278.781 103.99C262.751 112.692 247.198 121.136 229.372 124.293C197.523 129.934 176.959 136.877 160.686 147.285C144.414 157.694 132.392 171.593 117.665 191.237C107.015 205.441 105.565 221.174 110.617 237.096C115.675 253.04 127.256 269.172 142.66 284.082C173.47 313.904 219.44 338.708 258.537 347.262C281.992 352.394 300.034 349.188 315.157 342.039C330.301 334.879 342.539 323.757 354.378 312.992L354.393 312.979C362.069 305.999 369.584 299.166 377.59 293.716C379.19 292.627 380.893 291.475 382.687 290.263L382.706 290.25Z" fill="#FFF1C2"/>
<path d="M386.683 290.71C384.604 292.119 382.63 293.456 380.776 294.722C371.525 301.034 362.841 308.944 353.986 317.012L353.434 317.515C344.372 325.771 335.105 334.168 324.773 341.274C304.157 355.453 279.282 364.503 243.477 356.669C198.384 346.802 145.37 318.157 109.851 283.709C92.0894 266.483 78.7592 247.861 72.9457 229.474C67.1451 211.128 68.8263 193.036 81.0598 176.692C98.0612 153.979 111.92 137.931 130.668 125.91C149.42 113.887 173.129 105.852 209.879 99.3144C224.21 96.7648 237.26 91.2575 250.099 84.7563C255.737 81.9018 261.343 78.8504 266.998 75.7726C267.78 75.3469 268.563 74.9207 269.347 74.4945C275.805 70.9841 282.345 67.4674 289.113 64.1784C316.149 51.0395 346.819 41.5337 389.874 50.9544C406.351 54.5597 421.713 57.0985 435.646 59.4012C440.842 60.2599 445.841 61.086 450.623 61.9221C468.264 65.0067 482.973 68.2307 494.137 73.74C505.266 79.232 512.821 86.969 516.238 99.0829C519.67 111.249 518.962 127.938 513.291 151.404C505.157 185.067 481.043 214.775 454.39 239.162C430.511 261.012 404.688 278.51 386.691 290.705L386.683 290.71ZM386.78 290.966C405.816 278.068 433.637 259.216 458.641 235.559C483.651 211.896 505.791 183.474 513.528 151.452C522.818 113.008 518.843 92.6142 505.005 80.4829C498.057 74.3923 488.574 70.3352 476.881 67.1554C465.189 63.9758 451.34 61.6866 435.686 59.0994L435.682 59.0987C421.759 56.7978 406.422 54.2631 389.95 50.659C334.766 38.5844 299.883 57.5632 266.925 75.5019L266.889 75.5213C248.383 85.594 230.44 95.36 209.879 99.0179C173.119 105.558 149.373 113.599 130.577 125.65C111.781 137.702 97.8927 153.789 80.8854 176.511C68.5698 192.964 66.8871 211.183 72.7135 229.611C78.5469 248.061 91.9104 266.717 109.683 283.954C145.229 318.428 198.274 347.09 243.401 356.964C270.479 362.889 291.319 359.17 308.789 350.889C326.282 342.596 340.418 329.722 354.085 317.27L354.1 317.257C362.964 309.181 371.636 301.28 380.874 294.977C382.728 293.712 384.701 292.375 386.78 290.966ZM382.61 289.993L382.597 290.002C380.801 291.217 379.095 292.37 377.492 293.461C369.472 298.92 361.946 305.762 354.279 312.734L353.796 313.173C345.946 320.309 337.925 327.564 328.982 333.7C311.143 345.941 289.617 353.751 258.613 346.967C219.549 338.419 173.611 313.632 142.828 283.837C127.435 268.938 115.888 252.84 110.849 236.959C105.823 221.118 107.271 205.513 117.839 191.418C132.56 171.783 144.553 157.923 160.777 147.545C177.006 137.165 197.533 130.228 229.372 124.589C241.803 122.388 253.12 117.625 264.247 112.005C269.133 109.538 273.992 106.9 278.891 104.24C279.568 103.872 280.246 103.504 280.924 103.137C286.519 100.103 292.183 97.0652 298.044 94.2245C321.454 82.8784 348.006 74.6761 385.295 82.8352C399.577 85.9603 412.895 88.1629 424.972 90.1601L424.973 90.1604C429.475 90.9049 433.805 91.621 437.946 92.3456C453.236 95.0205 465.972 97.813 475.636 102.576C485.265 107.321 491.793 113.997 494.75 124.441C497.721 134.936 497.119 149.346 492.218 169.632C485.192 198.708 464.329 224.372 441.249 245.448C420.571 264.33 398.209 279.448 382.618 289.988L382.61 289.993ZM382.706 290.25C399.198 279.102 423.294 262.811 444.947 242.365C466.606 221.914 485.768 197.352 492.455 169.68C500.487 136.439 497.025 118.835 485.058 108.364C479.046 103.104 470.838 99.5943 460.707 96.8406C450.577 94.087 438.579 92.1022 425.011 89.8583C424.081 89.7046 423.145 89.5501 422.201 89.3944C410.903 87.5309 398.622 85.5054 385.443 82.6217C337.641 72.1623 307.367 88.4702 278.816 103.97L278.781 103.99C262.751 112.692 247.198 121.136 229.372 124.293C197.523 129.934 176.959 136.877 160.686 147.285C144.414 157.694 132.392 171.593 117.665 191.237C107.015 205.441 105.565 221.174 110.617 237.096C115.675 253.04 127.256 269.172 142.66 284.082C173.47 313.904 219.44 338.708 258.537 347.262C281.992 352.394 300.034 349.188 315.157 342.039C330.301 334.879 342.539 323.757 354.378 312.992L354.393 312.979C362.069 305.999 369.584 299.166 377.59 293.716C379.19 292.627 380.893 291.475 382.687 290.263L382.706 290.25Z" stroke="white"/>
</g>
</g>
</svg>
