<?xml version="1.0" encoding="UTF-8" standalone="no"?>
<svg
   version="1.0"
   width="448.61542pt"
   height="575.62128pt"
   viewBox="0 0 448.61543 575.62127"
   preserveAspectRatio="xMidYMid"
   id="svg7"
   sodipodi:docname="logo-beflow.svg"
   inkscape:version="1.3 (0e150ed, 2023-07-21)"
   xml:space="preserve"
   xmlns:inkscape="http://www.inkscape.org/namespaces/inkscape"
   xmlns:sodipodi="http://sodipodi.sourceforge.net/DTD/sodipodi-0.dtd"
   xmlns="http://www.w3.org/2000/svg"
   xmlns:svg="http://www.w3.org/2000/svg"><defs
     id="defs7" /><sodipodi:namedview
     id="namedview7"
     pagecolor="#ffffff"
     bordercolor="#000000"
     borderopacity="0.25"
     inkscape:showpageshadow="2"
     inkscape:pageopacity="0.0"
     inkscape:pagecheckerboard="0"
     inkscape:deskcolor="#d1d1d1"
     inkscape:document-units="pt"
     showgrid="false"
     inkscape:zoom="0.25"
     inkscape:cx="-1244"
     inkscape:cy="28"
     inkscape:window-width="1848"
     inkscape:window-height="1016"
     inkscape:window-x="0"
     inkscape:window-y="0"
     inkscape:window-maximized="1"
     inkscape:current-layer="g7" /><g
     transform="matrix(0.1,0,0,-0.1,-287.13297,731.45635)"
     fill="#000000"
     stroke="none"
     id="g7"><g
       id="g14"><g
         id="g11"><path
           style="fill:#bfe7a2;fill-opacity:1;stroke:none;stroke-width:8.29095"
           id="path10"
           transform="scale(1,-1)"
           sodipodi:type="arc"
           sodipodi:cx="4683.6035"
           sodipodi:cy="-4176.5703"
           sodipodi:rx="1039.248"
           sodipodi:ry="1026.4447"
           sodipodi:start="1.6404739"
           sodipodi:end="5.8933141"
           sodipodi:arc-type="slice"
           d="m 4611.2498,-3152.6163 a 1039.248,1026.4447 0 0 1 -963.273,-938.34 1039.248,1026.4447 0 0 1 791.9391,-1083.4413 1039.248,1026.4447 0 0 1 1204.9484,607.7072 l -961.2608,390.1201 z" /><path
           d="m 3752,6965 c -151,-112 -351,-329 -464,-501 -246,-375 -368,-734 -409,-1204 -16,-186 -6,-553 21,-735 94,-643 389,-1205 823,-1567 142.509,-119.2738 321.3886,-213.6495 345,-204 4,4 -1,12 -11,17 -36,21 -254,209 -318,275 -167,173 -288,349 -395,569 -117,243 -165,416 -183,658 -23,316 56,609 230,857 59,84 290,320 313,320 2,0 29,15 61,34 149,90 315,137 550,156 408,32 531,58 717,150 225,112 420,297 559,530 113,189 168,368 175,575 -27.3375,474.922 -1263.7904,610.3064 -2014,70 z m 1503,-255 c -47,-90 -145,-220 -211,-279 -63,-56 -191,-138 -279,-180 -38,-18 -181,-71 -317,-117 -243,-82 -397,-145 -470,-191 -21,-12 -40,-23 -43,-23 -9,0 -194,-118 -242,-155 -110,-84 -227,-208 -313,-332 -42.5029,-62.3376 -178.5779,-135.1256 -39,90 157,253 365,445 624,579 78,40 321,139 485,198 369,133 495,203 660,370 89,89 94,96 144,179 34,56 41,62 51,47 31.9762,-62.9074 -20.9751,-133.2669 -50,-186 z"
           id="path2"
           style="fill:#005240;fill-opacity:1"
           sodipodi:nodetypes="cccccscccccscccccccccccsccccccccc" /><path
           d="m 6140.9686,5473.2102 c -30,-30 -36.7406,-59.0089 -25.7406,-92.0089 30,-85 154.772,-59.2013 154.772,28.7987 0,65 -86.0314,106.2102 -129.0314,63.2102 z"
           id="path3"
           sodipodi:nodetypes="scss"
           style="fill:#005240;fill-opacity:1" /><path
           d="m 6687.0698,4399.4853 c -30,-30 -36.7406,-59.0089 -25.7406,-92.0089 30,-85 154.772,-59.2013 154.772,28.7987 0,65 -86.0314,106.2102 -129.0314,63.2102 z"
           id="path3-3"
           sodipodi:nodetypes="scss"
           style="fill:#bfe7a2;fill-opacity:1" /><path
           d="m 3679,4471.1559 c -230.1287,-881.3955 583.4449,-1481.0311 1286,-1287.124 392,118.1031 640,380.3321 844,894.7814 120,301.2631 300,549.4798 496,683.5969 100,69.0604 262,139.1215 410,178.1556 91,24.021 -103,-2.0017 -230,-30.0262 -367,-83.0725 -648,-239.2089 -860,-479.4187 -48,-54.0472 -165,-225.1966 -165,-240.2097 0,-14.0123 -99,-181.1582 -145,-246.215 -55,-77.0673 -102,-124.1084 -190,-189.1652 -138,-103.0901 -254,-145.1268 -406,-145.1268 -125,0 -185,13.0114 -285,60.0525 -143,69.0603 -265,204.1783 -325,361.3155 -113.0623,289.1895 86.9551,708.7874 424,746.652 92,10.0088 87,-1.0008 87,208.1818 v 184.1608 l -0.5979,31.5912 C 4411.7425,5192.1167 3851.7848,5060.8806 3679,4471.1559 Z"
           id="path4"
           sodipodi:nodetypes="cccccccsccscccsccc"
           style="fill:#005240;fill-opacity:1;stroke-width:1.00044" /><g
           id="g13"><ellipse
             style="fill:#005240;fill-opacity:1;stroke:none;stroke-width:4.11853"
             id="path8"
             cx="6906.2847"
             cy="-3347.0305"
             transform="scale(1,-1)"
             rx="451.19916"
             ry="449.81897" /><ellipse
             style="fill:#ffffff;stroke:none;stroke-width:22.8504"
             id="path9"
             cx="6906.4478"
             cy="-3351.9492"
             transform="scale(1,-1)"
             rx="87.308426"
             ry="89.929085" /></g><ellipse
           style="fill:#ffffff;fill-opacity:1;stroke:none;stroke-width:5.02356"
           id="ellipse10"
           cx="4692.73"
           cy="-4202.8672"
           transform="scale(1,-1)"
           rx="633.88245"
           ry="617.81781" /></g></g><g
       transform="translate(3103.1557,5404.284)"
       fill="#000000"
       stroke="none"
       id="g19"
       style="fill:#4c0052;fill-opacity:1"><g
         id="g12"
         transform="matrix(1.1313057,0,0,1.1313057,-2283.6384,-6882.7329)"
         style="fill:#005240;fill-opacity:1"><path
           d="m 3784.0469,3345.4375 c -3,-5 -8,-104 -12,-220 -3.9565,-174.7679 -55.9568,-290.0391 166,-304 52,-3 55,-2 56,22 3,43 -11,57 -61,58 -88,4 -84,-6 -87,235 l -3,212 -27,3 c -14,2 -29,-1 -32,-6 z"
           id="path14"
           sodipodi:nodetypes="scccccccs"
           style="fill:#005240;fill-opacity:1" /><path
           d="m 2708.0469,3314.4375 2,-243 3,-243 90,-3 c 79,-2 96,0 134,20 30.3783,16.0654 192.1583,114.3394 -37,281 34.5812,37.463 90.9425,119.9502 -12,180 -56.2433,25.8918 -122.6044,31.48 -180,8 z m 150,-106 c 4.6095,-57.1944 -37.6562,-55 -80,-55 v 50 c 0,44 3,50 21,50 10.1174,0 59,-4.8762 59,-45 z m 53,-176 c 25,-31 22,-75 -8,-104 -18,-19 -35,-25 -70,-25 h -45 v 84 83 c 40.8028,-7.9295 91.9369,-5.9794 123,-38 z"
           id="path15"
           sodipodi:nodetypes="ccccccccscsssccscccc"
           style="fill:#005240;fill-opacity:1" /><path
           d="m 3540.0469,2961.4375 c 3,-264 4,-273 23,-276 47,-6 50,6 53,202 l 3,185 62,3 62,3 v 40 40 l -62,3 c -62,3 -63,3 -63,32 0,44 23,60 86,60 h 55 c -3.5499,24.9846 -2.6403,49.8746 -1.8801,74.9707 -267.1952,27.5444 -218.8215,-156.9035 -217.1199,-366.9707 z"
           id="path16"
           sodipodi:nodetypes="ccccccccsssccc"
           style="fill:#005240;fill-opacity:1" /><path
           d="m 4078.0469,3187.4375 c -173.4524,-75.8854 -133.075,-317.4241 28,-364 367.4883,-100.719 298.1995,504.9182 -28,364 z m 200,-187 c 0,-72 -83,-123 -152,-94 -92,38 -94,163 -5,202 107.1016,48.1957 157,-75.5239 157,-108 z"
           id="path17"
           sodipodi:nodetypes="cccsccs"
           style="fill:#005240;fill-opacity:1" /><path
           d="m 4379.0469,3189.4375 c -10,-11 -5,-28 20,-78 18,-35 49,-112 69,-173 33,-99 39,-110 61,-110 24,0 33,13 67,95 10,25 23,56 28,69 9,21 13,15 38,-57 34,-99 49,-121 71,-107 15,10 118,219 145,297 16,43 3,68 -35,68 -18,0 -28,-14 -53,-67 -17,-38 -36,-81 -42,-98 -11,-29 -12,-29 -25,-11 -8,10 -22,42 -31,70 -18,55 -39,86 -60,86 -7,0 -29,-41 -50,-90 l -37,-90 -47,98 c -26,55 -55,102 -64,105 -27,11 -42,8 -55,-7 z"
           id="path18"
           style="fill:#005240;fill-opacity:1" /><path
           d="m 3122.0469,3179.4375 c -56,-25 -79,-70 -82,-166 -2,-71 0,-90 17,-117 32,-51 89,-74 187,-76 45,-1 86,1 89,5 4,4 4,20 0,37 -6,30 -9,31 -58,31 -99,0 -157,28 -157,76 0,24 0,24 88,21 114,-6 149,0 155,24 13,49 -36,134 -94,164 -35,18 -104,19 -145,1 z m 136,-116 c 0,-12 -109,-14 -128,-2 -50.2795,33.5194 128,89.2093 128,2 z"
           id="path19"
           sodipodi:nodetypes="ccccccssccccscs"
           style="fill:#005240;fill-opacity:1" /></g></g></g></svg>
