<svg width="348" height="1082" viewBox="0 0 348 1082" fill="none" xmlns="http://www.w3.org/2000/svg">
<path d="M473.577 984.867C470.524 986.816 467.624 988.666 464.899 990.417C451.298 999.16 438.579 1010.18 425.623 1021.41L424.814 1022.11C411.552 1033.6 398 1045.28 382.842 1055.1C352.607 1074.7 315.962 1086.93 262.722 1075.04C195.616 1060.06 116.314 1018.3 62.8356 968.725C36.0952 943.937 15.9109 917.285 6.87595 891.15C-2.13649 865.081 -0.0595804 839.55 17.6837 816.724C42.3963 784.933 62.5814 762.536 90.0991 745.951C117.621 729.364 152.592 718.524 206.975 710.095C228.224 706.802 247.493 699.284 266.408 690.36C274.714 686.442 282.968 682.244 291.291 678.012C292.442 677.426 293.594 676.84 294.748 676.254C304.253 671.427 313.876 666.595 323.841 662.091C363.641 644.102 408.886 631.348 472.931 645.65C497.479 651.132 520.345 655.078 541.079 658.655C548.812 659.989 556.249 661.272 563.364 662.564C589.622 667.334 611.492 672.228 628.15 680.267C644.737 688.271 656.076 699.352 661.405 716.524C666.763 733.788 666.103 757.378 658.226 790.486C646.937 837.941 611.858 879.452 572.869 913.388C537.937 943.793 500.02 967.991 473.586 984.861L473.577 984.867ZM474.04 985.574C501.999 967.731 542.875 941.645 579.46 908.683C616.052 875.715 648.293 835.92 659.055 790.681C671.962 736.425 665.626 707.335 644.697 689.743C634.201 680.92 619.986 674.944 602.541 670.171C585.096 665.397 564.474 661.839 541.182 657.82L541.178 657.819C520.459 654.245 497.641 650.308 473.116 644.831C390.825 626.454 339.411 652.595 290.9 677.264L290.866 677.281C263.615 691.139 237.235 704.554 206.84 709.265C152.41 717.701 117.313 728.563 89.6535 745.234C61.9959 761.903 41.7326 784.404 17.0078 816.211C-0.935187 839.294 -3.01857 865.128 6.07063 891.419C15.1683 917.735 35.461 944.499 62.2543 969.337C115.84 1019.01 195.278 1060.84 262.538 1075.86C302.926 1084.88 333.832 1080.08 359.622 1068.72C385.432 1057.35 406.142 1039.41 426.138 1022.08L426.153 1022.07C439.13 1010.82 451.812 999.834 465.366 991.122C468.088 989.372 470.987 987.522 474.04 985.574ZM467.515 983.759L467.5 983.769C464.86 985.449 462.353 987.046 459.997 988.557C448.204 996.119 437.179 1005.65 425.96 1015.35L425.253 1015.96C413.764 1025.9 402.034 1035.98 388.915 1044.47C362.758 1061.38 331.056 1071.93 284.967 1061.64C226.84 1048.66 158.129 1012.53 111.787 969.653C88.6146 948.213 71.135 925.178 63.3079 902.611C55.5034 880.109 57.291 858.096 72.6132 838.418C94.0121 810.937 111.477 791.597 135.286 777.283C159.1 762.966 189.373 753.609 236.487 746.343C254.925 743.5 271.637 736.997 288.032 729.284C295.231 725.897 302.386 722.268 309.598 718.61C310.594 718.105 311.591 717.599 312.589 717.093C320.824 712.923 329.158 708.749 337.787 704.859C372.245 689.328 411.407 678.328 466.865 690.712C488.145 695.464 507.969 698.887 525.94 701.989C532.64 703.146 539.083 704.259 545.246 705.378C568.005 709.514 586.936 713.753 601.35 720.7C615.695 727.613 625.483 737.168 630.091 751.962C634.727 766.85 634.173 787.213 627.365 815.832C617.615 856.814 587.269 892.67 553.506 921.996C523.258 948.27 490.423 969.175 467.522 983.755L467.515 983.759ZM467.977 984.467C492.198 969.047 527.605 946.504 559.29 918.016C590.982 889.521 618.891 855.128 628.193 816.027C639.354 769.115 633.843 743.989 615.73 728.791C606.641 721.165 594.331 715.994 579.214 711.86C564.099 707.725 546.23 704.64 526.043 701.155C524.66 700.916 523.266 700.676 521.862 700.434C505.048 697.538 486.781 694.392 467.159 690.011C395.863 674.089 351.229 696.549 309.204 717.864L309.17 717.881C285.564 729.854 262.701 741.449 236.353 745.513C189.193 752.786 158.793 762.165 134.842 776.565C110.893 790.963 93.3489 810.407 71.9376 837.905C56.4151 857.84 54.6213 880.156 62.5028 902.881C70.393 925.629 87.9811 948.776 111.206 970.265C157.655 1013.24 226.502 1049.44 284.783 1062.46C319.773 1070.27 346.54 1066.13 368.87 1056.32C391.22 1046.51 409.152 1031.01 426.474 1016.03L426.49 1016.01C437.728 1006.3 448.716 996.794 460.462 989.262C462.812 987.755 465.314 986.162 467.948 984.485L467.977 984.467Z" fill="#BFE7A2" stroke="#BFE7A2"/>
<mask id="path-2-inside-1_70_2607" fill="white">
<path fill-rule="evenodd" clip-rule="evenodd" d="M456.59 957.345C454.512 958.753 452.537 960.091 450.681 961.357C441.396 967.693 432.686 975.628 423.836 983.691L423.284 984.195C414.219 992.453 404.976 1000.83 394.678 1007.91C374.156 1022.03 349.421 1031.03 313.773 1023.23C268.775 1013.38 215.843 984.784 180.387 950.398C162.658 933.203 149.39 914.649 143.61 896.37C137.851 878.154 139.525 860.234 151.648 844.038C168.643 821.333 182.457 805.347 201.125 793.378C219.797 781.406 243.431 773.386 280.153 766.854C294.554 764.292 307.655 758.759 320.512 752.249C326.157 749.391 331.77 746.336 337.424 743.258C338.206 742.833 338.989 742.407 339.773 741.981C346.23 738.47 352.762 734.958 359.518 731.675C386.489 718.568 417.041 709.101 459.953 718.49C476.444 722.098 491.818 724.639 505.75 726.942C510.947 727.8 515.943 728.626 520.722 729.462C538.367 732.547 553.009 735.762 564.101 741.235C575.129 746.677 582.572 754.314 585.944 766.267C589.341 778.31 588.655 794.899 582.992 818.336C574.893 851.855 550.866 881.478 524.24 905.842C500.387 927.667 474.589 945.148 456.59 957.345ZM457.247 958.427C495.316 932.633 568.66 882.935 584.202 818.615C602.797 741.659 568.545 735.998 505.956 725.654C492.032 723.353 476.705 720.82 460.246 717.219C404.87 705.102 369.844 724.166 336.874 742.111C318.342 752.198 300.46 761.93 279.98 765.574C206.402 778.663 184.699 797.8 150.672 843.26C100.968 909.664 223.037 1004.71 313.479 1024.5C367.852 1036.4 397.293 1009.57 424.609 984.686C433.484 976.601 442.134 968.72 451.343 962.437C453.196 961.172 455.169 959.835 457.247 958.427Z"/>
<path fill-rule="evenodd" clip-rule="evenodd" d="M452.518 956.628C450.717 957.845 449.006 959.002 447.398 960.096C439.344 965.579 431.792 972.446 424.13 979.413L423.647 979.852C415.794 986.991 407.797 994.222 398.886 1000.34C381.142 1012.51 359.756 1020.28 328.909 1013.53C289.94 1005 244.084 980.259 213.364 950.526C198.003 935.657 186.518 919.628 181.513 903.854C176.529 888.144 177.97 872.712 188.427 858.764C203.142 839.138 215.09 825.34 231.234 815.013C247.382 804.684 267.834 797.763 299.645 792.129C312.147 789.915 323.514 785.127 334.659 779.498C339.553 777.027 344.418 774.385 349.317 771.726C349.994 771.358 350.671 770.991 351.349 770.623C356.944 767.59 362.599 764.556 368.449 761.721C391.793 750.407 418.228 742.243 455.373 750.371C469.67 753.499 483 755.703 495.075 757.7C499.578 758.445 503.907 759.161 508.046 759.885C523.339 762.561 536.008 765.344 545.6 770.071C555.128 774.767 561.544 781.342 564.455 791.626C567.392 801.998 566.813 816.307 561.918 836.564C554.928 865.495 534.153 891.075 511.099 912.127C490.448 930.985 468.111 946.086 452.518 956.628ZM453.173 957.711C486.151 935.417 549.688 892.465 563.129 836.843C579.209 770.293 549.524 765.384 495.282 756.413C483.214 754.417 470.004 752.303 455.739 749.181C407.746 738.68 377.329 755.072 348.766 770.579C332.711 779.295 317.219 787.706 299.473 790.849C235.718 802.14 216.919 818.683 187.451 857.986C144.408 915.396 250.232 997.647 328.616 1014.8C375.74 1025.11 401.24 1001.92 424.902 980.409C432.589 973.419 440.081 966.606 448.058 961.176C449.664 960.083 451.373 958.928 453.173 957.711Z"/>
</mask>
<path fill-rule="evenodd" clip-rule="evenodd" d="M456.59 957.345C454.512 958.753 452.537 960.091 450.681 961.357C441.396 967.693 432.686 975.628 423.836 983.691L423.284 984.195C414.219 992.453 404.976 1000.83 394.678 1007.91C374.156 1022.03 349.421 1031.03 313.773 1023.23C268.775 1013.38 215.843 984.784 180.387 950.398C162.658 933.203 149.39 914.649 143.61 896.37C137.851 878.154 139.525 860.234 151.648 844.038C168.643 821.333 182.457 805.347 201.125 793.378C219.797 781.406 243.431 773.386 280.153 766.854C294.554 764.292 307.655 758.759 320.512 752.249C326.157 749.391 331.77 746.336 337.424 743.258C338.206 742.833 338.989 742.407 339.773 741.981C346.23 738.47 352.762 734.958 359.518 731.675C386.489 718.568 417.041 709.101 459.953 718.49C476.444 722.098 491.818 724.639 505.75 726.942C510.947 727.8 515.943 728.626 520.722 729.462C538.367 732.547 553.009 735.762 564.101 741.235C575.129 746.677 582.572 754.314 585.944 766.267C589.341 778.31 588.655 794.899 582.992 818.336C574.893 851.855 550.866 881.478 524.24 905.842C500.387 927.667 474.589 945.148 456.59 957.345ZM457.247 958.427C495.316 932.633 568.66 882.935 584.202 818.615C602.797 741.659 568.545 735.998 505.956 725.654C492.032 723.353 476.705 720.82 460.246 717.219C404.87 705.102 369.844 724.166 336.874 742.111C318.342 752.198 300.46 761.93 279.98 765.574C206.402 778.663 184.699 797.8 150.672 843.26C100.968 909.664 223.037 1004.71 313.479 1024.5C367.852 1036.4 397.293 1009.57 424.609 984.686C433.484 976.601 442.134 968.72 451.343 962.437C453.196 961.172 455.169 959.835 457.247 958.427Z" fill="#BFE7A2"/>
<path fill-rule="evenodd" clip-rule="evenodd" d="M452.518 956.628C450.717 957.845 449.006 959.002 447.398 960.096C439.344 965.579 431.792 972.446 424.13 979.413L423.647 979.852C415.794 986.991 407.797 994.222 398.886 1000.34C381.142 1012.51 359.756 1020.28 328.909 1013.53C289.94 1005 244.084 980.259 213.364 950.526C198.003 935.657 186.518 919.628 181.513 903.854C176.529 888.144 177.97 872.712 188.427 858.764C203.142 839.138 215.09 825.34 231.234 815.013C247.382 804.684 267.834 797.763 299.645 792.129C312.147 789.915 323.514 785.127 334.659 779.498C339.553 777.027 344.418 774.385 349.317 771.726C349.994 771.358 350.671 770.991 351.349 770.623C356.944 767.59 362.599 764.556 368.449 761.721C391.793 750.407 418.228 742.243 455.373 750.371C469.67 753.499 483 755.703 495.075 757.7C499.578 758.445 503.907 759.161 508.046 759.885C523.339 762.561 536.008 765.344 545.6 770.071C555.128 774.767 561.544 781.342 564.455 791.626C567.392 801.998 566.813 816.307 561.918 836.564C554.928 865.495 534.153 891.075 511.099 912.127C490.448 930.985 468.111 946.086 452.518 956.628ZM453.173 957.711C486.151 935.417 549.688 892.465 563.129 836.843C579.209 770.293 549.524 765.384 495.282 756.413C483.214 754.417 470.004 752.303 455.739 749.181C407.746 738.68 377.329 755.072 348.766 770.579C332.711 779.295 317.219 787.706 299.473 790.849C235.718 802.14 216.919 818.683 187.451 857.986C144.408 915.396 250.232 997.647 328.616 1014.8C375.74 1025.11 401.24 1001.92 424.902 980.409C432.589 973.419 440.081 966.606 448.058 961.176C449.664 960.083 451.373 958.928 453.173 957.711Z" fill="#BFE7A2"/>
<path d="M450.681 961.357L451.808 963.005L450.681 961.357ZM456.59 957.345L457.711 958.996L456.59 957.345ZM423.836 983.691L425.184 985.165L423.836 983.691ZM423.284 984.195L424.631 985.668L424.631 985.668L423.284 984.195ZM394.678 1007.91L393.545 1006.27L394.678 1007.91ZM313.773 1023.23L313.338 1025.18L313.773 1023.23ZM180.387 950.398L181.785 948.963L180.387 950.398ZM143.61 896.37L141.701 896.976L141.701 896.976L143.61 896.37ZM151.648 844.038L150.045 842.846L151.648 844.038ZM201.125 793.378L200.047 791.698L201.125 793.378ZM280.153 766.854L279.807 764.887L280.153 766.854ZM320.512 752.249L321.413 754.03L321.413 754.03L320.512 752.249ZM337.424 743.258L338.378 745.012L338.378 745.012L337.424 743.258ZM339.773 741.981L340.726 743.734L340.726 743.734L339.773 741.981ZM359.518 731.675L358.646 729.879L358.646 729.879L359.518 731.675ZM459.953 718.49L459.518 720.441L459.518 720.441L459.953 718.49ZM505.75 726.942L505.417 728.913L505.75 726.942ZM520.722 729.462L521.074 727.494L521.074 727.494L520.722 729.462ZM564.101 741.235L563.208 743.027L563.208 743.027L564.101 741.235ZM585.944 766.267L584.016 766.815L584.016 766.815L585.944 766.267ZM582.992 818.336L581.046 817.874L582.992 818.336ZM524.24 905.842L525.591 907.312L524.24 905.842ZM584.202 818.615L582.256 818.153L584.202 818.615ZM457.247 958.427L456.126 956.775L456.126 956.775L457.247 958.427ZM505.956 725.654L506.29 723.683L506.29 723.683L505.956 725.654ZM460.246 717.219L459.811 719.17L460.246 717.219ZM336.874 742.111L335.919 740.358L336.874 742.111ZM279.98 765.574L280.325 767.541L279.98 765.574ZM150.672 843.26L152.275 844.452L150.672 843.26ZM313.479 1024.5L313.914 1022.55L313.479 1024.5ZM424.609 984.686L423.262 983.213L424.609 984.686ZM451.343 962.437L452.469 964.084L451.343 962.437ZM447.398 960.096L446.273 958.447L447.398 960.096ZM452.518 956.628L451.398 954.975L452.518 956.628ZM424.13 979.413L425.475 980.887L424.13 979.413ZM423.647 979.852L424.993 981.326L424.993 981.326L423.647 979.852ZM398.886 1000.34L400.017 1001.98L398.886 1000.34ZM328.909 1013.53L328.474 1015.48L328.909 1013.53ZM213.364 950.526L211.968 951.962L213.364 950.526ZM181.513 903.854L179.604 904.463L181.513 903.854ZM188.427 858.764L190.028 859.958L188.427 858.764ZM231.234 815.013L232.31 816.694L231.234 815.013ZM299.645 792.129L299.988 794.096L299.645 792.129ZM334.659 779.498L335.558 781.28L334.659 779.498ZM349.317 771.726L350.269 773.48L350.269 773.48L349.317 771.726ZM351.349 770.623L352.301 772.378L351.349 770.623ZM368.449 761.721L367.579 759.925L368.449 761.721ZM455.373 750.371L455.808 748.419L455.373 750.371ZM495.075 757.7L494.742 759.671L495.075 757.7ZM508.046 759.885L508.398 757.917L508.046 759.885ZM545.6 770.071L546.492 768.28L545.6 770.071ZM564.455 791.626L562.528 792.175L564.455 791.626ZM561.918 836.564L559.972 836.101L561.918 836.564ZM511.099 912.127L509.749 910.656L511.099 912.127ZM563.129 836.843L561.182 836.381L563.129 836.843ZM453.173 957.711L452.054 956.058L453.173 957.711ZM495.282 756.413L494.948 758.384L495.282 756.413ZM455.739 749.181L456.174 747.23L455.739 749.181ZM348.766 770.579L349.718 772.333L348.766 770.579ZM299.473 790.849L299.129 788.882L299.473 790.849ZM187.451 857.986L185.85 856.792L187.451 857.986ZM328.616 1014.8L329.051 1012.85L328.616 1014.8ZM424.902 980.409L423.556 978.934L424.902 980.409ZM448.058 961.176L446.934 959.527L448.058 961.176ZM449.555 959.71C451.414 958.441 453.391 957.101 455.469 955.693L457.711 958.996C455.632 960.405 453.66 961.741 451.808 963.005L449.555 959.71ZM422.489 982.218C431.317 974.175 440.132 966.139 449.555 959.71L451.808 963.005C442.66 969.247 434.055 977.082 425.184 985.165L422.489 982.218ZM421.937 982.721L422.489 982.218L425.184 985.165L424.631 985.668L421.937 982.721ZM393.545 1006.27C403.714 999.273 412.859 990.991 421.937 982.721L424.631 985.668C415.579 993.915 406.239 1002.38 395.81 1009.55L393.545 1006.27ZM314.208 1021.28C349.225 1028.94 373.4 1020.12 393.545 1006.27L395.81 1009.55C374.911 1023.93 349.616 1033.12 313.338 1025.18L314.208 1021.28ZM181.785 948.963C216.986 983.103 269.589 1011.51 314.208 1021.28L313.338 1025.18C267.96 1015.25 214.699 986.465 178.989 951.832L181.785 948.963ZM145.52 895.763C151.163 913.61 164.185 931.893 181.785 948.963L178.989 951.832C161.132 934.514 147.617 915.687 141.701 896.976L145.52 895.763ZM153.251 845.23C141.569 860.836 139.925 878.067 145.52 895.763L141.701 896.976C135.777 878.24 137.48 859.632 150.045 842.846L153.251 845.23ZM202.204 795.057C183.856 806.821 170.22 822.559 153.251 845.23L150.045 842.846C167.066 820.107 181.058 803.873 200.047 791.698L202.204 795.057ZM280.498 768.82C243.891 775.333 220.554 783.292 202.204 795.057L200.047 791.698C219.04 779.52 242.972 771.44 279.807 764.887L280.498 768.82ZM321.413 754.03C308.484 760.577 295.181 766.208 280.498 768.82L279.807 764.887C293.928 762.375 306.826 756.942 319.611 750.468L321.413 754.03ZM338.378 745.012C332.729 748.086 327.09 751.156 321.413 754.03L319.611 750.468C325.224 747.626 330.811 744.585 336.469 741.505L338.378 745.012ZM340.726 743.734C339.943 744.16 339.16 744.586 338.378 745.012L336.469 741.505C337.251 741.08 338.035 740.653 338.819 740.227L340.726 743.734ZM360.39 733.47C353.678 736.732 347.182 740.225 340.726 743.734L338.819 740.227C345.278 736.716 351.845 733.185 358.646 729.879L360.39 733.47ZM459.518 720.441C417.181 711.178 387.099 720.491 360.39 733.47L358.646 729.879C385.879 716.645 416.902 707.023 460.388 716.538L459.518 720.441ZM505.417 728.913C491.488 726.611 476.067 724.062 459.518 720.441L460.388 716.538C476.822 720.134 492.147 722.667 506.084 724.971L505.417 728.913ZM520.37 731.43C515.602 730.596 510.615 729.772 505.417 728.913L506.084 724.971C511.278 725.829 516.284 726.656 521.074 727.494L520.37 731.43ZM563.208 743.027C552.406 737.696 538.031 734.518 520.37 731.43L521.074 727.494C538.704 730.576 553.612 733.828 564.993 739.444L563.208 743.027ZM584.016 766.815C580.825 755.502 573.83 748.268 563.208 743.027L564.993 739.444C576.427 745.086 584.318 753.125 587.871 765.72L584.016 766.815ZM581.046 817.874C586.681 794.552 587.275 778.365 584.016 766.815L587.871 765.72C591.407 778.255 590.629 795.246 584.938 818.798L581.046 817.874ZM522.889 904.371C549.412 880.103 573.086 850.813 581.046 817.874L584.938 818.798C576.699 852.896 552.321 882.853 525.591 907.312L522.889 904.371ZM455.469 955.693C473.476 943.492 499.159 926.085 522.889 904.371L525.591 907.312C501.616 929.249 475.703 946.805 457.711 958.996L455.469 955.693ZM586.148 819.077C578.244 851.791 555.696 880.622 530.547 904.416C505.376 928.231 477.394 947.187 458.368 960.079L456.126 956.775C475.169 943.872 502.894 925.082 527.797 901.521C552.723 877.937 574.618 849.76 582.256 818.153L586.148 819.077ZM506.29 723.683C521.906 726.264 535.893 728.573 547.734 731.794C559.572 735.013 569.482 739.195 576.847 745.652C591.806 758.766 595.479 780.463 586.148 819.077L582.256 818.153C591.521 779.81 587.364 760.199 574.199 748.658C567.502 742.787 558.275 738.805 546.669 735.649C535.066 732.493 521.301 730.216 505.623 727.625L506.29 723.683ZM460.681 715.267C477.083 718.856 492.362 721.381 506.29 723.683L505.623 727.625C491.703 725.325 476.328 722.784 459.811 719.17L460.681 715.267ZM335.919 740.358C368.935 722.388 404.537 702.983 460.681 715.267L459.811 719.17C405.203 707.222 370.752 725.944 337.828 743.864L335.919 740.358ZM279.635 763.607C299.74 760.03 317.339 750.471 335.919 740.358L337.828 743.864C319.346 753.924 301.181 763.83 280.325 767.541L279.635 763.607ZM149.069 842.068C166.108 819.304 180.219 802.907 199.416 790.599C218.614 778.29 242.732 770.172 279.635 763.607L280.325 767.541C243.651 774.065 220.128 782.061 201.573 793.958C183.017 805.855 169.263 821.757 152.275 844.452L149.069 842.068ZM313.044 1026.45C267.444 1016.47 213.987 987.577 178.123 952.795C160.19 935.403 146.518 916.406 140.514 897.417C134.482 878.339 136.202 859.259 149.069 842.068L152.275 844.452C140.29 860.463 138.63 878.165 144.333 896.203C150.064 914.329 163.242 932.782 180.919 949.926C216.274 984.215 269.073 1012.74 313.914 1022.55L313.044 1026.45ZM425.957 986.16C412.333 998.571 397.931 1011.71 380.045 1020.19C362.069 1028.71 340.662 1032.49 313.044 1026.45L313.914 1022.55C340.669 1028.4 361.169 1024.72 378.336 1016.58C395.592 1008.4 409.569 995.689 423.262 983.213L425.957 986.16ZM452.469 964.084C443.398 970.273 434.853 978.054 425.957 986.16L423.262 983.213C432.114 975.148 440.87 967.166 450.216 960.789L452.469 964.084ZM458.368 960.078C456.289 961.487 454.319 962.822 452.469 964.084L450.216 960.789C452.072 959.522 454.048 958.183 456.126 956.775L458.368 960.078ZM446.273 958.447C447.884 957.35 449.598 956.192 451.398 954.975L453.637 958.28C451.836 959.498 450.128 960.653 448.523 961.745L446.273 958.447ZM422.784 977.938C430.424 970.991 438.082 964.023 446.273 958.447L448.523 961.745C440.607 967.134 433.159 973.901 425.475 980.887L422.784 977.938ZM422.301 978.377L422.784 977.938L425.475 980.887L424.993 981.326L422.301 978.377ZM397.755 998.692C406.535 992.667 414.435 985.528 422.301 978.377L424.993 981.326C417.152 988.454 409.058 995.778 400.017 1001.98L397.755 998.692ZM329.344 1011.58C359.562 1018.19 380.388 1010.61 397.755 998.692L400.017 1001.98C381.895 1014.42 359.95 1022.37 328.474 1015.48L329.344 1011.58ZM214.761 949.089C245.226 978.577 290.753 1003.13 329.344 1011.58L328.474 1015.48C289.126 1006.87 242.941 981.942 211.968 951.962L214.761 949.089ZM183.423 903.246C188.29 918.587 199.528 934.345 214.761 949.089L211.968 951.962C196.478 936.969 184.746 920.668 179.604 904.463L183.423 903.246ZM190.028 859.958C180.014 873.314 178.603 888.056 183.423 903.246L179.604 904.463C174.455 888.232 175.925 872.109 186.825 857.571L190.028 859.958ZM232.31 816.694C216.487 826.815 204.718 840.365 190.028 859.958L186.825 857.571C201.565 837.91 213.692 823.864 230.157 813.332L232.31 816.694ZM299.988 794.096C268.292 799.709 248.137 806.571 232.31 816.694L230.157 813.332C246.627 802.798 267.377 795.816 299.301 790.162L299.988 794.096ZM335.558 781.28C324.341 786.946 312.771 791.832 299.988 794.096L299.301 790.162C311.522 787.997 322.687 783.309 333.759 777.717L335.558 781.28ZM350.269 773.48C345.375 776.137 340.483 778.793 335.558 781.28L333.759 777.717C338.622 775.261 343.461 772.634 348.364 769.972L350.269 773.48ZM352.301 772.378C351.623 772.745 350.946 773.112 350.269 773.48L348.364 769.972C349.041 769.604 349.719 769.236 350.398 768.868L352.301 772.378ZM369.319 763.518C363.514 766.331 357.894 769.345 352.301 772.378L350.398 768.868C355.994 765.834 361.684 762.782 367.579 759.925L369.319 763.518ZM454.938 752.322C418.366 744.32 392.401 752.331 369.319 763.518L367.579 759.925C391.185 748.483 418.089 740.166 455.808 748.419L454.938 752.322ZM494.742 759.671C482.67 757.675 469.293 755.463 454.938 752.322L455.808 748.419C470.048 751.535 483.329 753.732 495.409 755.73L494.742 759.671ZM507.694 761.853C503.565 761.131 499.246 760.416 494.742 759.671L495.409 755.73C499.91 756.474 504.248 757.191 508.398 757.917L507.694 761.853ZM544.709 771.863C535.406 767.278 523.003 764.531 507.694 761.853L508.398 757.917C523.676 760.59 536.611 763.41 546.492 768.28L544.709 771.863ZM562.528 792.175C559.799 782.533 553.832 776.359 544.709 771.863L546.492 768.28C556.425 773.175 563.289 780.152 566.382 791.077L562.528 792.175ZM559.972 836.101C564.839 815.96 565.325 802.054 562.528 792.175L566.382 791.077C569.458 801.942 568.787 816.654 563.865 837.026L559.972 836.101ZM509.749 910.656C532.7 889.698 553.122 864.452 559.972 836.101L563.865 837.026C556.734 866.537 535.606 892.452 512.448 913.599L509.749 910.656ZM451.398 954.975C466.999 944.428 489.221 929.402 509.749 910.656L512.448 913.599C491.675 932.568 469.223 947.744 453.637 958.28L451.398 954.975ZM565.075 837.305C558.221 865.671 538.649 890.642 516.851 911.224C495.03 931.828 470.773 948.223 454.293 959.363L452.054 956.058C468.552 944.905 492.552 928.677 514.104 908.326C535.679 887.953 554.596 863.637 561.182 836.381L565.075 837.305ZM495.616 754.442C509.146 756.68 521.282 758.685 531.56 761.479C541.835 764.272 550.469 767.906 556.899 773.532C569.988 784.985 573.148 803.893 565.075 837.305L561.182 836.381C569.189 803.243 565.547 786.422 554.253 776.54C548.492 771.498 540.539 768.064 530.496 765.334C520.455 762.605 508.539 760.632 494.948 758.384L495.616 754.442ZM456.174 747.23C470.378 750.338 483.534 752.444 495.616 754.442L494.948 758.384C482.895 756.391 469.629 754.267 455.304 751.133L456.174 747.23ZM347.813 768.825C376.427 753.291 407.417 736.562 456.174 747.23L455.304 751.133C408.075 740.799 378.23 756.854 349.718 772.333L347.813 768.825ZM299.129 788.882C316.501 785.805 331.709 777.568 347.813 768.825L349.718 772.333C333.713 781.023 317.938 789.606 299.817 792.816L299.129 788.882ZM185.85 856.792C200.609 837.107 212.854 822.897 229.528 812.232C246.202 801.567 267.138 794.548 299.129 788.882L299.817 792.816C268.053 798.441 247.712 805.339 231.681 815.594C215.649 825.848 203.761 839.562 189.053 859.179L185.85 856.792ZM328.181 1016.75C288.611 1008.09 242.23 983.054 211.102 952.925C195.537 937.86 183.648 921.389 178.418 904.904C173.16 888.332 174.646 871.736 185.85 856.792L189.053 859.179C178.736 872.941 177.308 888.155 182.236 903.687C187.192 919.308 198.587 935.236 213.895 950.053C244.515 979.69 290.238 1004.35 329.051 1012.85L328.181 1016.75ZM426.248 981.883C414.452 992.608 401.948 1004 386.41 1011.34C370.782 1018.73 352.173 1022 328.181 1016.75L329.051 1012.85C352.182 1017.91 369.885 1014.74 384.705 1007.73C399.613 1000.68 411.69 989.723 423.556 978.934L426.248 981.883ZM449.183 962.825C441.344 968.162 433.957 974.874 426.248 981.883L423.556 978.934C431.221 971.965 438.819 965.051 446.934 959.527L449.183 962.825ZM454.293 959.363C452.492 960.581 450.785 961.735 449.183 962.825L446.934 959.527C448.542 958.432 450.254 957.275 452.054 956.058L454.293 959.363Z" fill="#BFE7A2" mask="url(#path-2-inside-1_70_2607)"/>
<path d="M461.1 122.519C462.872 125.678 464.556 128.678 466.15 131.497C474.109 145.571 484.392 158.893 494.869 172.464L495.522 173.311C506.245 187.202 517.138 201.393 526.089 217.083C543.942 248.378 554.083 285.656 539.201 338.138C520.443 404.289 474.267 481.102 421.747 531.69C395.485 556.985 367.733 575.629 341.13 583.171C314.592 590.694 289.22 587.176 267.435 568.17C237.092 541.698 215.873 520.279 200.872 491.867C185.868 463.451 177.024 427.923 171.685 373.15C169.599 351.748 163.183 332.085 155.344 312.695C151.902 304.181 148.178 295.702 144.423 287.154C143.904 285.971 143.384 284.787 142.864 283.602C138.583 273.839 134.303 263.958 130.37 253.755C114.661 213.001 104.487 167.107 122.39 103.973C129.252 79.7748 134.484 57.1688 139.229 36.6705C140.998 29.0256 142.7 21.673 144.393 14.6423C150.64 -11.3041 156.764 -32.862 165.732 -49.0383C174.662 -65.1467 186.367 -75.8397 203.812 -80.189C221.352 -84.5619 244.867 -82.5678 277.476 -72.8314C324.217 -58.8752 363.677 -21.5036 395.353 19.3428C423.733 55.9396 445.748 95.165 461.095 122.511L461.1 122.519ZM461.832 122.098C445.599 93.1736 421.867 50.8868 391.028 12.4956C360.183 -25.9028 322.275 -60.3434 277.718 -73.6475C224.279 -89.6035 194.877 -84.923 176.13 -65.0233C166.727 -55.0426 159.956 -41.1889 154.203 -24.0415C148.45 -6.89518 143.731 13.4933 138.401 36.5204L138.4 36.5242C133.659 57.0075 128.438 79.5661 121.582 103.742C98.5791 184.862 121.769 237.672 143.654 287.501L143.67 287.536C155.964 315.528 167.865 342.624 170.849 373.238C176.192 428.057 185.051 463.713 200.13 492.271C215.208 520.827 236.527 542.331 266.884 568.816C288.915 588.036 314.589 591.577 341.352 583.99C368.141 576.396 396.01 557.65 422.324 532.305C474.95 481.615 521.207 404.671 540.009 338.369C551.299 298.555 548.251 267.426 538.37 241.036C528.48 214.624 511.739 192.932 495.571 171.988L495.558 171.972C485.066 158.38 474.812 145.097 466.88 131.071C465.287 128.254 463.604 125.255 461.832 122.098ZM459.651 128.509L459.659 128.524C461.188 131.255 462.64 133.848 464.015 136.286C470.898 148.489 479.792 160.035 488.843 171.785L489.413 172.525C498.681 184.558 508.088 196.84 515.815 210.418C531.22 237.49 539.962 269.737 527.079 315.17C510.83 372.47 470.871 439.027 425.442 482.869C402.726 504.792 378.739 520.94 355.765 527.478C332.858 533.997 310.981 530.967 292.201 514.556C265.974 491.636 247.654 473.105 234.709 448.524C221.762 423.939 214.134 393.185 209.545 345.735C207.749 327.166 202.202 310.113 195.429 293.308C192.454 285.928 189.236 278.579 185.992 271.173C185.544 270.15 185.096 269.125 184.647 268.1C180.949 259.643 177.253 251.086 173.858 242.251C160.301 206.97 151.534 167.247 167.036 112.579C172.985 91.6023 177.523 72.0033 181.638 54.2368C183.171 47.6129 184.647 41.2427 186.113 35.1529C191.53 12.6651 196.833 -5.99632 204.584 -19.9944C212.298 -33.9248 222.391 -43.1569 237.423 -46.92C252.549 -50.7066 272.848 -49.0016 301.036 -40.5853C341.401 -28.5329 375.482 3.79316 402.852 39.1611C427.371 70.8467 446.385 104.812 459.646 128.501L459.651 128.509ZM460.383 128.088C446.358 103.033 425.855 66.4074 399.205 33.1616C372.548 -0.0914315 339.79 -29.9023 301.278 -41.4014C255.072 -55.1977 229.674 -51.1177 213.476 -33.8932C205.348 -25.2499 199.489 -13.2523 194.506 1.60595C189.523 16.463 185.431 34.1293 180.81 54.0865C180.493 55.4542 180.175 56.832 179.854 58.2199C176.012 74.8434 171.837 92.9036 166.352 112.246C146.423 182.527 166.322 228.36 185.225 271.523L185.24 271.558C195.858 295.805 206.142 319.286 208.708 345.822C213.302 393.318 220.945 424.2 233.967 448.928C246.988 473.653 265.408 492.269 291.65 515.201C310.675 531.827 332.855 534.88 355.988 528.297C379.147 521.706 403.252 505.456 426.02 483.484C471.554 439.54 511.595 372.852 527.886 315.401C537.667 280.908 535.047 253.951 526.519 231.102C517.983 208.231 503.52 189.451 489.545 171.31L489.533 171.294C480.466 159.523 471.601 148.015 464.745 135.862C463.369 133.421 461.915 130.823 460.383 128.088Z" fill="#BFE7A2" stroke="#BFE7A2"/>
<mask id="path-5-inside-2_70_2607" fill="white">
<path fill-rule="evenodd" clip-rule="evenodd" d="M433.229 169.472C434.422 171.681 435.555 173.78 436.629 175.753C442.002 185.627 449.024 195.088 456.16 204.702L456.605 205.302C463.913 215.149 471.319 225.185 477.334 236.142C489.32 257.975 495.799 283.488 484.464 318.175C470.157 361.959 436.397 411.757 398.63 443.587C379.745 459.503 359.953 470.845 341.187 474.763C322.485 478.667 304.824 475.206 289.925 461.52C269.038 442.335 254.517 426.987 244.479 407.214C234.44 387.436 228.83 363.117 226.011 325.925C224.905 311.34 220.714 297.75 215.526 284.305C213.247 278.402 210.77 272.511 208.275 266.578C207.93 265.757 207.585 264.935 207.239 264.113C204.394 257.335 201.555 250.485 198.965 243.433C188.628 215.285 182.271 183.937 195.914 142.183C201.158 126.136 205.227 111.095 208.914 97.4634C210.29 92.379 211.612 87.4908 212.922 82.8196C217.761 65.5724 222.427 51.3266 228.985 40.8394C235.505 30.4127 243.849 23.7726 256.081 21.6157C268.403 19.4428 284.84 21.788 307.591 29.7722C340.129 41.1907 367.195 68.0657 388.767 97C408.091 122.92 422.898 150.341 433.229 169.472ZM434.372 168.927C412.523 128.464 370.429 50.5076 307.99 28.5962C233.286 2.38021 224.22 35.893 207.654 97.129C203.969 110.752 199.912 125.748 194.679 141.763C177.072 195.646 192.529 232.407 207.079 267.01C215.257 286.459 223.148 305.226 224.72 325.969C230.368 400.488 247.233 424 289.053 462.413C350.14 518.523 456.944 406.597 485.7 318.594C502.987 265.687 479.251 233.706 457.227 204.033C450.072 194.392 443.097 184.995 437.769 175.203C436.697 173.233 435.564 171.136 434.372 168.927Z"/>
<path fill-rule="evenodd" clip-rule="evenodd" d="M432.107 173.452C433.138 175.366 434.117 177.184 435.045 178.894C439.693 187.457 445.768 195.659 451.932 203.981L452.32 204.506C458.637 213.035 465.03 221.716 470.22 231.195C480.556 250.07 486.136 272.127 476.329 302.141C463.939 340.06 434.726 383.205 402.062 410.789C385.729 424.583 368.629 434.403 352.433 437.801C336.303 441.185 321.092 438.205 308.264 426.403C290.211 409.795 277.68 396.523 269.024 379.426C260.366 362.323 255.529 341.28 253.112 309.065C252.163 296.404 248.539 284.614 244.056 272.961C242.087 267.845 239.947 262.738 237.792 257.598C237.494 256.888 237.196 256.177 236.898 255.465C234.441 249.595 231.99 243.664 229.755 237.559C220.838 213.199 215.365 186.079 227.175 149.935C231.721 136.024 235.251 122.982 238.448 111.168C239.64 106.762 240.787 102.527 241.922 98.4817C246.117 83.5333 250.157 71.207 255.821 62.1374C261.449 53.1279 268.634 47.404 279.157 45.538C289.772 43.6559 303.951 45.6661 323.615 52.5668C351.699 62.4225 375.068 85.6569 393.704 110.705C410.396 133.142 423.182 156.881 432.107 173.452ZM433.251 172.908C414.375 137.862 378.008 70.339 324.014 51.3908C259.411 28.72 251.551 57.7635 237.188 110.833C233.993 122.64 230.564 135.572 226.029 149.452C210.77 196.151 224.03 228.058 236.596 258.032C243.658 274.879 250.473 291.136 251.822 309.108C256.665 373.673 271.24 394.036 307.391 427.295C360.198 475.876 452.642 378.83 477.564 302.561C492.547 256.708 472.033 229.011 453 203.313C446.816 194.964 440.789 186.826 436.186 178.345C435.26 176.638 434.281 174.822 433.251 172.908Z"/>
</mask>
<path fill-rule="evenodd" clip-rule="evenodd" d="M433.229 169.472C434.422 171.681 435.555 173.78 436.629 175.753C442.002 185.627 449.024 195.088 456.16 204.702L456.605 205.302C463.913 215.149 471.319 225.185 477.334 236.142C489.32 257.975 495.799 283.488 484.464 318.175C470.157 361.959 436.397 411.757 398.63 443.587C379.745 459.503 359.953 470.845 341.187 474.763C322.485 478.667 304.824 475.206 289.925 461.52C269.038 442.335 254.517 426.987 244.479 407.214C234.44 387.436 228.83 363.117 226.011 325.925C224.905 311.34 220.714 297.75 215.526 284.305C213.247 278.402 210.77 272.511 208.275 266.578C207.93 265.757 207.585 264.935 207.239 264.113C204.394 257.335 201.555 250.485 198.965 243.433C188.628 215.285 182.271 183.937 195.914 142.183C201.158 126.136 205.227 111.095 208.914 97.4634C210.29 92.379 211.612 87.4908 212.922 82.8196C217.761 65.5724 222.427 51.3266 228.985 40.8394C235.505 30.4127 243.849 23.7726 256.081 21.6157C268.403 19.4428 284.84 21.788 307.591 29.7722C340.129 41.1907 367.195 68.0657 388.767 97C408.091 122.92 422.898 150.341 433.229 169.472ZM434.372 168.927C412.523 128.464 370.429 50.5076 307.99 28.5962C233.286 2.38021 224.22 35.893 207.654 97.129C203.969 110.752 199.912 125.748 194.679 141.763C177.072 195.646 192.529 232.407 207.079 267.01C215.257 286.459 223.148 305.226 224.72 325.969C230.368 400.488 247.233 424 289.053 462.413C350.14 518.523 456.944 406.597 485.7 318.594C502.987 265.687 479.251 233.706 457.227 204.033C450.072 194.392 443.097 184.995 437.769 175.203C436.697 173.233 435.564 171.136 434.372 168.927Z" fill="#BFE7A2"/>
<path fill-rule="evenodd" clip-rule="evenodd" d="M432.107 173.452C433.138 175.366 434.117 177.184 435.045 178.894C439.693 187.457 445.768 195.659 451.932 203.981L452.32 204.506C458.637 213.035 465.03 221.716 470.22 231.195C480.556 250.07 486.136 272.127 476.329 302.141C463.939 340.06 434.726 383.205 402.062 410.789C385.729 424.583 368.629 434.403 352.433 437.801C336.303 441.185 321.092 438.205 308.264 426.403C290.211 409.795 277.68 396.523 269.024 379.426C260.366 362.323 255.529 341.28 253.112 309.065C252.163 296.404 248.539 284.614 244.056 272.961C242.087 267.845 239.947 262.738 237.792 257.598C237.494 256.888 237.196 256.177 236.898 255.465C234.441 249.595 231.99 243.664 229.755 237.559C220.838 213.199 215.365 186.079 227.175 149.935C231.721 136.024 235.251 122.982 238.448 111.168C239.64 106.762 240.787 102.527 241.922 98.4817C246.117 83.5333 250.157 71.207 255.821 62.1374C261.449 53.1279 268.634 47.404 279.157 45.538C289.772 43.6559 303.951 45.6661 323.615 52.5668C351.699 62.4225 375.068 85.6569 393.704 110.705C410.396 133.142 423.182 156.881 432.107 173.452ZM433.251 172.908C414.375 137.862 378.008 70.339 324.014 51.3908C259.411 28.72 251.551 57.7635 237.188 110.833C233.993 122.64 230.564 135.572 226.029 149.452C210.77 196.151 224.03 228.058 236.596 258.032C243.658 274.879 250.473 291.136 251.822 309.108C256.665 373.673 271.24 394.036 307.391 427.295C360.198 475.876 452.642 378.83 477.564 302.561C492.547 256.708 472.033 229.011 453 203.313C446.816 194.964 440.789 186.826 436.186 178.345C435.26 176.638 434.281 174.822 433.251 172.908Z" fill="#BFE7A2"/>
<path d="M436.629 175.753L438.382 174.798L436.629 175.753ZM433.229 169.472L434.985 168.522L433.229 169.472ZM456.16 204.702L457.76 203.509L456.16 204.702ZM456.605 205.302L458.206 204.109L458.206 204.109L456.605 205.302ZM477.334 236.142L475.585 237.104L477.334 236.142ZM484.464 318.175L486.362 318.803L484.464 318.175ZM398.63 443.587L397.342 442.052L398.63 443.587ZM341.187 474.763L341.599 476.724L341.599 476.724L341.187 474.763ZM289.925 461.52L288.578 462.995L289.925 461.52ZM244.479 407.214L242.7 408.118L244.479 407.214ZM226.011 325.925L224.019 326.072L226.011 325.925ZM215.526 284.305L217.388 283.587L217.388 283.587L215.526 284.305ZM208.275 266.578L210.115 265.804L210.115 265.804L208.275 266.578ZM207.239 264.113L209.08 263.34L209.08 263.34L207.239 264.113ZM198.965 243.433L197.091 244.121L197.091 244.121L198.965 243.433ZM195.914 142.183L197.812 142.811L197.812 142.811L195.914 142.183ZM208.914 97.4634L210.842 97.9928L208.914 97.4634ZM212.922 82.8196L211 82.2722L211 82.2722L212.922 82.8196ZM228.985 40.8394L230.678 41.9069L230.678 41.9069L228.985 40.8394ZM256.081 21.6157L256.432 23.5883L256.432 23.5883L256.081 21.6157ZM307.591 29.7722L306.936 31.6625L307.591 29.7722ZM388.767 97L390.365 95.8035L388.767 97ZM307.99 28.5962L307.335 30.4864L307.99 28.5962ZM434.372 168.927L432.616 169.877L432.616 169.877L434.372 168.927ZM207.654 97.129L205.727 96.5996L205.727 96.5996L207.654 97.129ZM194.679 141.763L196.577 142.392L194.679 141.763ZM207.079 267.01L205.239 267.784L207.079 267.01ZM224.72 325.969L226.711 325.823L224.72 325.969ZM289.053 462.413L290.4 460.938L289.053 462.413ZM485.7 318.594L483.802 317.966L485.7 318.594ZM457.227 204.033L455.626 205.226L457.227 204.033ZM437.769 175.203L439.522 174.248L437.769 175.203ZM435.045 178.894L433.292 179.847L435.045 178.894ZM432.107 173.452L430.351 174.4L432.107 173.452ZM451.932 203.981L453.534 202.79L451.932 203.981ZM452.32 204.506L453.922 203.314L453.922 203.314L452.32 204.506ZM470.22 231.195L471.97 230.234L470.22 231.195ZM476.329 302.141L478.227 302.77L476.329 302.141ZM402.062 410.789L403.351 412.323L402.062 410.789ZM352.433 437.801L352.848 439.761L352.433 437.801ZM308.264 426.403L309.611 424.929L308.264 426.403ZM269.024 379.426L270.804 378.523L269.024 379.426ZM253.112 309.065L255.104 308.92L253.112 309.065ZM244.056 272.961L245.919 272.245L244.056 272.961ZM237.792 257.598L239.632 256.826L239.632 256.826L237.792 257.598ZM236.898 255.465L238.739 254.694L236.898 255.465ZM229.755 237.559L227.881 238.245L229.755 237.559ZM227.175 149.935L225.277 149.307L227.175 149.935ZM238.448 111.168L240.376 111.697L238.448 111.168ZM241.922 98.4817L239.999 97.9341L241.922 98.4817ZM255.821 62.1374L254.128 61.0708L255.821 62.1374ZM279.157 45.538L279.51 47.5103L279.157 45.538ZM323.615 52.5668L322.96 54.457L323.615 52.5668ZM393.704 110.705L392.104 111.9L393.704 110.705ZM324.014 51.3908L323.359 53.281L324.014 51.3908ZM433.251 172.908L431.494 173.856L433.251 172.908ZM237.188 110.833L239.116 111.363L237.188 110.833ZM226.029 149.452L224.131 148.823L226.029 149.452ZM236.596 258.032L238.436 257.26L236.596 258.032ZM251.822 309.108L249.83 309.252L251.822 309.108ZM307.391 427.295L306.043 428.769L307.391 427.295ZM477.564 302.561L475.666 301.932L477.564 302.561ZM453 203.313L451.398 204.504L453 203.313ZM436.186 178.345L434.432 179.299L436.186 178.345ZM434.877 176.709C433.801 174.732 432.666 172.631 431.473 170.422L434.985 168.522C436.178 170.732 437.31 172.828 438.382 174.798L434.877 176.709ZM454.559 205.895C447.441 196.305 440.329 186.729 434.877 176.709L438.382 174.798C443.675 184.525 450.608 193.872 457.76 203.509L454.559 205.895ZM455.004 206.495L454.559 205.895L457.76 203.509L458.206 204.109L455.004 206.495ZM475.585 237.104C469.646 226.285 462.322 216.356 455.004 206.495L458.206 204.109C465.503 213.942 472.992 224.084 479.083 235.179L475.585 237.104ZM482.566 317.546C493.7 283.473 487.351 258.536 475.585 237.104L479.083 235.179C491.289 257.414 497.897 283.503 486.362 318.803L482.566 317.546ZM397.342 442.052C434.839 410.451 468.38 360.961 482.566 317.546L486.362 318.803C471.935 362.957 437.955 413.064 399.917 445.122L397.342 442.052ZM340.775 472.802C359.098 468.977 378.594 457.853 397.342 442.052L399.917 445.122C380.895 461.153 360.809 472.713 341.599 476.724L340.775 472.802ZM291.271 460.045C305.628 473.232 322.607 476.595 340.775 472.802L341.599 476.724C322.364 480.74 304.02 477.179 288.578 462.995L291.271 460.045ZM246.259 406.309C256.124 425.743 270.416 440.888 291.271 460.045L288.578 462.995C267.659 443.781 252.91 428.232 242.7 408.118L246.259 406.309ZM228.002 325.779C230.812 362.855 236.392 386.872 246.259 406.309L242.7 408.118C232.488 388 226.847 363.379 224.019 326.072L228.002 325.779ZM217.388 283.587C222.606 297.107 226.875 310.908 228.002 325.779L224.019 326.072C222.935 311.771 218.823 298.393 213.663 285.024L217.388 283.587ZM210.115 265.804C212.608 271.733 215.097 277.651 217.388 283.587L213.663 285.024C211.398 279.153 208.933 273.29 206.436 267.351L210.115 265.804ZM209.08 263.34C209.425 264.162 209.77 264.983 210.115 265.804L206.436 267.351C206.09 266.531 205.745 265.709 205.399 264.885L209.08 263.34ZM200.839 242.746C203.411 249.751 206.235 256.564 209.08 263.34L205.399 264.885C202.553 258.107 199.698 251.219 197.091 244.121L200.839 242.746ZM197.812 142.811C184.351 184.006 190.602 214.871 200.839 242.746L197.091 244.121C186.653 215.699 180.19 183.868 194.016 141.554L197.812 142.811ZM210.842 97.9928C207.155 111.62 203.074 126.709 197.812 142.811L194.016 141.554C199.241 125.564 203.298 110.57 206.987 96.934L210.842 97.9928ZM214.845 83.367C213.538 88.0276 212.218 92.9065 210.842 97.9928L206.987 96.934C208.362 91.8515 209.686 86.954 211 82.2722L214.845 83.367ZM230.678 41.9069C224.291 52.1206 219.688 66.1046 214.845 83.367L211 82.2722C215.834 65.0403 220.564 50.5326 227.293 39.772L230.678 41.9069ZM256.432 23.5883C244.857 25.6294 236.958 31.8639 230.678 41.9069L227.293 39.772C234.053 28.9615 242.842 21.9157 255.73 19.6431L256.432 23.5883ZM306.936 31.6625C284.296 23.7175 268.251 21.5042 256.432 23.5883L255.73 19.6431C268.556 17.3813 285.383 19.8585 308.246 27.882L306.936 31.6625ZM387.168 98.1964C365.681 69.3752 338.912 42.8836 306.936 31.6625L308.246 27.882C341.346 39.4977 368.709 66.7562 390.365 95.8035L387.168 98.1964ZM431.473 170.422C421.139 151.283 406.394 123.984 387.168 98.1964L390.365 95.8035C409.789 121.856 424.658 149.399 434.985 168.522L431.473 170.422ZM308.645 26.706C340.402 37.8502 366.828 63.1749 387.98 90.5817C409.153 118.014 425.208 147.755 436.127 167.977L432.616 169.877C421.687 149.636 405.771 120.168 384.824 93.028C363.858 65.8629 338.017 41.2536 307.335 30.4864L308.645 26.706ZM205.727 96.5996C209.86 81.3206 213.56 67.6358 217.95 56.1773C222.34 44.7212 227.495 35.2809 234.658 28.5998C249.205 15.0309 271.161 13.5517 308.645 26.706L307.335 30.4864C270.115 17.4247 250.186 19.594 237.382 31.5364C230.87 37.6111 225.983 46.3922 221.679 57.6232C217.377 68.8517 213.731 82.3194 209.582 97.6584L205.727 96.5996ZM192.781 141.135C197.996 125.175 202.04 110.227 205.727 96.5996L209.582 97.6584C205.897 111.278 201.828 126.321 196.577 142.392L192.781 141.135ZM205.239 267.784C190.669 233.133 174.93 195.765 192.781 141.135L196.577 142.392C179.215 195.527 194.389 231.681 208.919 266.236L205.239 267.784ZM222.729 326.115C221.185 305.752 213.439 287.285 205.239 267.784L208.919 266.236C217.075 285.634 225.111 304.7 226.711 325.823L222.729 326.115ZM287.706 463.888C266.765 444.653 251.865 428.969 241.543 408.635C231.22 388.301 225.561 363.491 222.729 326.115L226.711 325.823C229.527 362.966 235.124 387.172 245.101 406.826C255.079 426.481 269.521 441.76 290.4 460.938L287.706 463.888ZM487.598 319.222C473.099 363.593 438.99 413.884 400.788 446.081C381.685 462.18 361.414 473.879 341.918 477.949C322.332 482.038 303.521 478.414 287.706 463.888L290.4 460.938C305.129 474.467 322.575 477.894 341.094 474.027C359.703 470.142 379.384 458.88 398.213 443.011C435.874 411.271 469.545 361.598 483.802 317.966L487.598 319.222ZM458.828 202.84C469.812 217.638 481.443 233.286 488.086 251.932C494.762 270.671 496.379 292.349 487.598 319.222L483.802 317.966C492.308 291.932 490.701 271.167 484.325 253.27C477.915 235.281 466.666 220.1 455.626 205.226L458.828 202.84ZM439.522 174.248C444.77 183.893 451.655 193.175 458.828 202.84L455.626 205.226C448.489 195.609 441.425 186.097 436.017 176.159L439.522 174.248ZM436.127 167.977C437.32 170.186 438.451 172.281 439.522 174.248L436.017 176.159C434.943 174.185 433.809 172.085 432.616 169.877L436.127 167.977ZM433.292 179.847C432.362 178.134 431.381 176.313 430.351 174.4L433.864 172.504C434.895 174.419 435.873 176.234 436.799 177.94L433.292 179.847ZM450.33 205.173C444.183 196.874 438.019 188.557 433.292 179.847L436.799 177.94C441.367 186.356 447.353 194.444 453.534 202.79L450.33 205.173ZM450.718 205.697L450.33 205.173L453.534 202.79L453.922 203.314L450.718 205.697ZM468.47 232.155C463.356 222.815 457.045 214.24 450.718 205.697L453.922 203.314C460.229 211.83 466.704 220.617 471.97 230.234L468.47 232.155ZM474.431 301.513C484.038 272.111 478.586 250.629 468.47 232.155L471.97 230.234C482.526 249.512 488.234 272.143 478.227 302.77L474.431 301.513ZM400.774 409.256C433.167 381.9 462.161 339.063 474.431 301.513L478.227 302.77C465.716 341.057 436.285 384.51 403.351 412.323L400.774 409.256ZM352.019 435.841C367.771 432.536 384.577 422.934 400.774 409.256L403.351 412.323C386.882 426.231 369.487 436.27 352.848 439.761L352.019 435.841ZM309.611 424.929C321.897 436.231 336.423 439.113 352.019 435.841L352.848 439.761C336.182 443.258 320.288 440.179 306.916 427.877L309.611 424.929ZM270.804 378.523C279.288 395.281 291.59 408.349 309.611 424.929L306.916 427.877C288.832 411.24 276.072 397.766 267.244 380.328L270.804 378.523ZM255.104 308.92C257.512 341.02 262.318 361.761 270.804 378.523L267.244 380.328C258.413 362.886 253.546 341.54 251.121 309.21L255.104 308.92ZM245.919 272.245C250.431 283.974 254.133 295.975 255.104 308.92L251.121 309.21C250.192 296.834 246.647 285.255 242.193 273.678L245.919 272.245ZM239.632 256.826C241.785 261.962 243.938 267.096 245.919 272.245L242.193 273.678C240.237 268.594 238.108 263.515 235.951 258.37L239.632 256.826ZM238.739 254.694C239.037 255.405 239.335 256.116 239.632 256.826L235.951 258.37C235.653 257.66 235.355 256.948 235.057 256.236L238.739 254.694ZM231.63 236.874C233.847 242.931 236.283 248.826 238.739 254.694L235.057 256.236C232.599 250.364 230.132 244.396 227.881 238.245L231.63 236.874ZM229.073 150.563C217.445 186.15 222.813 212.787 231.63 236.874L227.881 238.245C218.863 213.611 213.285 186.008 225.277 149.307L229.073 150.563ZM240.376 111.697C237.179 123.508 233.637 136.596 229.073 150.563L225.277 149.307C229.805 135.451 233.322 122.457 236.521 110.638L240.376 111.697ZM243.845 99.0292C242.712 103.064 241.569 107.29 240.376 111.697L236.521 110.638C237.712 106.234 238.861 101.99 239.999 97.9341L243.845 99.0292ZM257.515 63.2039C252.02 72.0006 248.044 84.0656 243.845 99.0292L239.999 97.9341C244.19 83.001 248.293 70.4134 254.128 61.0708L257.515 63.2039ZM279.51 47.5103C269.644 49.2598 262.903 54.5773 257.515 63.2039L254.128 61.0708C259.995 51.6785 267.624 45.5482 278.804 43.5657L279.51 47.5103ZM322.96 54.457C303.408 47.5958 289.62 45.7176 279.51 47.5103L278.804 43.5657C289.923 41.5942 304.493 43.7365 324.27 50.6766L322.96 54.457ZM392.104 111.9C373.553 86.9647 350.481 64.115 322.96 54.457L324.27 50.6766C352.918 60.7299 376.584 84.3491 395.303 109.511L392.104 111.9ZM430.351 174.4C421.421 157.821 408.698 134.204 392.104 111.9L395.303 109.511C412.094 132.08 424.943 155.941 433.864 172.504L430.351 174.4ZM324.669 49.5006C352.204 59.1636 375.088 81.1402 393.381 104.891C411.694 128.667 425.575 154.446 435.007 171.96L431.494 173.856C422.051 156.323 408.31 130.818 390.223 107.334C372.115 83.825 349.818 62.5662 323.359 53.281L324.669 49.5006ZM235.261 110.304C238.843 97.0661 242.055 85.192 245.865 75.2457C249.674 65.302 254.155 57.0756 260.397 51.2423C273.104 39.3673 292.234 38.1183 324.669 49.5006L323.359 53.281C291.191 41.9924 274.089 43.9298 263.125 54.1763C257.531 59.4037 253.317 66.9718 249.594 76.6912C245.872 86.408 242.714 98.0654 239.116 111.363L235.261 110.304ZM224.131 148.823C228.647 135.002 232.061 122.124 235.261 110.304L239.116 111.363C235.924 123.155 232.482 136.141 227.927 150.08L224.131 148.823ZM234.755 258.803C222.167 228.776 208.629 196.266 224.131 148.823L227.927 150.08C212.911 196.036 225.893 227.339 238.436 257.26L234.755 258.803ZM249.83 309.252C248.51 291.66 241.839 275.702 234.755 258.803L238.436 257.26C245.478 274.056 252.437 290.612 253.813 308.963L249.83 309.252ZM306.043 428.769C287.936 412.111 275.026 398.503 266.086 380.844C257.146 363.185 252.261 341.651 249.83 309.252L253.813 308.963C256.226 341.13 261.051 362.06 269.646 379.039C278.242 396.018 290.695 409.22 308.739 425.821L306.043 428.769ZM479.462 303.189C466.881 341.692 437.321 385.33 404.223 413.281C387.673 427.257 370.093 437.435 353.168 440.986C336.152 444.557 319.788 441.415 306.043 428.769L308.739 425.821C321.397 437.466 336.392 440.411 352.34 437.066C368.378 433.701 385.368 423.96 401.645 410.214C434.202 382.719 463.326 339.699 475.666 301.932L479.462 303.189ZM454.602 202.122C464.091 214.933 474.168 228.515 479.919 244.712C485.704 261.001 487.09 279.844 479.462 303.189L475.666 301.932C483.021 279.425 481.642 261.493 476.157 246.046C470.639 230.507 460.943 217.391 451.398 204.504L454.602 202.122ZM437.939 177.391C442.463 185.726 448.401 193.749 454.602 202.122L451.398 204.504C445.232 196.179 439.115 187.926 434.432 179.299L437.939 177.391ZM435.007 171.96C436.038 173.874 437.015 175.688 437.939 177.391L434.432 179.299C433.504 177.589 432.524 175.769 431.494 173.856L435.007 171.96Z" fill="#BFE7A2" mask="url(#path-5-inside-2_70_2607)"/>
</svg>
