<svg width="548" height="411" viewBox="0 0 548 411" fill="none" xmlns="http://www.w3.org/2000/svg">
<g style="mix-blend-mode:screen" opacity="0.7">
<path d="M424.537 314.217C421.484 316.166 418.584 318.016 415.86 319.768C402.258 328.51 389.54 339.53 376.583 350.758L375.775 351.459C362.512 362.95 348.96 374.628 333.802 384.452C303.567 404.048 266.922 416.281 213.682 404.392C146.576 389.406 67.274 347.65 13.7958 298.076C-12.9446 273.287 -33.1289 246.635 -42.1638 220.501C-51.1763 194.431 -49.0994 168.9 -31.3561 146.075C-6.64345 114.283 13.5416 91.8863 41.0593 75.3015C68.5809 58.7143 103.552 47.8744 157.935 39.4457C179.184 36.1523 198.453 28.6339 217.369 19.7102C225.674 15.792 233.928 11.5944 242.251 7.36217C243.402 6.77678 244.555 6.19076 245.708 5.60479C255.214 0.777701 264.837 -4.05453 274.801 -8.55852C314.601 -26.5479 359.846 -39.3016 423.892 -24.9992C448.439 -19.5173 471.305 -15.5721 492.039 -11.9949C499.772 -10.6608 507.209 -9.37766 514.324 -8.08532C540.582 -3.316 562.452 1.57873 579.11 9.61702C595.698 17.6215 607.036 28.7026 612.365 45.8742C617.723 63.1387 617.063 86.7285 609.187 119.836C597.897 167.292 562.818 208.802 523.829 242.739C488.897 273.144 450.98 297.342 424.546 314.212L424.537 314.217ZM425 314.924C452.959 297.082 493.835 270.995 530.42 238.033C567.012 205.065 599.253 165.27 610.015 120.031C622.922 65.7752 616.586 36.6853 595.658 19.0936C585.161 10.2705 570.946 4.29458 553.501 -0.479138C536.057 -5.25255 515.434 -8.81112 492.142 -12.8296L492.138 -12.8303C471.419 -16.4049 448.602 -20.3417 424.076 -25.8186C341.785 -44.1956 290.371 -18.055 241.861 6.61413L241.827 6.63141C214.575 20.4897 188.195 33.9047 157.8 38.6156C103.37 47.0516 68.2732 57.9137 40.6137 74.584C12.9561 91.2531 -7.30715 113.754 -32.032 145.562C-49.975 168.644 -52.0584 194.478 -42.9692 220.769C-33.8715 247.085 -13.5788 273.85 13.2145 298.687C66.7998 348.361 146.238 390.191 213.498 405.212C253.886 414.231 284.793 409.427 310.582 398.069C336.392 386.701 357.102 368.759 377.098 351.432L377.114 351.418C390.09 340.174 402.772 329.185 416.326 320.472C419.048 318.723 421.947 316.873 425 314.924ZM418.475 313.11L418.46 313.119C415.821 314.8 413.313 316.396 410.957 317.907C399.164 325.469 388.139 335.002 376.92 344.704L376.213 345.315C364.724 355.249 352.994 365.335 339.875 373.818C313.718 390.73 282.016 401.282 235.928 390.99C177.8 378.009 109.089 341.879 62.7471 299.003C39.5748 277.564 22.0953 254.529 14.2681 231.961C6.46357 209.46 8.25116 187.446 23.5734 167.769C44.9723 140.287 62.4376 120.947 86.2467 106.633C110.06 92.316 140.333 82.9597 187.447 75.6935C205.885 72.8499 222.597 66.3472 238.992 58.634C246.192 55.2469 253.347 51.618 260.558 47.9605C261.554 47.4552 262.551 46.9495 263.55 46.4438C271.784 42.2729 280.118 38.0992 288.747 34.2097C323.205 18.6783 362.368 7.67796 417.826 20.0626C439.105 24.8147 458.929 28.2373 476.9 31.3398C483.6 32.4965 490.044 33.6089 496.207 34.7288C518.965 38.8645 537.896 43.1033 552.311 50.0503C566.655 56.9636 576.443 66.5179 581.051 81.3128C585.687 96.2002 585.133 116.564 578.325 145.182C568.576 186.165 538.23 222.02 504.467 251.347C474.219 277.62 441.383 298.525 418.482 313.105L418.475 313.11ZM418.937 313.817C443.159 298.397 478.565 275.855 510.25 247.366C541.942 218.871 569.852 184.479 579.154 145.378C590.314 98.4654 584.803 73.3391 566.69 58.1417C557.601 50.5157 545.291 45.3447 530.175 41.21C515.059 37.0756 497.19 33.9901 477.003 30.5051C475.62 30.2662 474.226 30.0262 472.823 29.7845C456.008 26.8887 437.741 23.7427 418.119 19.3609C346.823 3.43933 302.189 25.8997 260.165 47.2139L260.13 47.2312C236.524 59.2042 213.661 70.7997 187.313 74.8634C140.153 82.1368 109.753 91.5151 85.8019 105.915C61.8528 120.314 44.3091 139.758 22.8978 167.255C7.37532 187.19 5.58148 209.507 13.4631 232.231C21.3532 254.98 38.9413 278.127 62.1664 299.615C108.615 342.59 177.462 378.794 235.743 391.809C270.734 399.623 297.5 395.482 319.83 385.675C342.181 375.858 360.112 360.357 377.434 345.378L377.45 345.364C388.689 335.646 399.677 326.144 411.423 318.612C413.773 317.105 416.275 315.512 418.908 313.835L418.937 313.817Z" fill="#FFF1C2"/>
<path d="M424.537 314.217C421.484 316.166 418.584 318.016 415.86 319.768C402.258 328.51 389.54 339.53 376.583 350.758L375.775 351.459C362.512 362.95 348.96 374.628 333.802 384.452C303.567 404.048 266.922 416.281 213.682 404.392C146.576 389.406 67.274 347.65 13.7958 298.076C-12.9446 273.287 -33.1289 246.635 -42.1638 220.501C-51.1763 194.431 -49.0994 168.9 -31.3561 146.075C-6.64345 114.283 13.5416 91.8863 41.0593 75.3015C68.5809 58.7143 103.552 47.8744 157.935 39.4457C179.184 36.1523 198.453 28.6339 217.369 19.7102C225.674 15.792 233.928 11.5944 242.251 7.36217C243.402 6.77678 244.555 6.19076 245.708 5.60479C255.214 0.777701 264.837 -4.05453 274.801 -8.55852C314.601 -26.5479 359.846 -39.3016 423.892 -24.9992C448.439 -19.5173 471.305 -15.5721 492.039 -11.9949C499.772 -10.6608 507.209 -9.37766 514.324 -8.08532C540.582 -3.316 562.452 1.57873 579.11 9.61702C595.698 17.6215 607.036 28.7026 612.365 45.8742C617.723 63.1387 617.063 86.7285 609.187 119.836C597.897 167.292 562.818 208.802 523.829 242.739C488.897 273.144 450.98 297.342 424.546 314.212L424.537 314.217ZM425 314.924C452.959 297.082 493.835 270.995 530.42 238.033C567.012 205.065 599.253 165.27 610.015 120.031C622.922 65.7752 616.586 36.6853 595.658 19.0936C585.161 10.2705 570.946 4.29458 553.501 -0.479138C536.057 -5.25255 515.434 -8.81112 492.142 -12.8296L492.138 -12.8303C471.419 -16.4049 448.602 -20.3417 424.076 -25.8186C341.785 -44.1956 290.371 -18.055 241.861 6.61413L241.827 6.63141C214.575 20.4897 188.195 33.9047 157.8 38.6156C103.37 47.0516 68.2732 57.9137 40.6137 74.584C12.9561 91.2531 -7.30715 113.754 -32.032 145.562C-49.975 168.644 -52.0584 194.478 -42.9692 220.769C-33.8715 247.085 -13.5788 273.85 13.2145 298.687C66.7998 348.361 146.238 390.191 213.498 405.212C253.886 414.231 284.793 409.427 310.582 398.069C336.392 386.701 357.102 368.759 377.098 351.432L377.114 351.418C390.09 340.174 402.772 329.185 416.326 320.472C419.048 318.723 421.947 316.873 425 314.924ZM418.475 313.11L418.46 313.119C415.821 314.8 413.313 316.396 410.957 317.907C399.164 325.469 388.139 335.002 376.92 344.704L376.213 345.315C364.724 355.249 352.994 365.335 339.875 373.818C313.718 390.73 282.016 401.282 235.928 390.99C177.8 378.009 109.089 341.879 62.7471 299.003C39.5748 277.564 22.0953 254.529 14.2681 231.961C6.46357 209.46 8.25116 187.446 23.5734 167.769C44.9723 140.287 62.4376 120.947 86.2467 106.633C110.06 92.316 140.333 82.9597 187.447 75.6935C205.885 72.8499 222.597 66.3472 238.992 58.634C246.192 55.2469 253.347 51.618 260.558 47.9605C261.554 47.4552 262.551 46.9495 263.55 46.4438C271.784 42.2729 280.118 38.0992 288.747 34.2097C323.205 18.6783 362.368 7.67796 417.826 20.0626C439.105 24.8147 458.929 28.2373 476.9 31.3398C483.6 32.4965 490.044 33.6089 496.207 34.7288C518.965 38.8645 537.896 43.1033 552.311 50.0503C566.655 56.9636 576.443 66.5179 581.051 81.3128C585.687 96.2002 585.133 116.564 578.325 145.182C568.576 186.165 538.23 222.02 504.467 251.347C474.219 277.62 441.383 298.525 418.482 313.105L418.475 313.11ZM418.937 313.817C443.159 298.397 478.565 275.855 510.25 247.366C541.942 218.871 569.852 184.479 579.154 145.378C590.314 98.4654 584.803 73.3391 566.69 58.1417C557.601 50.5157 545.291 45.3447 530.175 41.21C515.059 37.0756 497.19 33.9901 477.003 30.5051C475.62 30.2662 474.226 30.0262 472.823 29.7845C456.008 26.8887 437.741 23.7427 418.119 19.3609C346.823 3.43933 302.189 25.8997 260.165 47.2139L260.13 47.2312C236.524 59.2042 213.661 70.7997 187.313 74.8634C140.153 82.1368 109.753 91.5151 85.8019 105.915C61.8528 120.314 44.3091 139.758 22.8978 167.255C7.37532 187.19 5.58148 209.507 13.4631 232.231C21.3532 254.98 38.9413 278.127 62.1664 299.615C108.615 342.59 177.462 378.794 235.743 391.809C270.734 399.623 297.5 395.482 319.83 385.675C342.181 375.858 360.112 360.357 377.434 345.378L377.45 345.364C388.689 335.646 399.677 326.144 411.423 318.612C413.773 317.105 416.275 315.512 418.908 313.835L418.937 313.817Z" stroke="white"/>
</g>
<g style="mix-blend-mode:screen" opacity="0.7">
<path d="M386.683 287.71C384.604 289.119 382.63 290.456 380.776 291.722C371.525 298.034 362.841 305.944 353.986 314.012L353.434 314.515C344.372 322.771 335.105 331.168 324.773 338.274C304.157 352.453 279.282 361.503 243.477 353.669C198.384 343.802 145.37 315.157 109.851 280.709C92.0894 263.483 78.7592 244.861 72.9457 226.474C67.1451 208.128 68.8263 190.036 81.0598 173.692C98.0612 150.979 111.92 134.931 130.668 122.91C149.42 110.887 173.129 102.852 209.879 96.3144C224.21 93.7648 237.26 88.2575 250.099 81.7563C255.737 78.9018 261.343 75.8504 266.998 72.7726C267.78 72.3469 268.563 71.9207 269.347 71.4945C275.805 67.9841 282.345 64.4674 289.113 61.1784C316.149 48.0395 346.819 38.5337 389.874 47.9544C406.351 51.5597 421.713 54.0985 435.646 56.4012C440.842 57.2599 445.841 58.086 450.623 58.9221C468.264 62.0067 482.973 65.2307 494.137 70.74C505.266 76.232 512.821 83.969 516.238 96.0829C519.67 108.249 518.962 124.938 513.291 148.404C505.157 182.067 481.043 211.775 454.39 236.162C430.511 258.012 404.688 275.51 386.691 287.705L386.683 287.71ZM386.78 287.966C405.816 275.068 433.637 256.216 458.641 232.559C483.651 208.896 505.791 180.474 513.528 148.452C522.818 110.008 518.843 89.6142 505.005 77.4829C498.057 71.3923 488.574 67.3352 476.881 64.1554C465.189 60.9758 451.34 58.6866 435.686 56.0994L435.682 56.0987C421.759 53.7978 406.422 51.2631 389.95 47.659C334.766 35.5844 299.883 54.5632 266.925 72.5019L266.889 72.5213C248.383 82.594 230.44 92.36 209.879 96.0179C173.119 102.558 149.373 110.599 130.577 122.65C111.781 134.702 97.8927 150.789 80.8854 173.511C68.5698 189.964 66.8871 208.183 72.7135 226.611C78.5469 245.061 91.9104 263.717 109.683 280.954C145.229 315.428 198.274 344.09 243.401 353.964C270.479 359.889 291.319 356.17 308.789 347.889C326.282 339.596 340.418 326.722 354.085 314.27L354.1 314.257C362.964 306.181 371.636 298.28 380.874 291.977C382.728 290.712 384.701 289.375 386.78 287.966ZM382.61 286.993L382.597 287.002C380.801 288.217 379.095 289.37 377.492 290.461C369.472 295.92 361.946 302.762 354.279 309.734L353.796 310.173C345.946 317.309 337.925 324.564 328.982 330.7C311.143 342.941 289.617 350.751 258.613 343.967C219.549 335.419 173.611 310.632 142.828 280.837C127.435 265.938 115.888 249.84 110.849 233.959C105.823 218.118 107.271 202.513 117.839 188.418C132.56 168.783 144.553 154.923 160.777 144.545C177.006 134.165 197.533 127.228 229.372 121.589C241.803 119.388 253.12 114.625 264.247 109.005C269.133 106.538 273.992 103.9 278.891 101.24C279.568 100.872 280.246 100.504 280.924 100.137C286.519 97.1032 292.183 94.0652 298.044 91.2245C321.454 79.8784 348.006 71.6761 385.295 79.8352C399.577 82.9603 412.895 85.1629 424.972 87.1601L424.973 87.1604C429.475 87.9049 433.805 88.621 437.946 89.3456C453.236 92.0205 465.972 94.813 475.636 99.5757C485.265 104.321 491.793 110.997 494.75 121.441C497.721 131.936 497.119 146.346 492.218 166.632C485.192 195.708 464.329 221.372 441.249 242.448C420.571 261.33 398.209 276.448 382.618 286.988L382.61 286.993ZM382.706 287.25C399.198 276.102 423.294 259.811 444.947 239.365C466.606 218.914 485.768 194.352 492.455 166.68C500.487 133.439 497.025 115.835 485.058 105.364C479.046 100.104 470.838 96.5943 460.707 93.8406C450.577 91.087 438.579 89.1022 425.011 86.8583C424.081 86.7046 423.145 86.5501 422.201 86.3944C410.903 84.5309 398.622 82.5054 385.443 79.6217C337.641 69.1623 307.367 85.4702 278.816 100.97L278.781 100.99C262.751 109.692 247.198 118.136 229.372 121.293C197.523 126.934 176.959 133.877 160.686 144.285C144.414 154.694 132.392 168.593 117.665 188.237C107.015 202.441 105.565 218.174 110.617 234.096C115.675 250.04 127.256 266.172 142.66 281.082C173.47 310.904 219.44 335.708 258.537 344.262C281.992 349.394 300.034 346.188 315.157 339.039C330.301 331.879 342.539 320.757 354.378 309.992L354.393 309.979C362.069 302.999 369.584 296.166 377.59 290.716C379.19 289.627 380.893 288.475 382.687 287.263L382.706 287.25Z" fill="#FFF1C2"/>
<path d="M386.683 287.71C384.604 289.119 382.63 290.456 380.776 291.722C371.525 298.034 362.841 305.944 353.986 314.012L353.434 314.515C344.372 322.771 335.105 331.168 324.773 338.274C304.157 352.453 279.282 361.503 243.477 353.669C198.384 343.802 145.37 315.157 109.851 280.709C92.0894 263.483 78.7592 244.861 72.9457 226.474C67.1451 208.128 68.8263 190.036 81.0598 173.692C98.0612 150.979 111.92 134.931 130.668 122.91C149.42 110.887 173.129 102.852 209.879 96.3144C224.21 93.7648 237.26 88.2575 250.099 81.7563C255.737 78.9018 261.343 75.8504 266.998 72.7726C267.78 72.3469 268.563 71.9207 269.347 71.4945C275.805 67.9841 282.345 64.4674 289.113 61.1784C316.149 48.0395 346.819 38.5337 389.874 47.9544C406.351 51.5597 421.713 54.0985 435.646 56.4012C440.842 57.2599 445.841 58.086 450.623 58.9221C468.264 62.0067 482.973 65.2307 494.137 70.74C505.266 76.232 512.821 83.969 516.238 96.0829C519.67 108.249 518.962 124.938 513.291 148.404C505.157 182.067 481.043 211.775 454.39 236.162C430.511 258.012 404.688 275.51 386.691 287.705L386.683 287.71ZM386.78 287.966C405.816 275.068 433.637 256.216 458.641 232.559C483.651 208.896 505.791 180.474 513.528 148.452C522.818 110.008 518.843 89.6142 505.005 77.4829C498.057 71.3923 488.574 67.3352 476.881 64.1554C465.189 60.9758 451.34 58.6866 435.686 56.0994L435.682 56.0987C421.759 53.7978 406.422 51.2631 389.95 47.659C334.766 35.5844 299.883 54.5632 266.925 72.5019L266.889 72.5213C248.383 82.594 230.44 92.36 209.879 96.0179C173.119 102.558 149.373 110.599 130.577 122.65C111.781 134.702 97.8927 150.789 80.8854 173.511C68.5698 189.964 66.8871 208.183 72.7135 226.611C78.5469 245.061 91.9104 263.717 109.683 280.954C145.229 315.428 198.274 344.09 243.401 353.964C270.479 359.889 291.319 356.17 308.789 347.889C326.282 339.596 340.418 326.722 354.085 314.27L354.1 314.257C362.964 306.181 371.636 298.28 380.874 291.977C382.728 290.712 384.701 289.375 386.78 287.966ZM382.61 286.993L382.597 287.002C380.801 288.217 379.095 289.37 377.492 290.461C369.472 295.92 361.946 302.762 354.279 309.734L353.796 310.173C345.946 317.309 337.925 324.564 328.982 330.7C311.143 342.941 289.617 350.751 258.613 343.967C219.549 335.419 173.611 310.632 142.828 280.837C127.435 265.938 115.888 249.84 110.849 233.959C105.823 218.118 107.271 202.513 117.839 188.418C132.56 168.783 144.553 154.923 160.777 144.545C177.006 134.165 197.533 127.228 229.372 121.589C241.803 119.388 253.12 114.625 264.247 109.005C269.133 106.538 273.992 103.9 278.891 101.24C279.568 100.872 280.246 100.504 280.924 100.137C286.519 97.1032 292.183 94.0652 298.044 91.2245C321.454 79.8784 348.006 71.6761 385.295 79.8352C399.577 82.9603 412.895 85.1629 424.972 87.1601L424.973 87.1604C429.475 87.9049 433.805 88.621 437.946 89.3456C453.236 92.0205 465.972 94.813 475.636 99.5757C485.265 104.321 491.793 110.997 494.75 121.441C497.721 131.936 497.119 146.346 492.218 166.632C485.192 195.708 464.329 221.372 441.249 242.448C420.571 261.33 398.209 276.448 382.618 286.988L382.61 286.993ZM382.706 287.25C399.198 276.102 423.294 259.811 444.947 239.365C466.606 218.914 485.768 194.352 492.455 166.68C500.487 133.439 497.025 115.835 485.058 105.364C479.046 100.104 470.838 96.5943 460.707 93.8406C450.577 91.087 438.579 89.1022 425.011 86.8583C424.081 86.7046 423.145 86.5501 422.201 86.3944C410.903 84.5309 398.622 82.5054 385.443 79.6217C337.641 69.1623 307.367 85.4702 278.816 100.97L278.781 100.99C262.751 109.692 247.198 118.136 229.372 121.293C197.523 126.934 176.959 133.877 160.686 144.285C144.414 154.694 132.392 168.593 117.665 188.237C107.015 202.441 105.565 218.174 110.617 234.096C115.675 250.04 127.256 266.172 142.66 281.082C173.47 310.904 219.44 335.708 258.537 344.262C281.992 349.394 300.034 346.188 315.157 339.039C330.301 331.879 342.539 320.757 354.378 309.992L354.393 309.979C362.069 302.999 369.584 296.166 377.59 290.716C379.19 289.627 380.893 288.475 382.687 287.263L382.706 287.25Z" stroke="white"/>
</g>
</svg>
