<svg width="548" height="244" viewBox="0 0 548 244" fill="none" xmlns="http://www.w3.org/2000/svg">
<g style="mix-blend-mode:screen" opacity="0.7">
<path d="M422.577 346.867C419.524 348.816 416.624 350.666 413.899 352.417C400.298 361.16 387.579 372.18 374.623 383.408L373.814 384.108C360.552 395.6 347 407.278 331.842 417.102C301.607 436.697 264.962 448.931 211.722 437.042C144.616 422.056 65.3138 380.3 11.8356 330.725C-14.9048 305.937 -35.0891 279.285 -44.1241 253.15C-53.1365 227.081 -51.0596 201.55 -33.3163 178.724C-8.60365 146.933 11.5814 124.536 39.0991 107.951C66.6207 91.3639 101.592 80.5241 155.975 72.0953C177.224 68.8019 196.493 61.2835 215.408 52.3599C223.714 48.4417 231.968 44.2441 240.291 40.0118C241.442 39.4264 242.594 38.8404 243.748 38.2544C253.253 33.4274 262.876 28.5951 272.841 24.0911C312.641 6.1018 357.886 -6.65195 421.931 7.65047C446.479 13.1324 469.345 17.0775 490.079 20.6548C497.812 21.9889 505.249 23.272 512.364 24.5643C538.622 29.3337 560.492 34.2284 577.15 42.2667C593.737 50.2712 605.076 61.3523 610.405 78.5239C615.763 95.7883 615.103 119.378 607.226 152.486C595.937 199.941 560.858 241.452 521.869 275.388C486.937 305.793 449.02 329.991 422.586 346.861L422.577 346.867ZM423.04 347.574C450.999 329.731 491.875 303.645 528.46 270.683C565.052 237.715 597.293 197.92 608.055 152.681C620.962 98.4248 614.626 69.335 593.697 51.7432C583.201 42.9201 568.986 36.9442 551.541 32.1705C534.096 27.3971 513.474 23.8385 490.182 19.82L490.178 19.8193C469.459 16.2447 446.641 12.308 422.116 6.83105C339.825 -11.5459 288.411 14.5946 239.9 39.2638L239.866 39.2811C212.615 53.1394 186.235 66.5543 155.84 71.2653C101.41 79.7012 66.313 90.5633 38.6535 107.234C10.9959 123.903 -9.26736 146.404 -33.9922 178.211C-51.9352 201.294 -54.0186 227.128 -44.9294 253.419C-35.8317 279.735 -15.539 306.499 11.2543 331.337C64.8396 381.011 144.278 422.841 211.538 437.861C251.926 446.881 282.832 442.077 308.622 430.718C334.432 419.351 355.142 401.409 375.138 384.081L375.153 384.068C388.13 372.824 400.812 361.834 414.366 353.122C417.088 351.372 419.987 349.522 423.04 347.574ZM416.515 345.759L416.5 345.769C413.86 347.449 411.353 349.046 408.997 350.557C397.204 358.119 386.179 367.652 374.96 377.353L374.253 377.964C362.764 387.898 351.034 397.985 337.915 406.467C311.758 423.38 280.056 433.932 233.967 423.639C175.84 410.659 107.129 374.529 60.7869 331.653C37.6146 310.213 20.135 287.178 12.3079 264.611C4.50337 242.109 6.29096 220.096 21.6132 200.418C43.0121 172.937 60.4774 153.597 84.2865 139.283C108.1 124.966 138.373 115.609 185.487 108.343C203.925 105.5 220.637 98.9969 237.032 91.2836C244.231 87.8966 251.386 84.2676 258.598 80.6101C259.594 80.1049 260.591 79.5991 261.589 79.0934C269.824 74.9226 278.158 70.7488 286.787 66.8594C321.245 51.328 360.407 40.3276 415.865 52.7123C437.145 57.4644 456.969 60.8869 474.94 63.9894C481.64 65.1461 488.083 66.2585 494.246 67.3785C517.005 71.5141 535.936 75.753 550.35 82.6999C564.695 89.6133 574.483 99.1676 579.091 113.962C583.727 128.85 583.173 149.213 576.365 177.832C566.615 218.814 536.269 254.67 502.506 283.996C472.258 310.27 439.423 331.175 416.522 345.755L416.515 345.759ZM416.977 346.467C441.198 331.047 476.605 308.504 508.29 280.016C539.982 251.521 567.891 217.128 577.193 178.027C588.354 131.115 582.843 105.989 564.73 90.7914C555.641 83.1653 543.331 77.9943 528.214 73.8596C513.099 69.7253 495.23 66.6398 475.043 63.1547C473.66 62.9159 472.266 62.6759 470.862 62.4341C454.048 59.5384 435.781 56.3924 416.159 52.0106C344.863 36.089 300.229 58.5493 258.204 79.8636L258.17 79.8808C234.564 91.8539 211.701 103.449 185.353 107.513C138.193 114.786 107.793 124.165 83.8417 138.565C59.8926 152.963 42.3489 172.407 20.9376 199.905C5.41511 219.84 3.62127 242.156 11.5028 264.881C19.393 287.629 36.9811 310.776 60.2062 332.265C106.655 375.24 175.502 411.444 233.783 424.459C268.773 432.273 295.54 428.132 317.87 418.324C340.22 408.508 358.152 393.006 375.474 378.027L375.49 378.014C386.728 368.295 397.716 358.794 409.462 351.262C411.812 349.755 414.314 348.162 416.948 346.485L416.977 346.467Z" fill="#FFF1C2"/>
<path d="M422.577 346.867C419.524 348.816 416.624 350.666 413.899 352.417C400.298 361.16 387.579 372.18 374.623 383.408L373.814 384.108C360.552 395.6 347 407.278 331.842 417.102C301.607 436.697 264.962 448.931 211.722 437.042C144.616 422.056 65.3138 380.3 11.8356 330.725C-14.9048 305.937 -35.0891 279.285 -44.1241 253.15C-53.1365 227.081 -51.0596 201.55 -33.3163 178.724C-8.60365 146.933 11.5814 124.536 39.0991 107.951C66.6207 91.3639 101.592 80.5241 155.975 72.0953C177.224 68.8019 196.493 61.2835 215.408 52.3599C223.714 48.4417 231.968 44.2441 240.291 40.0118C241.442 39.4264 242.594 38.8404 243.748 38.2544C253.253 33.4274 262.876 28.5951 272.841 24.0911C312.641 6.1018 357.886 -6.65195 421.931 7.65047C446.479 13.1324 469.345 17.0775 490.079 20.6548C497.812 21.9889 505.249 23.272 512.364 24.5643C538.622 29.3337 560.492 34.2284 577.15 42.2667C593.737 50.2712 605.076 61.3523 610.405 78.5239C615.763 95.7883 615.103 119.378 607.226 152.486C595.937 199.941 560.858 241.452 521.869 275.388C486.937 305.793 449.02 329.991 422.586 346.861L422.577 346.867ZM423.04 347.574C450.999 329.731 491.875 303.645 528.46 270.683C565.052 237.715 597.293 197.92 608.055 152.681C620.962 98.4248 614.626 69.335 593.697 51.7432C583.201 42.9201 568.986 36.9442 551.541 32.1705C534.096 27.3971 513.474 23.8385 490.182 19.82L490.178 19.8193C469.459 16.2447 446.641 12.308 422.116 6.83105C339.825 -11.5459 288.411 14.5946 239.9 39.2638L239.866 39.2811C212.615 53.1394 186.235 66.5543 155.84 71.2653C101.41 79.7012 66.313 90.5633 38.6535 107.234C10.9959 123.903 -9.26736 146.404 -33.9922 178.211C-51.9352 201.294 -54.0186 227.128 -44.9294 253.419C-35.8317 279.735 -15.539 306.499 11.2543 331.337C64.8396 381.011 144.278 422.841 211.538 437.861C251.926 446.881 282.832 442.077 308.622 430.718C334.432 419.351 355.142 401.409 375.138 384.081L375.153 384.068C388.13 372.824 400.812 361.834 414.366 353.122C417.088 351.372 419.987 349.522 423.04 347.574ZM416.515 345.759L416.5 345.769C413.86 347.449 411.353 349.046 408.997 350.557C397.204 358.119 386.179 367.652 374.96 377.353L374.253 377.964C362.764 387.898 351.034 397.985 337.915 406.467C311.758 423.38 280.056 433.932 233.967 423.639C175.84 410.659 107.129 374.529 60.7869 331.653C37.6146 310.213 20.135 287.178 12.3079 264.611C4.50337 242.109 6.29096 220.096 21.6132 200.418C43.0121 172.937 60.4774 153.597 84.2865 139.283C108.1 124.966 138.373 115.609 185.487 108.343C203.925 105.5 220.637 98.9969 237.032 91.2836C244.231 87.8966 251.386 84.2676 258.598 80.6101C259.594 80.1049 260.591 79.5991 261.589 79.0934C269.824 74.9226 278.158 70.7488 286.787 66.8594C321.245 51.328 360.407 40.3276 415.865 52.7123C437.145 57.4644 456.969 60.8869 474.94 63.9894C481.64 65.1461 488.083 66.2585 494.246 67.3785C517.005 71.5141 535.936 75.753 550.35 82.6999C564.695 89.6133 574.483 99.1676 579.091 113.962C583.727 128.85 583.173 149.213 576.365 177.832C566.615 218.814 536.269 254.67 502.506 283.996C472.258 310.27 439.423 331.175 416.522 345.755L416.515 345.759ZM416.977 346.467C441.198 331.047 476.605 308.504 508.29 280.016C539.982 251.521 567.891 217.128 577.193 178.027C588.354 131.115 582.843 105.989 564.73 90.7914C555.641 83.1653 543.331 77.9943 528.214 73.8596C513.099 69.7253 495.23 66.6398 475.043 63.1547C473.66 62.9159 472.266 62.6759 470.862 62.4341C454.048 59.5384 435.781 56.3924 416.159 52.0106C344.863 36.089 300.229 58.5493 258.204 79.8636L258.17 79.8808C234.564 91.8539 211.701 103.449 185.353 107.513C138.193 114.786 107.793 124.165 83.8417 138.565C59.8926 152.963 42.3489 172.407 20.9376 199.905C5.41511 219.84 3.62127 242.156 11.5028 264.881C19.393 287.629 36.9811 310.776 60.2062 332.265C106.655 375.24 175.502 411.444 233.783 424.459C268.773 432.273 295.54 428.132 317.87 418.324C340.22 408.508 358.152 393.006 375.474 378.027L375.49 378.014C386.728 368.295 397.716 358.794 409.462 351.262C411.812 349.755 414.314 348.162 416.948 346.485L416.977 346.467Z" stroke="white"/>
</g>
</svg>
